<?xml version="1.0" encoding="UTF-8"?>
<!DOCTYPE svg PUBLIC "-//W3C//DTD SVG 1.1//EN" "http://www.w3.org/Graphics/SVG/1.1/DTD/svg11.dtd">
<svg version="1.1" xmlns="http://www.w3.org/2000/svg" xmlns:xlink="http://www.w3.org/1999/xlink" x="0" y="0" width="100" height="100" viewBox="0, 0, 100, 100">
  <g id="Layer_1">
    <path d="M41.194,67.661 C45.756,71.888 50.024,73.885 50.024,73.885 C50.024,73.885 55.102,71.531 59.506,67.457 C64.092,63.215 64.285,54.048 63.615,47.314 C62.978,40.913 50.223,43.501 50.223,43.501 C50.223,43.501 37.464,40.517 37.119,47.74 C36.872,52.909 34.82,61.754 41.194,67.661 z" fill-opacity="0" stroke="#FFFED0" stroke-width="1.5"/>
    <path d="M41.194,67.661 C45.756,71.888 50.024,73.885 50.024,73.885 C50.024,73.885 55.102,71.531 59.506,67.457 C64.092,63.215 64.285,54.048 63.615,47.314 C62.978,40.913 50.223,43.501 50.223,43.501 C50.223,43.501 37.464,40.517 37.119,47.74 C36.872,52.909 34.82,61.754 41.194,67.661 z" fill="#000000"/>
    <path d="M50.5,52.186 C41.265,52.186 33.506,49.067 33.506,45.137 C33.506,44.59 33.811,39.989 34.705,38.351 C36.733,34.636 42.476,31.696 50.427,31.696 C58.314,31.696 64.25,34.482 66.109,38.256 C67.222,40.517 67.494,44.563 67.494,45.137 C67.494,49.067 59.735,52.186 50.5,52.186 z" fill-opacity="0" stroke="#FFFED0" stroke-width="1.5"/>
    <path d="M50.5,52.186 C41.265,52.186 33.506,49.067 33.506,45.137 C33.506,44.59 33.811,39.989 34.705,38.351 C36.733,34.636 42.476,31.696 50.427,31.696 C58.314,31.696 64.25,34.482 66.109,38.256 C67.222,40.517 67.494,44.563 67.494,45.137 C67.494,49.067 59.735,52.186 50.5,52.186 z" fill="#000000"/>
    <path d="M51.435,35.782 L52.191,27.115 L48.871,27.115 L49.301,35.67" fill-opacity="0" stroke="#FFFED0" stroke-width="1.5" stroke-linecap="round" stroke-linejoin="round"/>
    <path d="M51.435,36.862 L52.191,27.115 L48.871,27.115 L49.301,36.75" fill="#000000"/>
  </g>
</svg>
