<?xml version="1.0" encoding="UTF-8"?>
<!DOCTYPE svg PUBLIC "-//W3C//DTD SVG 1.1//EN" "http://www.w3.org/Graphics/SVG/1.1/DTD/svg11.dtd">
<svg version="1.1" xmlns="http://www.w3.org/2000/svg" xmlns:xlink="http://www.w3.org/1999/xlink" x="0" y="0" width="100" height="100" viewBox="0, 0, 100, 100">
  <g id="Layer_1">
    <path d="M50.006,51.595 C50.924,51.64 51.171,51.717 51.675,51.897 C52.754,52.283 52.703,52.234 53.696,52.931 C55.167,53.963 55.798,56.304 56.192,56.811 C56.646,57.417 56.798,58.075 56.863,58.833 L56.808,58.977 L56.808,58.977 C56.289,58.72 56.493,57.881 56.096,57.584 L55.147,57.256 C54.29,57.938 54.578,57.572 54.169,58.27 C53.508,59.453 53.446,59.024 53.236,60.1 L54.132,61.788 C54.855,61.847 55.931,61.453 56.488,61.092 C56.419,61.732 56.512,61.249 56.2,62.022 L54.539,64.022 C53.521,65.641 54.011,65.585 53.475,67.025 C52.497,71.074 51.834,71.625 51.834,71.625 L51.834,71.624 L51.834,71.625 C51.626,70.668 51.699,70.598 51.176,69.79 C50.418,68.648 50.877,68.996 50.009,68.532 C49.139,68.996 49.598,68.648 48.84,69.79 C48.385,70.858 48.33,70.491 48.188,71.625 L48.188,71.624 L48.188,71.625 C48.182,71.625 47.518,71.074 46.54,67.025 C46.004,65.585 46.494,65.641 45.475,64.022 C44.33,62.33 44.057,62.657 43.817,62.023 C43.504,61.249 43.598,61.733 43.52,61.124 C44.107,61.449 45.144,61.838 45.883,61.788 C46.815,60.68 46.783,60.428 46.786,60.14 C46.568,59.024 46.756,59.581 46.141,58.453 C45.762,57.787 45.726,57.938 44.869,57.256 L43.92,57.584 C43.523,57.881 43.727,58.72 43.309,58.921 L43.307,58.922 C43.159,58.901 43.135,58.889 43.137,58.871 C43.202,58.207 43.37,57.417 43.824,56.811 C44.218,56.304 44.858,53.969 46.272,52.957 C47.172,52.313 47.247,52.296 48.072,51.98 C48.4,51.855 49.027,51.625 50,51.594" fill-opacity="0" stroke="#FFFED0" stroke-width="1.5" stroke-linecap="round" stroke-linejoin="round"/>
    <path d="M50.006,51.595 C50.924,51.64 51.171,51.717 51.675,51.897 C52.754,52.283 52.703,52.234 53.696,52.931 C55.167,53.963 55.798,56.304 56.192,56.811 C56.646,57.417 56.798,58.075 56.863,58.833 L56.808,58.977 L56.808,58.977 C56.289,58.72 56.493,57.881 56.096,57.584 L55.147,57.256 C54.29,57.938 54.578,57.572 54.169,58.27 C53.508,59.453 53.446,59.024 53.236,60.1 L54.132,61.788 C54.855,61.847 55.931,61.453 56.488,61.092 C56.419,61.732 56.512,61.249 56.2,62.022 L54.539,64.022 C53.521,65.641 54.011,65.585 53.475,67.025 C52.497,71.074 51.834,71.625 51.834,71.625 L51.834,71.624 L51.834,71.625 C51.626,70.668 51.699,70.598 51.176,69.79 C50.418,68.648 50.877,68.996 50.009,68.532 C49.139,68.996 49.598,68.648 48.84,69.79 C48.385,70.858 48.33,70.491 48.188,71.625 L48.188,71.624 L48.188,71.625 C48.182,71.625 47.518,71.074 46.54,67.025 C46.004,65.585 46.494,65.641 45.475,64.022 C44.33,62.33 44.057,62.657 43.817,62.023 C43.504,61.249 43.597,61.733 43.52,61.124 C44.107,61.449 45.144,61.838 45.883,61.788 C46.815,60.68 46.783,60.428 46.786,60.14 C46.568,59.024 46.756,59.581 46.141,58.453 C45.762,57.787 45.726,57.938 44.869,57.256 L43.92,57.584 C43.523,57.881 43.727,58.72 43.309,58.921 L43.307,58.922 C43.159,58.901 43.135,58.889 43.137,58.871 C43.202,58.207 43.37,57.417 43.824,56.811 C44.218,56.304 44.858,53.969 46.272,52.957 C47.172,52.313 47.247,52.296 48.072,51.98 C48.4,51.855 49.027,51.625 50,51.594" fill="#000000"/>
    <path d="M38.304,38.68 C37.758,37.958 34.532,34.845 33.512,33.406 C32.49,31.967 30.421,28.219 30.421,28.219 C30.421,28.219 32.72,31.627 33.954,33.1 C35.187,34.573 38.171,37.622 38.824,37.552 C39.478,37.481 40.793,35.159 41.623,32.816 C42.454,30.473 42.678,25.356 42.678,25.356 C42.678,25.356 42.709,31.106 42.232,32.925 C41.756,34.743 39.925,37.68 40.033,38.44 C40.142,39.2 40.819,40.668 41.157,42.707 C41.495,44.747 42.372,48.213 42.494,48.906 C42.616,49.6 45.205,51.401 45.78,51.825 C46.355,52.248 47.432,52.841 47.432,52.841 C47.432,52.841 47.251,53.924 46.614,54.394 C45.976,54.863 45.018,54.76 45.018,54.76 C45.018,54.76 44.995,53.818 44.609,53.255 C44.224,52.693 41.904,50.896 40.467,50.458 C39.03,50.019 37.603,50.428 35.377,49.901 C33.151,49.373 32.156,49.005 31.532,49.194 C30.908,49.383 28.225,49.68 25.838,49.471 C23.366,49.254 20.483,47.364 20.483,47.364 C20.483,47.364 23.799,48.76 25.838,48.884 C27.892,49.009 30.488,48.879 30.567,48.168 C30.646,47.456 26.61,44.527 25.313,43.167 C23.855,41.64 21.419,36.276 21.419,36.276 C21.419,36.276 23.758,40.749 25.436,42.487 C27.167,44.28 30.961,46.937 31.744,47.515 C32.527,48.094 33.754,48.129 35.338,48.466 C36.922,48.803 39.396,48.855 40.149,48.421 C40.901,47.988 40.304,46.043 39.77,42.879 C39.235,39.716 38.851,39.401 38.304,38.68 z" fill-opacity="0" stroke="#FFFED0" stroke-width="1.5" stroke-linecap="round" stroke-linejoin="round"/>
    <path d="M61.696,38.68 C62.242,37.958 65.468,34.845 66.488,33.406 C67.51,31.967 69.579,28.219 69.579,28.219 C69.579,28.219 67.28,31.627 66.046,33.1 C64.813,34.573 61.829,37.622 61.176,37.552 C60.522,37.481 59.207,35.159 58.377,32.816 C57.546,30.473 57.322,25.356 57.322,25.356 C57.322,25.356 57.291,31.106 57.768,32.925 C58.244,34.743 60.075,37.68 59.967,38.44 C59.858,39.2 59.181,40.668 58.843,42.707 C58.505,44.747 57.628,48.213 57.506,48.906 C57.384,49.6 54.795,51.401 54.22,51.825 C53.645,52.248 52.568,52.841 52.568,52.841 C52.568,52.841 52.749,53.924 53.386,54.394 C54.024,54.863 54.982,54.76 54.982,54.76 C54.982,54.76 55.005,53.818 55.391,53.255 C55.776,52.693 58.096,50.896 59.533,50.458 C60.97,50.019 62.397,50.428 64.623,49.901 C66.849,49.373 67.844,49.005 68.468,49.194 C69.092,49.383 71.775,49.68 74.162,49.471 C76.634,49.254 79.517,47.364 79.517,47.364 C79.517,47.364 76.201,48.76 74.162,48.884 C72.108,49.008 69.512,48.879 69.433,48.168 C69.354,47.456 73.39,44.527 74.687,43.167 C76.145,41.64 78.581,36.276 78.581,36.276 C78.581,36.276 76.242,40.749 74.564,42.487 C72.833,44.28 69.039,46.937 68.256,47.515 C67.473,48.094 66.246,48.129 64.662,48.466 C63.078,48.803 60.604,48.855 59.851,48.421 C59.099,47.988 59.696,46.043 60.23,42.879 C60.765,39.716 61.149,39.401 61.696,38.68 z" fill-opacity="0" stroke="#FFFED0" stroke-width="1.5" stroke-linecap="round" stroke-linejoin="round"/>
    <path d="M38.304,38.68 C37.758,37.958 34.532,34.845 33.512,33.406 C32.49,31.967 30.421,28.219 30.421,28.219 C30.421,28.219 32.72,31.627 33.954,33.1 C35.187,34.573 38.171,37.622 38.824,37.552 C39.478,37.481 40.793,35.159 41.623,32.816 C42.454,30.473 42.678,25.356 42.678,25.356 C42.678,25.356 42.709,31.106 42.232,32.925 C41.756,34.743 39.925,37.68 40.033,38.44 C40.142,39.2 40.819,40.668 41.157,42.707 C41.495,44.747 42.372,48.213 42.494,48.906 C42.616,49.6 45.205,51.401 45.78,51.825 C46.355,52.248 47.432,52.841 47.432,52.841 C47.432,52.841 47.251,53.924 46.614,54.394 C45.976,54.863 45.018,54.76 45.018,54.76 C45.018,54.76 44.995,53.818 44.609,53.255 C44.224,52.693 41.904,50.896 40.467,50.458 C39.03,50.019 37.603,50.428 35.377,49.901 C33.151,49.373 32.156,49.005 31.532,49.194 C30.908,49.383 28.225,49.68 25.838,49.471 C23.366,49.254 20.483,47.364 20.483,47.364 C20.483,47.364 23.799,48.76 25.838,48.884 C27.892,49.009 30.488,48.879 30.567,48.168 C30.646,47.456 26.61,44.527 25.313,43.167 C23.855,41.64 21.419,36.276 21.419,36.276 C21.419,36.276 23.758,40.749 25.436,42.487 C27.167,44.28 30.961,46.937 31.744,47.515 C32.527,48.094 33.754,48.129 35.338,48.466 C36.922,48.803 39.396,48.855 40.149,48.421 C40.901,47.988 40.304,46.043 39.77,42.879 C39.235,39.716 38.851,39.401 38.304,38.68 z" fill="#000000"/>
    <path d="M61.696,38.68 C62.242,37.958 65.468,34.845 66.488,33.406 C67.51,31.967 69.579,28.219 69.579,28.219 C69.579,28.219 67.28,31.627 66.046,33.1 C64.813,34.573 61.829,37.622 61.176,37.552 C60.522,37.481 59.207,35.159 58.377,32.816 C57.546,30.473 57.322,25.356 57.322,25.356 C57.322,25.356 57.291,31.106 57.768,32.925 C58.244,34.743 60.075,37.68 59.967,38.44 C59.858,39.2 59.181,40.668 58.843,42.707 C58.505,44.747 57.628,48.213 57.506,48.906 C57.384,49.6 54.795,51.401 54.22,51.825 C53.645,52.248 52.568,52.841 52.568,52.841 C52.568,52.841 52.749,53.924 53.386,54.394 C54.024,54.863 54.982,54.76 54.982,54.76 C54.982,54.76 55.005,53.818 55.391,53.255 C55.776,52.693 58.096,50.896 59.533,50.458 C60.97,50.019 62.397,50.428 64.623,49.901 C66.849,49.373 67.844,49.005 68.468,49.194 C69.092,49.383 71.775,49.68 74.162,49.471 C76.634,49.254 79.517,47.364 79.517,47.364 C79.517,47.364 76.201,48.76 74.162,48.884 C72.108,49.008 69.512,48.879 69.433,48.168 C69.354,47.456 73.39,44.527 74.687,43.167 C76.145,41.64 78.581,36.276 78.581,36.276 C78.581,36.276 76.242,40.749 74.564,42.487 C72.833,44.28 69.039,46.937 68.256,47.515 C67.473,48.094 66.246,48.129 64.662,48.466 C63.078,48.803 60.604,48.855 59.851,48.421 C59.099,47.988 59.696,46.043 60.23,42.879 C60.765,39.716 61.149,39.401 61.696,38.68 z" fill="#000000"/>
  </g>
</svg>
