<?xml version="1.0" encoding="UTF-8"?>
<!DOCTYPE svg PUBLIC "-//W3C//DTD SVG 1.1//EN" "http://www.w3.org/Graphics/SVG/1.1/DTD/svg11.dtd">
<svg version="1.1" xmlns="http://www.w3.org/2000/svg" xmlns:xlink="http://www.w3.org/1999/xlink" x="0" y="0" width="100" height="100" viewBox="0, 0, 100, 100">
  <g id="Layer_1">
    <g>
      <path d="M46.383,27.688 L54.617,27.688 L54.617,34.719 L46.383,34.719 L46.383,27.688 z" fill="#000000"/>
      <path d="M46.383,27.688 L54.617,27.688 L54.617,34.719 L46.383,34.719 L46.383,27.688 z" fill-opacity="0" stroke="#FFFED0" stroke-width="1"/>
    </g>
    <g>
      <path d="M45.133,33.194 L54.867,33.194 C59.063,33.194 62.464,36.596 62.464,40.791 L62.464,69.281 C62.464,73.476 59.063,76.878 54.867,76.878 L45.133,76.878 C40.937,76.878 37.536,73.476 37.536,69.281 L37.536,40.791 C37.536,36.596 40.937,33.194 45.133,33.194 z" fill="#000000"/>
      <path d="M45.133,33.194 L54.867,33.194 C59.063,33.194 62.464,36.596 62.464,40.791 L62.464,69.281 C62.464,73.476 59.063,76.878 54.867,76.878 L45.133,76.878 C40.937,76.878 37.536,73.476 37.536,69.281 L37.536,40.791 C37.536,36.596 40.937,33.194 45.133,33.194 z" fill-opacity="0" stroke="#FFFED0" stroke-width="1"/>
    </g>
    <g>
      <path d="M46.875,25.281 L54.125,25.281 C55.126,25.281 55.938,26.093 55.938,27.094 L55.938,27.094 C55.938,28.095 55.126,28.906 54.125,28.906 L46.875,28.906 C45.874,28.906 45.062,28.095 45.062,27.094 L45.062,27.094 C45.062,26.093 45.874,25.281 46.875,25.281 z" fill="#000000"/>
      <path d="M46.875,25.281 L54.125,25.281 C55.126,25.281 55.938,26.093 55.938,27.094 L55.938,27.094 C55.938,28.095 55.126,28.906 54.125,28.906 L46.875,28.906 C45.874,28.906 45.062,28.095 45.062,27.094 L45.062,27.094 C45.062,26.093 45.874,25.281 46.875,25.281 z" fill-opacity="0" stroke="#FFFED0" stroke-width="1"/>
    </g>
    <g>
      <path d="M41.325,46.266 L58.675,46.266 L58.675,63.806 L41.325,63.806 L41.325,46.266 z" fill="#FFFED0"/>
      <g>
        <path d="M41.325,46.266 L58.675,46.266 L58.675,63.806 L41.325,63.806 L41.325,46.266 z" fill="#FFFED0"/>
        <path d="M41.325,46.266 L58.675,46.266 L58.675,63.806 L41.325,63.806 L41.325,46.266 z" fill-opacity="0" stroke="#FFFED0" stroke-width="1"/>
      </g>
    </g>
  </g>
</svg>
