<?xml version="1.0" encoding="UTF-8"?>
<!DOCTYPE svg PUBLIC "-//W3C//DTD SVG 1.1//EN" "http://www.w3.org/Graphics/SVG/1.1/DTD/svg11.dtd">
<svg version="1.1" xmlns="http://www.w3.org/2000/svg" xmlns:xlink="http://www.w3.org/1999/xlink" x="0" y="0" width="100" height="100" viewBox="0, 0, 100, 100">
  <g id="Layer_1">
    <g>
      <path d="M50,24.405 C51.06,24.405 51.919,25.264 51.919,26.323 L51.919,36.426 L54.533,26.667 C54.808,25.644 55.86,25.036 56.883,25.311 L57.158,25.411 C58.173,25.833 58.376,26.865 58.24,27.661 L55.624,37.42 L60.677,28.67 C61.207,27.752 62.38,27.438 63.298,27.968 C64.215,28.497 64.53,29.671 64,30.589 L58.95,39.335 L66.092,32.194 C66.842,31.445 68.057,31.445 68.806,32.194 L69.227,32.828 C69.409,33.438 69.494,33.872 68.806,34.908 L61.664,42.049 L70.411,37 C71.329,36.47 72.503,36.785 73.032,37.702 C73.562,38.62 73.248,39.793 72.33,40.323 L63.579,45.375 L73.339,42.76 C74.363,42.486 75.415,43.093 75.689,44.117 C75.964,45.14 75.356,46.192 74.333,46.467 L64.574,49.081 L74.677,49.081 C75.736,49.081 76.595,49.94 76.595,51 C76.595,52.06 75.736,52.919 74.677,52.919 L64.574,52.919 L74.333,55.533 C75.356,55.808 75.964,56.86 75.689,57.883 C75.415,58.907 74.363,59.514 73.339,59.24 L63.579,56.624 L72.33,61.677 C73.248,62.207 73.562,63.38 73.032,64.298 C72.502,65.215 71.329,65.53 70.411,65 L61.664,59.95 L68.806,67.092 C69.555,67.842 69.555,69.057 68.806,69.806 C68.057,70.555 66.842,70.555 66.092,69.806 L58.95,62.664 L64,71.411 C64.53,72.329 64.215,73.503 63.298,74.032 C62.38,74.562 61.207,74.248 60.677,73.33 L55.624,64.579 L58.24,74.339 C58.514,75.363 57.907,76.415 56.883,76.689 C55.86,76.964 54.808,76.356 54.533,75.333 L51.919,65.574 L51.919,75.677 C51.919,76.736 51.06,77.595 50,77.595 C48.94,77.595 48.081,76.736 48.081,75.677 L48.081,65.574 L45.467,75.333 C45.192,76.356 44.14,76.964 43.117,76.689 C42.093,76.415 41.486,75.363 41.76,74.339 L44.375,64.579 L39.323,73.33 C38.793,74.248 37.62,74.562 36.702,74.032 C35.785,73.503 35.47,72.329 36,71.411 L41.049,62.664 L33.908,69.806 C33.158,70.555 31.943,70.555 31.194,69.806 C30.445,69.057 30.445,67.842 31.194,67.092 L38.335,59.95 L29.589,65 C28.671,65.53 27.497,65.215 26.968,64.298 C26.438,63.38 26.752,62.207 27.67,61.677 L36.42,56.624 L26.661,59.24 C25.637,59.514 24.585,58.907 24.311,57.883 C24.036,56.86 24.644,55.808 25.667,55.533 L35.426,52.919 L25.323,52.919 C24.264,52.919 23.405,52.06 23.405,51 C23.405,49.94 24.264,49.081 25.323,49.081 L35.426,49.081 L25.667,46.467 C24.644,46.192 24.036,45.14 24.311,44.117 C24.585,43.093 25.637,42.486 26.661,42.76 L36.42,45.375 L27.67,40.323 C26.752,39.793 26.438,38.62 26.968,37.702 C27.497,36.785 28.671,36.47 29.589,37 L38.335,42.049 L31.194,34.908 C30.445,34.158 30.445,32.943 31.194,32.194 C31.943,31.445 33.158,31.445 33.908,32.194 L41.049,39.335 L36,30.589 C35.47,29.671 35.785,28.497 36.702,27.968 C37.62,27.438 38.793,27.752 39.323,28.67 L44.375,37.42 L41.76,27.661 C41.486,26.637 42.093,25.585 43.117,25.311 C44.14,25.036 45.192,25.644 45.467,26.667 L48.081,36.426 L48.081,26.323 C48.081,25.264 48.94,24.405 50,24.405 z" fill="#000000"/>
      <path d="M50,24.405 C51.06,24.405 51.919,25.264 51.919,26.323 L51.919,36.426 L54.533,26.667 C54.808,25.644 55.86,25.036 56.883,25.311 L57.158,25.411 C58.173,25.833 58.376,26.865 58.24,27.661 L55.624,37.42 L60.677,28.67 C61.207,27.752 62.38,27.438 63.298,27.968 C64.215,28.497 64.53,29.671 64,30.589 L58.95,39.335 L66.092,32.194 C66.842,31.445 68.057,31.445 68.806,32.194 L69.227,32.828 C69.409,33.438 69.494,33.872 68.806,34.908 L61.664,42.049 L70.411,37 C71.329,36.47 72.503,36.785 73.032,37.702 C73.562,38.62 73.248,39.793 72.33,40.323 L63.579,45.375 L73.339,42.76 C74.363,42.486 75.415,43.093 75.689,44.117 C75.964,45.14 75.356,46.192 74.333,46.467 L64.574,49.081 L74.677,49.081 C75.736,49.081 76.595,49.94 76.595,51 C76.595,52.06 75.736,52.919 74.677,52.919 L64.574,52.919 L74.333,55.533 C75.356,55.808 75.964,56.86 75.689,57.883 C75.415,58.907 74.363,59.514 73.339,59.24 L63.579,56.624 L72.33,61.677 C73.248,62.207 73.562,63.38 73.032,64.298 C72.502,65.215 71.329,65.53 70.411,65 L61.664,59.95 L68.806,67.092 C69.555,67.842 69.555,69.057 68.806,69.806 C68.057,70.555 66.842,70.555 66.092,69.806 L58.95,62.664 L64,71.411 C64.53,72.329 64.215,73.503 63.298,74.032 C62.38,74.562 61.207,74.248 60.677,73.33 L55.624,64.579 L58.24,74.339 C58.514,75.363 57.907,76.415 56.883,76.689 C55.86,76.964 54.808,76.356 54.533,75.333 L51.919,65.574 L51.919,75.677 C51.919,76.736 51.06,77.595 50,77.595 C48.94,77.595 48.081,76.736 48.081,75.677 L48.081,65.574 L45.467,75.333 C45.192,76.356 44.14,76.964 43.117,76.689 C42.093,76.415 41.486,75.363 41.76,74.339 L44.375,64.579 L39.323,73.33 C38.793,74.248 37.62,74.562 36.702,74.032 C35.785,73.503 35.47,72.329 36,71.411 L41.049,62.664 L33.908,69.806 C33.158,70.555 31.943,70.555 31.194,69.806 C30.445,69.057 30.445,67.842 31.194,67.092 L38.335,59.95 L29.589,65 C28.671,65.53 27.497,65.215 26.968,64.298 C26.438,63.38 26.752,62.207 27.67,61.677 L36.42,56.624 L26.661,59.24 C25.637,59.514 24.585,58.907 24.311,57.883 C24.036,56.86 24.644,55.808 25.667,55.533 L35.426,52.919 L25.323,52.919 C24.264,52.919 23.405,52.06 23.405,51 C23.405,49.94 24.264,49.081 25.323,49.081 L35.426,49.081 L25.667,46.467 C24.644,46.192 24.036,45.14 24.311,44.117 C24.585,43.093 25.637,42.486 26.661,42.76 L36.42,45.375 L27.67,40.323 C26.752,39.793 26.438,38.62 26.968,37.702 C27.497,36.785 28.671,36.47 29.589,37 L38.335,42.049 L31.194,34.908 C30.445,34.158 30.445,32.943 31.194,32.194 C31.943,31.445 33.158,31.445 33.908,32.194 L41.049,39.335 L36,30.589 C35.47,29.671 35.785,28.497 36.702,27.968 C37.62,27.438 38.793,27.752 39.323,28.67 L44.375,37.42 L41.76,27.661 C41.486,26.637 42.093,25.585 43.117,25.311 C44.14,25.036 45.192,25.644 45.467,26.667 L48.081,36.426 L48.081,26.323 C48.081,25.264 48.94,24.405 50,24.405 z" fill-opacity="0" stroke="#FFFED0" stroke-width="1" stroke-linecap="round" stroke-linejoin="round"/>
    </g>
    <path d="M50,64.003 C42.819,64.003 36.997,58.181 36.997,51 C36.997,43.819 42.819,37.997 50,37.997 C57.181,37.997 63.003,43.819 63.003,51 C63.003,58.181 57.181,64.003 50,64.003 z" fill-opacity="0" stroke="#FFFED0" stroke-width="1"/>
    <g>
      <g>
        <path d="M50,51.562 C49.689,51.562 49.438,51.311 49.438,51 C49.438,50.689 49.689,50.438 50,50.438 C50.311,50.438 50.562,50.689 50.562,51 C50.562,51.311 50.311,51.562 50,51.562 z" fill="#FFFED0"/>
        <path d="M50,51.562 C49.689,51.562 49.438,51.311 49.438,51 C49.438,50.689 49.689,50.438 50,50.438 C50.311,50.438 50.562,50.689 50.562,51 C50.562,51.311 50.311,51.562 50,51.562 z" fill-opacity="0" stroke="#FFFED0" stroke-width="1.1"/>
      </g>
      <g>
        <path d="M48.219,48.578 C47.908,48.578 47.656,48.326 47.656,48.016 C47.656,47.705 47.908,47.453 48.219,47.453 C48.529,47.453 48.781,47.705 48.781,48.016 C48.781,48.326 48.529,48.578 48.219,48.578 z" fill="#FFFED0"/>
        <path d="M48.219,48.578 C47.908,48.578 47.656,48.326 47.656,48.016 C47.656,47.705 47.908,47.453 48.219,47.453 C48.529,47.453 48.781,47.705 48.781,48.016 C48.781,48.326 48.529,48.578 48.219,48.578 z" fill-opacity="0" stroke="#FFFED0" stroke-width="1.1"/>
      </g>
      <g>
        <path d="M44.672,48.578 C44.361,48.578 44.109,48.326 44.109,48.016 C44.109,47.705 44.361,47.453 44.672,47.453 C44.983,47.453 45.234,47.705 45.234,48.016 C45.234,48.326 44.983,48.578 44.672,48.578 z" fill="#FFFED0"/>
        <path d="M44.672,48.578 C44.361,48.578 44.109,48.326 44.109,48.016 C44.109,47.705 44.361,47.453 44.672,47.453 C44.983,47.453 45.234,47.705 45.234,48.016 C45.234,48.326 44.983,48.578 44.672,48.578 z" fill-opacity="0" stroke="#FFFED0" stroke-width="1.1"/>
      </g>
      <g>
        <path d="M41.125,48.578 C40.814,48.578 40.562,48.326 40.562,48.016 C40.562,47.705 40.814,47.453 41.125,47.453 C41.436,47.453 41.688,47.705 41.688,48.016 C41.688,48.326 41.436,48.578 41.125,48.578 z" fill="#FFFED0"/>
        <path d="M41.125,48.578 C40.814,48.578 40.562,48.326 40.562,48.016 C40.562,47.705 40.814,47.453 41.125,47.453 C41.436,47.453 41.688,47.705 41.688,48.016 C41.688,48.326 41.436,48.578 41.125,48.578 z" fill-opacity="0" stroke="#FFFED0" stroke-width="1.1"/>
      </g>
      <g>
        <path d="M40.734,51.562 C40.424,51.562 40.172,51.311 40.172,51 C40.172,50.689 40.424,50.438 40.734,50.438 C41.045,50.438 41.297,50.689 41.297,51 C41.297,51.311 41.045,51.562 40.734,51.562 z" fill="#FFFED0"/>
        <path d="M40.734,51.562 C40.424,51.562 40.172,51.311 40.172,51 C40.172,50.689 40.424,50.438 40.734,50.438 C41.045,50.438 41.297,50.689 41.297,51 C41.297,51.311 41.045,51.562 40.734,51.562 z" fill-opacity="0" stroke="#FFFED0" stroke-width="1.1"/>
      </g>
      <g>
        <path d="M43.828,51.562 C43.517,51.562 43.266,51.311 43.266,51 C43.266,50.689 43.517,50.438 43.828,50.438 C44.139,50.438 44.391,50.689 44.391,51 C44.391,51.311 44.139,51.562 43.828,51.562 z" fill="#FFFED0"/>
        <path d="M43.828,51.562 C43.517,51.562 43.266,51.311 43.266,51 C43.266,50.689 43.517,50.438 43.828,50.438 C44.139,50.438 44.391,50.689 44.391,51 C44.391,51.311 44.139,51.562 43.828,51.562 z" fill-opacity="0" stroke="#FFFED0" stroke-width="1.1"/>
      </g>
      <g>
        <path d="M46.927,51.562 C46.617,51.562 46.365,51.311 46.365,51 C46.365,50.689 46.617,50.438 46.927,50.438 C47.238,50.438 47.49,50.689 47.49,51 C47.49,51.311 47.238,51.562 46.927,51.562 z" fill="#FFFED0"/>
        <path d="M46.927,51.562 C46.617,51.562 46.365,51.311 46.365,51 C46.365,50.689 46.617,50.438 46.927,50.438 C47.238,50.438 47.49,50.689 47.49,51 C47.49,51.311 47.238,51.562 46.927,51.562 z" fill-opacity="0" stroke="#FFFED0" stroke-width="1.1"/>
      </g>
      <g>
        <path d="M48.219,54.547 C47.908,54.547 47.656,54.295 47.656,53.984 C47.656,53.674 47.908,53.422 48.219,53.422 C48.529,53.422 48.781,53.674 48.781,53.984 C48.781,54.295 48.529,54.547 48.219,54.547 z" fill="#FFFED0"/>
        <path d="M48.219,54.547 C47.908,54.547 47.656,54.295 47.656,53.984 C47.656,53.674 47.908,53.422 48.219,53.422 C48.529,53.422 48.781,53.674 48.781,53.984 C48.781,54.295 48.529,54.547 48.219,54.547 z" fill-opacity="0" stroke="#FFFED0" stroke-width="1.1"/>
      </g>
      <g>
        <path d="M44.672,54.547 C44.361,54.547 44.109,54.295 44.109,53.984 C44.109,53.674 44.361,53.422 44.672,53.422 C44.983,53.422 45.234,53.674 45.234,53.984 C45.234,54.295 44.983,54.547 44.672,54.547 z" fill="#FFFED0"/>
        <path d="M44.672,54.547 C44.361,54.547 44.109,54.295 44.109,53.984 C44.109,53.674 44.361,53.422 44.672,53.422 C44.983,53.422 45.234,53.674 45.234,53.984 C45.234,54.295 44.983,54.547 44.672,54.547 z" fill-opacity="0" stroke="#FFFED0" stroke-width="1.1"/>
      </g>
      <g>
        <path d="M41.125,54.547 C40.814,54.547 40.562,54.295 40.562,53.984 C40.562,53.674 40.814,53.422 41.125,53.422 C41.436,53.422 41.688,53.674 41.688,53.984 C41.688,54.295 41.436,54.547 41.125,54.547 z" fill="#FFFED0"/>
        <path d="M41.125,54.547 C40.814,54.547 40.562,54.295 40.562,53.984 C40.562,53.674 40.814,53.422 41.125,53.422 C41.436,53.422 41.688,53.674 41.688,53.984 C41.688,54.295 41.436,54.547 41.125,54.547 z" fill-opacity="0" stroke="#FFFED0" stroke-width="1.1"/>
      </g>
      <g>
        <path d="M42.797,57.531 C42.486,57.531 42.234,57.279 42.234,56.969 C42.234,56.658 42.486,56.406 42.797,56.406 C43.108,56.406 43.359,56.658 43.359,56.969 C43.359,57.279 43.108,57.531 42.797,57.531 z" fill="#FFFED0"/>
        <path d="M42.797,57.531 C42.486,57.531 42.234,57.279 42.234,56.969 C42.234,56.658 42.486,56.406 42.797,56.406 C43.108,56.406 43.359,56.658 43.359,56.969 C43.359,57.279 43.108,57.531 42.797,57.531 z" fill-opacity="0" stroke="#FFFED0" stroke-width="1.1"/>
      </g>
      <g>
        <path d="M46.391,57.531 C46.08,57.531 45.828,57.279 45.828,56.969 C45.828,56.658 46.08,56.406 46.391,56.406 C46.701,56.406 46.953,56.658 46.953,56.969 C46.953,57.279 46.701,57.531 46.391,57.531 z" fill="#FFFED0"/>
        <path d="M46.391,57.531 C46.08,57.531 45.828,57.279 45.828,56.969 C45.828,56.658 46.08,56.406 46.391,56.406 C46.701,56.406 46.953,56.658 46.953,56.969 C46.953,57.279 46.701,57.531 46.391,57.531 z" fill-opacity="0" stroke="#FFFED0" stroke-width="1.1"/>
      </g>
      <g>
        <path d="M50,57.531 C49.689,57.531 49.438,57.279 49.438,56.969 C49.438,56.658 49.689,56.406 50,56.406 C50.311,56.406 50.562,56.658 50.562,56.969 C50.562,57.279 50.311,57.531 50,57.531 z" fill="#FFFED0"/>
        <path d="M50,57.531 C49.689,57.531 49.438,57.279 49.438,56.969 C49.438,56.658 49.689,56.406 50,56.406 C50.311,56.406 50.562,56.658 50.562,56.969 C50.562,57.279 50.311,57.531 50,57.531 z" fill-opacity="0" stroke="#FFFED0" stroke-width="1.1"/>
      </g>
      <g>
        <path d="M51.766,54.547 C51.455,54.547 51.203,54.295 51.203,53.984 C51.203,53.674 51.455,53.422 51.766,53.422 C52.076,53.422 52.328,53.674 52.328,53.984 C52.328,54.295 52.076,54.547 51.766,54.547 z" fill="#FFFED0"/>
        <path d="M51.766,54.547 C51.455,54.547 51.203,54.295 51.203,53.984 C51.203,53.674 51.455,53.422 51.766,53.422 C52.076,53.422 52.328,53.674 52.328,53.984 C52.328,54.295 52.076,54.547 51.766,54.547 z" fill-opacity="0" stroke="#FFFED0" stroke-width="1.1"/>
      </g>
      <g>
        <path d="M53.109,51.562 C52.799,51.562 52.547,51.311 52.547,51 C52.547,50.689 52.799,50.438 53.109,50.438 C53.42,50.438 53.672,50.689 53.672,51 C53.672,51.311 53.42,51.562 53.109,51.562 z" fill="#FFFED0"/>
        <path d="M53.109,51.562 C52.799,51.562 52.547,51.311 52.547,51 C52.547,50.689 52.799,50.438 53.109,50.438 C53.42,50.438 53.672,50.689 53.672,51 C53.672,51.311 53.42,51.562 53.109,51.562 z" fill-opacity="0" stroke="#FFFED0" stroke-width="1.1"/>
      </g>
      <g>
        <path d="M51.766,48.578 C51.455,48.578 51.203,48.326 51.203,48.016 C51.203,47.705 51.455,47.453 51.766,47.453 C52.076,47.453 52.328,47.705 52.328,48.016 C52.328,48.326 52.076,48.578 51.766,48.578 z" fill="#FFFED0"/>
        <path d="M51.766,48.578 C51.455,48.578 51.203,48.326 51.203,48.016 C51.203,47.705 51.455,47.453 51.766,47.453 C52.076,47.453 52.328,47.705 52.328,48.016 C52.328,48.326 52.076,48.578 51.766,48.578 z" fill-opacity="0" stroke="#FFFED0" stroke-width="1.1"/>
      </g>
      <g>
        <path d="M55.328,48.578 C55.017,48.578 54.766,48.326 54.766,48.016 C54.766,47.705 55.017,47.453 55.328,47.453 C55.639,47.453 55.891,47.705 55.891,48.016 C55.891,48.326 55.639,48.578 55.328,48.578 z" fill="#FFFED0"/>
        <path d="M55.328,48.578 C55.017,48.578 54.766,48.326 54.766,48.016 C54.766,47.705 55.017,47.453 55.328,47.453 C55.639,47.453 55.891,47.705 55.891,48.016 C55.891,48.326 55.639,48.578 55.328,48.578 z" fill-opacity="0" stroke="#FFFED0" stroke-width="1.1"/>
      </g>
      <g>
        <path d="M56.141,51.562 C55.83,51.562 55.578,51.311 55.578,51 C55.578,50.689 55.83,50.438 56.141,50.438 C56.451,50.438 56.703,50.689 56.703,51 C56.703,51.311 56.451,51.562 56.141,51.562 z" fill="#FFFED0"/>
        <path d="M56.141,51.562 C55.83,51.562 55.578,51.311 55.578,51 C55.578,50.689 55.83,50.438 56.141,50.438 C56.451,50.438 56.703,50.689 56.703,51 C56.703,51.311 56.451,51.562 56.141,51.562 z" fill-opacity="0" stroke="#FFFED0" stroke-width="1.1"/>
      </g>
      <g>
        <path d="M59.266,51.562 C58.955,51.562 58.703,51.311 58.703,51 C58.703,50.689 58.955,50.438 59.266,50.438 C59.576,50.438 59.828,50.689 59.828,51 C59.828,51.311 59.576,51.562 59.266,51.562 z" fill="#FFFED0"/>
        <path d="M59.266,51.562 C58.955,51.562 58.703,51.311 58.703,51 C58.703,50.689 58.955,50.438 59.266,50.438 C59.576,50.438 59.828,50.689 59.828,51 C59.828,51.311 59.576,51.562 59.266,51.562 z" fill-opacity="0" stroke="#FFFED0" stroke-width="1.1"/>
      </g>
      <g>
        <path d="M58.891,48.578 C58.58,48.578 58.328,48.326 58.328,48.016 C58.328,47.705 58.58,47.453 58.891,47.453 C59.201,47.453 59.453,47.705 59.453,48.016 C59.453,48.326 59.201,48.578 58.891,48.578 z" fill="#FFFED0"/>
        <path d="M58.891,48.578 C58.58,48.578 58.328,48.326 58.328,48.016 C58.328,47.705 58.58,47.453 58.891,47.453 C59.201,47.453 59.453,47.705 59.453,48.016 C59.453,48.326 59.201,48.578 58.891,48.578 z" fill-opacity="0" stroke="#FFFED0" stroke-width="1.1"/>
      </g>
      <g>
        <path d="M55.328,54.547 C55.017,54.547 54.766,54.295 54.766,53.984 C54.766,53.674 55.017,53.422 55.328,53.422 C55.639,53.422 55.891,53.674 55.891,53.984 C55.891,54.295 55.639,54.547 55.328,54.547 z" fill="#FFFED0"/>
        <path d="M55.328,54.547 C55.017,54.547 54.766,54.295 54.766,53.984 C54.766,53.674 55.017,53.422 55.328,53.422 C55.639,53.422 55.891,53.674 55.891,53.984 C55.891,54.295 55.639,54.547 55.328,54.547 z" fill-opacity="0" stroke="#FFFED0" stroke-width="1.1"/>
      </g>
      <g>
        <path d="M53.609,57.531 C53.299,57.531 53.047,57.279 53.047,56.969 C53.047,56.658 53.299,56.406 53.609,56.406 C53.92,56.406 54.172,56.658 54.172,56.969 C54.172,57.279 53.92,57.531 53.609,57.531 z" fill="#FFFED0"/>
        <path d="M53.609,57.531 C53.299,57.531 53.047,57.279 53.047,56.969 C53.047,56.658 53.299,56.406 53.609,56.406 C53.92,56.406 54.172,56.658 54.172,56.969 C54.172,57.279 53.92,57.531 53.609,57.531 z" fill-opacity="0" stroke="#FFFED0" stroke-width="1.1"/>
      </g>
      <g>
        <path d="M42.797,45.594 C42.486,45.594 42.234,45.342 42.234,45.031 C42.234,44.721 42.486,44.469 42.797,44.469 C43.108,44.469 43.359,44.721 43.359,45.031 C43.359,45.342 43.108,45.594 42.797,45.594 z" fill="#FFFED0"/>
        <path d="M42.797,45.594 C42.486,45.594 42.234,45.342 42.234,45.031 C42.234,44.721 42.486,44.469 42.797,44.469 C43.108,44.469 43.359,44.721 43.359,45.031 C43.359,45.342 43.108,45.594 42.797,45.594 z" fill-opacity="0" stroke="#FFFED0" stroke-width="1.1"/>
      </g>
      <g>
        <path d="M46.391,45.594 C46.08,45.594 45.828,45.342 45.828,45.031 C45.828,44.721 46.08,44.469 46.391,44.469 C46.701,44.469 46.953,44.721 46.953,45.031 C46.953,45.342 46.701,45.594 46.391,45.594 z" fill="#FFFED0"/>
        <path d="M46.391,45.594 C46.08,45.594 45.828,45.342 45.828,45.031 C45.828,44.721 46.08,44.469 46.391,44.469 C46.701,44.469 46.953,44.721 46.953,45.031 C46.953,45.342 46.701,45.594 46.391,45.594 z" fill-opacity="0" stroke="#FFFED0" stroke-width="1.1"/>
      </g>
      <g>
        <path d="M50,45.594 C49.689,45.594 49.438,45.342 49.438,45.031 C49.438,44.721 49.689,44.469 50,44.469 C50.311,44.469 50.562,44.721 50.562,45.031 C50.562,45.342 50.311,45.594 50,45.594 z" fill="#FFFED0"/>
        <path d="M50,45.594 C49.689,45.594 49.438,45.342 49.438,45.031 C49.438,44.721 49.689,44.469 50,44.469 C50.311,44.469 50.562,44.721 50.562,45.031 C50.562,45.342 50.311,45.594 50,45.594 z" fill-opacity="0" stroke="#FFFED0" stroke-width="1.1"/>
      </g>
      <g>
        <path d="M53.609,45.594 C53.299,45.594 53.047,45.342 53.047,45.031 C53.047,44.721 53.299,44.469 53.609,44.469 C53.92,44.469 54.172,44.721 54.172,45.031 C54.172,45.342 53.92,45.594 53.609,45.594 z" fill="#FFFED0"/>
        <path d="M53.609,45.594 C53.299,45.594 53.047,45.342 53.047,45.031 C53.047,44.721 53.299,44.469 53.609,44.469 C53.92,44.469 54.172,44.721 54.172,45.031 C54.172,45.342 53.92,45.594 53.609,45.594 z" fill-opacity="0" stroke="#FFFED0" stroke-width="1.1"/>
      </g>
      <g>
        <path d="M53.891,42.578 C53.58,42.578 53.328,42.326 53.328,42.016 C53.328,41.705 53.58,41.453 53.891,41.453 C54.201,41.453 54.453,41.705 54.453,42.016 C54.453,42.326 54.201,42.578 53.891,42.578 z" fill="#FFFED0"/>
        <path d="M53.891,42.578 C53.58,42.578 53.328,42.326 53.328,42.016 C53.328,41.705 53.58,41.453 53.891,41.453 C54.201,41.453 54.453,41.705 54.453,42.016 C54.453,42.326 54.201,42.578 53.891,42.578 z" fill-opacity="0" stroke="#FFFED0" stroke-width="1.1"/>
      </g>
      <g>
        <path d="M50,42.578 C49.689,42.578 49.438,42.326 49.438,42.016 C49.438,41.705 49.689,41.453 50,41.453 C50.311,41.453 50.562,41.705 50.562,42.016 C50.562,42.326 50.311,42.578 50,42.578 z" fill="#FFFED0"/>
        <path d="M50,42.578 C49.689,42.578 49.438,42.326 49.438,42.016 C49.438,41.705 49.689,41.453 50,41.453 C50.311,41.453 50.562,41.705 50.562,42.016 C50.562,42.326 50.311,42.578 50,42.578 z" fill-opacity="0" stroke="#FFFED0" stroke-width="1.1"/>
      </g>
      <g>
        <path d="M57.203,45.594 C56.892,45.594 56.641,45.342 56.641,45.031 C56.641,44.721 56.892,44.469 57.203,44.469 C57.514,44.469 57.766,44.721 57.766,45.031 C57.766,45.342 57.514,45.594 57.203,45.594 z" fill="#FFFED0"/>
        <path d="M57.203,45.594 C56.892,45.594 56.641,45.342 56.641,45.031 C56.641,44.721 56.892,44.469 57.203,44.469 C57.514,44.469 57.766,44.721 57.766,45.031 C57.766,45.342 57.514,45.594 57.203,45.594 z" fill-opacity="0" stroke="#FFFED0" stroke-width="1.1"/>
      </g>
      <g>
        <path d="M46.094,42.578 C45.783,42.578 45.531,42.326 45.531,42.016 C45.531,41.705 45.783,41.453 46.094,41.453 C46.404,41.453 46.656,41.705 46.656,42.016 C46.656,42.326 46.404,42.578 46.094,42.578 z" fill="#FFFED0"/>
        <path d="M46.094,42.578 C45.783,42.578 45.531,42.326 45.531,42.016 C45.531,41.705 45.783,41.453 46.094,41.453 C46.404,41.453 46.656,41.705 46.656,42.016 C46.656,42.326 46.404,42.578 46.094,42.578 z" fill-opacity="0" stroke="#FFFED0" stroke-width="1.1"/>
      </g>
      <g>
        <path d="M58.891,53.422 C58.58,53.422 58.328,53.674 58.328,53.984 C58.328,54.295 58.58,54.547 58.891,54.547 C59.201,54.547 59.453,54.295 59.453,53.984 C59.453,53.674 59.201,53.422 58.891,53.422 z" fill="#FFFED0"/>
        <path d="M58.891,53.422 C58.58,53.422 58.328,53.674 58.328,53.984 C58.328,54.295 58.58,54.547 58.891,54.547 C59.201,54.547 59.453,54.295 59.453,53.984 C59.453,53.674 59.201,53.422 58.891,53.422 z" fill-opacity="0" stroke="#FFFED0" stroke-width="1.1"/>
      </g>
      <g>
        <path d="M53.891,59.422 C53.58,59.422 53.328,59.674 53.328,59.984 C53.328,60.295 53.58,60.547 53.891,60.547 C54.201,60.547 54.453,60.295 54.453,59.984 C54.453,59.674 54.201,59.422 53.891,59.422 z" fill="#FFFED0"/>
        <path d="M53.891,59.422 C53.58,59.422 53.328,59.674 53.328,59.984 C53.328,60.295 53.58,60.547 53.891,60.547 C54.201,60.547 54.453,60.295 54.453,59.984 C54.453,59.674 54.201,59.422 53.891,59.422 z" fill-opacity="0" stroke="#FFFED0" stroke-width="1.1"/>
      </g>
      <g>
        <path d="M50,59.422 C49.689,59.422 49.438,59.674 49.438,59.984 C49.438,60.295 49.689,60.547 50,60.547 C50.311,60.547 50.562,60.295 50.562,59.984 C50.562,59.674 50.311,59.422 50,59.422 z" fill="#FFFED0"/>
        <path d="M50,59.422 C49.689,59.422 49.438,59.674 49.438,59.984 C49.438,60.295 49.689,60.547 50,60.547 C50.311,60.547 50.562,60.295 50.562,59.984 C50.562,59.674 50.311,59.422 50,59.422 z" fill-opacity="0" stroke="#FFFED0" stroke-width="1.1"/>
      </g>
      <g>
        <path d="M57.203,56.406 C56.892,56.406 56.641,56.658 56.641,56.969 C56.641,57.279 56.892,57.531 57.203,57.531 C57.514,57.531 57.766,57.279 57.766,56.969 C57.766,56.658 57.514,56.406 57.203,56.406 z" fill="#FFFED0"/>
        <path d="M57.203,56.406 C56.892,56.406 56.641,56.658 56.641,56.969 C56.641,57.279 56.892,57.531 57.203,57.531 C57.514,57.531 57.766,57.279 57.766,56.969 C57.766,56.658 57.514,56.406 57.203,56.406 z" fill-opacity="0" stroke="#FFFED0" stroke-width="1.1"/>
      </g>
      <g>
        <path d="M46.094,59.422 C45.783,59.422 45.531,59.674 45.531,59.984 C45.531,60.295 45.783,60.547 46.094,60.547 C46.404,60.547 46.656,60.295 46.656,59.984 C46.656,59.674 46.404,59.422 46.094,59.422 z" fill="#FFFED0"/>
        <path d="M46.094,59.422 C45.783,59.422 45.531,59.674 45.531,59.984 C45.531,60.295 45.783,60.547 46.094,60.547 C46.404,60.547 46.656,60.295 46.656,59.984 C46.656,59.674 46.404,59.422 46.094,59.422 z" fill-opacity="0" stroke="#FFFED0" stroke-width="1.1"/>
      </g>
    </g>
  </g>
</svg>
