<?xml version="1.0" encoding="UTF-8"?>
<!DOCTYPE svg PUBLIC "-//W3C//DTD SVG 1.1//EN" "http://www.w3.org/Graphics/SVG/1.1/DTD/svg11.dtd">
<svg version="1.1" xmlns="http://www.w3.org/2000/svg" xmlns:xlink="http://www.w3.org/1999/xlink" x="0" y="0" width="100" height="100" viewBox="0, 0, 100, 100">
  <g id="Layer_1">
    <path d="M28.322,32.827 C29.033,31.71 37.21,25.82 39.981,24.704 C42.751,23.587 54.253,19.024 62.65,25.293 C67.502,28.915 70.826,41.708 60.966,47.982 C56.461,50.848 52.676,52.368 49.392,54.284 C42.78,58.141 40.856,61.766 43.918,64.229 C46.818,66.562 52.498,66.672 56.84,66.407 C60.169,66.204 63.559,65.188 64.133,63.767 C64.576,62.67 62.036,61.533 60.169,61.228 C53.466,60.135 47.3,62.003 49.118,61.127 C52.151,59.665 60.359,58.979 66.707,60.517 C73.583,62.183 77.277,68.679 71.563,75.177 C67.191,80.148 55.757,82.534 47.583,81.823 C39.827,81.149 30.259,78.416 27.468,70.451 C25.97,66.179 26.308,62.22 28.646,57.251 C32.708,48.62 44.071,45.62 46.09,42.067 C49.482,36.097 43.945,35.449 42.591,36.803 C41.377,38.017 33.703,39.427 32.18,39.427 C31.181,39.427 30.4,39.078 30.211,38.665 C30.188,38.616 29.591,38.649 28.52,38.972 C27.885,39.164 26.848,39.533 26.118,40.284 C26.078,40.325 26.315,39.892 26.679,39.586 C26.923,39.38 27.398,39.066 27.366,39.067 C25.97,39.152 25.421,38.676 25.695,38.782 C26.351,39.036 27.52,38.87 28.456,38.602 C29.499,38.303 30.382,38.06 30.454,38.006 C31.266,37.396 38.882,35.366 38.374,34.147 C38.017,33.291 33.133,33.936 30.396,34.772 C28.456,35.365 30.692,37.112 30.396,36.973 C29.133,36.38 28.677,35.181 28.557,35.211 C27.944,35.366 27.611,33.944 28.322,32.827 z" fill-opacity="0" stroke="#FFFED0" stroke-width="1.5"/>
    <path d="M28.322,32.827 C29.033,31.71 37.21,25.82 39.981,24.704 C42.751,23.587 54.253,19.024 62.65,25.293 C67.502,28.915 70.826,41.708 60.966,47.982 C56.461,50.848 52.676,52.368 49.392,54.284 C42.78,58.141 40.856,61.766 43.918,64.229 C46.818,66.562 52.498,66.672 56.84,66.407 C60.169,66.204 63.559,65.188 64.133,63.767 C64.576,62.67 62.036,61.533 60.169,61.228 C53.466,60.135 47.3,62.003 49.118,61.127 C52.151,59.665 60.359,58.979 66.707,60.517 C73.583,62.183 77.277,68.679 71.563,75.177 C67.191,80.148 55.757,82.534 47.583,81.823 C39.827,81.149 30.259,78.416 27.468,70.451 C25.97,66.179 26.308,62.22 28.646,57.251 C32.708,48.62 44.071,45.62 46.09,42.067 C49.482,36.097 43.945,35.449 42.591,36.803 C41.377,38.017 33.703,39.427 32.18,39.427 C31.181,39.427 30.4,39.078 30.211,38.665 C30.188,38.616 29.591,38.649 28.52,38.972 C27.885,39.164 26.848,39.533 26.118,40.284 C26.078,40.325 26.315,39.892 26.679,39.586 C26.923,39.38 27.398,39.066 27.366,39.067 C25.97,39.152 25.421,38.676 25.695,38.782 C26.351,39.036 27.52,38.87 28.456,38.602 C29.499,38.303 30.382,38.06 30.454,38.006 C31.266,37.396 38.882,35.366 38.374,34.147 C38.017,33.291 33.133,33.936 30.396,34.772 C28.456,35.365 30.692,37.112 30.396,36.973 C29.133,36.38 28.677,35.181 28.557,35.211 C27.944,35.366 27.611,33.944 28.322,32.827 z" fill="#000000"/>
    <path d="M35.92,30.601 C36.137,30.594 36.252,30.689 36.214,30.808 C36.135,31.055 35.851,31.348 35.523,31.48 C35.37,31.563 33.98,31.904 34.068,31.779 C34.127,31.693 34.563,31.424 34.795,31.256 C34.92,31.166 35.257,30.935 35.43,30.846 z" fill-opacity="0" stroke="#FFFED0" stroke-width="0.75" stroke-linecap="round" stroke-linejoin="round"/>
    <path d="M45.163,26.893 C53.501,24.015 65.058,34.792 55.3,48.335" fill-opacity="0" stroke="#FFFED0" stroke-width="1" stroke-linecap="round" stroke-linejoin="round"/>
  </g>
</svg>
