<?xml version="1.0" encoding="UTF-8"?>
<!DOCTYPE svg PUBLIC "-//W3C//DTD SVG 1.1//EN" "http://www.w3.org/Graphics/SVG/1.1/DTD/svg11.dtd">
<svg version="1.1" xmlns="http://www.w3.org/2000/svg" xmlns:xlink="http://www.w3.org/1999/xlink" x="0" y="0" width="100" height="100" viewBox="0, 0, 100, 100">
  <g id="Layer_1">
    <path d="M41.05,80.143 C35.381,76.51 32.148,72.148 29.49,66.816 C24.929,57.668 27.184,46.88 31.645,40.306 C36.73,32.812 43.465,26.702 57.139,26.702 C62.485,26.702 70.208,29.705 74.289,34.083 C75.971,35.888 66.593,36.801 53.284,53.734 C40.843,69.562 43.025,81.824 41.05,80.143" fill-opacity="0" stroke="#FFFED0" stroke-width="1.5"/>
    <path d="M41.05,80.143 C35.381,76.51 32.148,72.148 29.49,66.816 C24.929,57.668 27.184,46.88 31.645,40.306 C36.73,32.812 43.465,26.702 57.139,26.702 C62.485,26.702 70.208,29.705 74.289,34.083 C75.971,35.888 66.593,36.801 53.284,53.734 C40.843,69.562 43.025,81.824 41.05,80.143" fill="#000000"/>
    <path d="M30.108,50.178 L51.25,51.875 L42.743,32.467" fill-opacity="0" stroke="#FFFED0" stroke-width="1" stroke-linecap="round" stroke-linejoin="round"/>
    <path d="M29.846,59.316 L45.835,60.215" fill-opacity="0" stroke="#FFFED0" stroke-width="1" stroke-linecap="round" stroke-linejoin="round"/>
    <path d="M51.749,29.276 L57.647,44.059" fill-opacity="0" stroke="#FFFED0" stroke-width="1" stroke-linecap="round" stroke-linejoin="round"/>
    <path d="M33.411,69.159 L41.966,68.417" fill-opacity="0" stroke="#FFFED0" stroke-width="1" stroke-linecap="round" stroke-linejoin="round"/>
    <path d="M61.983,29.729 L64.434,38.771" fill-opacity="0" stroke="#FFFED0" stroke-width="1" stroke-linecap="round" stroke-linejoin="round"/>
  </g>
</svg>
