<?xml version="1.0" encoding="UTF-8"?>
<!DOCTYPE svg PUBLIC "-//W3C//DTD SVG 1.1//EN" "http://www.w3.org/Graphics/SVG/1.1/DTD/svg11.dtd">
<svg version="1.1" xmlns="http://www.w3.org/2000/svg" xmlns:xlink="http://www.w3.org/1999/xlink" x="0" y="0" width="100" height="100" viewBox="0, 0, 100, 100">
  <g id="Layer_1">
    <g>
      <path d="M51.53,20.718 L51.644,24.344 L52.076,22.354 L53.584,22.554 L53.487,24.499 L54.504,21.109 L56.119,21.542 L55.274,25.117 L56.222,23.263 L57.628,23.847 L57.016,25.724 L58.89,22.69 L60.337,23.526 L58.593,26.764 L59.991,25.215 L61.198,26.142 L60.139,27.772 L62.717,25.351 L63.899,26.533 L61.417,29.176 L63.128,28.076 L64.053,29.284 L62.631,30.572 L65.725,28.913 L66.56,30.361 L63.482,32.269 L65.416,31.651 L65.997,33.057 L64.29,33.934 L67.708,33.132 L68.141,34.746 L64.672,35.793 L66.702,35.696 L66.899,37.206 L65.026,37.61 L68.532,37.72 L68.532,39.392 L64.913,39.505 L66.896,39.937 L66.696,41.445 L64.783,41.351 L68.141,42.365 L67.708,43.979 L64.183,43.153 L65.987,44.083 L65.403,45.489 L63.576,44.901 L66.56,46.75 L65.725,48.198 L62.532,46.486 L64.035,47.853 L63.107,49.059 L61.496,48.019 L63.899,50.577 L62.717,51.76 L60.075,49.279 L61.174,50.989 L59.966,51.914 L58.677,50.491 L60.337,53.585 L58.89,54.422 L56.98,51.341 L57.599,53.278 L56.192,53.859 L55.318,52.156 L56.119,55.569 L54.504,56.001 L53.457,52.535 L53.554,54.562 L52.044,54.76 L51.635,52.857 L51.53,56.394 L49.859,56.394 L49.75,52.717 L49.313,54.757 L47.804,54.557 L47.906,52.617 L46.885,56.001 L45.27,55.569 L46.097,52.041 L45.167,53.847 L43.761,53.264 L44.348,51.438 L42.499,54.422 L41.052,53.585 L42.764,50.392 L41.397,51.896 L40.191,50.969 L41.248,49.332 L38.672,51.76 L37.49,50.577 L40.011,47.902 L38.261,49.035 L37.336,47.826 L38.804,46.506 L35.664,48.198 L34.828,46.75 L37.958,44.818 L35.973,45.46 L35.391,44.054 L37.15,43.159 L33.681,43.979 L33.248,42.365 L36.772,41.307 L34.687,41.415 L34.49,39.906 L36.42,39.497 L32.857,39.392 L32.857,37.72 L36.535,37.611 L34.493,37.174 L34.693,35.666 L36.664,35.77 L33.248,34.746 L33.681,33.132 L37.263,33.978 L35.402,33.028 L35.986,31.623 L37.862,32.233 L34.828,30.361 L35.664,28.913 L38.905,30.657 L37.354,29.259 L38.281,28.052 L39.937,29.128 L37.49,26.533 L38.672,25.351 L41.351,27.875 L40.215,26.123 L41.423,25.197 L42.742,26.664 L41.052,23.526 L42.499,22.69 L44.434,25.823 L43.79,23.833 L45.196,23.253 L46.091,25.012 L45.27,21.542 L46.885,21.109 L47.942,24.634 L47.835,22.548 L49.344,22.351 L49.748,24.253 L49.859,20.718 L51.53,20.718 z" fill="#FFFED0"/>
      <path d="M51.53,20.718 L51.644,24.344 L52.076,22.354 L53.584,22.554 L53.487,24.499 L54.504,21.109 L56.119,21.542 L55.274,25.117 L56.222,23.263 L57.628,23.847 L57.016,25.724 L58.89,22.69 L60.337,23.526 L58.593,26.764 L59.991,25.215 L61.198,26.142 L60.139,27.772 L62.717,25.351 L63.899,26.533 L61.417,29.176 L63.128,28.076 L64.053,29.284 L62.631,30.572 L65.725,28.913 L66.56,30.361 L63.482,32.269 L65.416,31.651 L65.997,33.057 L64.29,33.934 L67.708,33.132 L68.141,34.746 L64.672,35.793 L66.702,35.696 L66.899,37.206 L65.026,37.61 L68.532,37.72 L68.532,39.392 L64.913,39.505 L66.896,39.937 L66.696,41.445 L64.783,41.351 L68.141,42.365 L67.708,43.979 L64.183,43.153 L65.987,44.083 L65.403,45.489 L63.576,44.901 L66.56,46.75 L65.725,48.198 L62.532,46.486 L64.035,47.853 L63.107,49.059 L61.496,48.019 L63.899,50.577 L62.717,51.76 L60.075,49.279 L61.174,50.989 L59.966,51.914 L58.677,50.491 L60.337,53.585 L58.89,54.422 L56.98,51.341 L57.599,53.278 L56.192,53.859 L55.318,52.156 L56.119,55.569 L54.504,56.001 L53.457,52.535 L53.554,54.562 L52.044,54.76 L51.635,52.857 L51.53,56.394 L49.859,56.394 L49.75,52.717 L49.313,54.757 L47.804,54.557 L47.906,52.617 L46.885,56.001 L45.27,55.569 L46.097,52.041 L45.167,53.847 L43.761,53.264 L44.348,51.438 L42.499,54.422 L41.052,53.585 L42.764,50.392 L41.397,51.896 L40.191,50.969 L41.248,49.332 L38.672,51.76 L37.49,50.577 L40.011,47.902 L38.261,49.035 L37.336,47.826 L38.804,46.506 L35.664,48.198 L34.828,46.75 L37.958,44.818 L35.973,45.46 L35.391,44.054 L37.15,43.159 L33.681,43.979 L33.248,42.365 L36.772,41.307 L34.687,41.415 L34.49,39.906 L36.42,39.497 L32.857,39.392 L32.857,37.72 L36.535,37.611 L34.493,37.174 L34.693,35.666 L36.664,35.77 L33.248,34.746 L33.681,33.132 L37.263,33.978 L35.402,33.028 L35.986,31.623 L37.862,32.233 L34.828,30.361 L35.664,28.913 L38.905,30.657 L37.354,29.259 L38.281,28.052 L39.937,29.128 L37.49,26.533 L38.672,25.351 L41.351,27.875 L40.215,26.123 L41.423,25.197 L42.742,26.664 L41.052,23.526 L42.499,22.69 L44.434,25.823 L43.79,23.833 L45.196,23.253 L46.091,25.012 L45.27,21.542 L46.885,21.109 L47.942,24.634 L47.835,22.548 L49.344,22.351 L49.748,24.253 L49.859,20.718 L51.53,20.718 z" fill-opacity="0" stroke="#FFFED0" stroke-width="1" stroke-linecap="round" stroke-linejoin="round"/>
    </g>
    <g>
      <path d="M76.661,55.88 C77.281,56.593 77.104,58.51 76.832,59.41 C76.524,60.43 75.39,60.564 75.413,61.663 C75.423,62.127 76.629,61.854 76.616,61.907 C76.301,63.208 74.781,65.919 73.474,66.697 C72.298,67.398 69.514,68.196 69.603,69.353 C69.68,70.356 71.275,70.831 72.305,70.81 C72.404,70.808 67.949,74.802 66.576,75.468 C64.218,76.612 62.115,76.187 61.303,77.6 C60.812,78.453 62.117,78.97 63.374,79.395 C63.472,79.428 61.023,80.863 59.221,80.9 C57.032,80.946 53.146,81.317 56.262,83.375 C56.55,83.566 52.298,84.331 50.714,82.996 C49.577,81.676 49.954,77.873 50.018,77.938 C52.748,80.746 52.458,76.675 52.228,74.319 C52.064,72.648 53.51,69.302 53.545,69.592 C53.694,70.807 54.188,72.059 55.015,71.799 C56.383,71.367 56.8,68.555 57.231,67.527 C58.8,63.785 61.881,60.85 61.929,61.048 C62.311,62.612 63.174,63.629 63.81,63.229 C64.542,62.769 65.17,61.237 66.014,59.353 C66.845,57.501 69.369,56.483 70.777,56.067 C70.9,56.031 69.667,56.991 70.506,57.102 C71.834,57.279 71.818,56.204 72.921,55.778 C73.745,55.459 75.783,55.205 76.661,55.88 L76.661,55.88 z" fill="#000000"/>
      <path d="M76.661,55.88 C77.281,56.593 77.104,58.51 76.832,59.41 C76.524,60.43 75.39,60.564 75.413,61.663 C75.423,62.127 76.629,61.854 76.616,61.907 C76.301,63.208 74.781,65.919 73.474,66.697 C72.298,67.398 69.514,68.196 69.603,69.353 C69.68,70.356 71.275,70.831 72.305,70.81 C72.404,70.808 67.949,74.802 66.576,75.468 C64.218,76.612 62.115,76.187 61.303,77.6 C60.812,78.453 62.117,78.97 63.374,79.395 C63.472,79.428 61.023,80.863 59.221,80.9 C57.032,80.946 53.146,81.317 56.262,83.375 C56.55,83.566 52.298,84.331 50.714,82.996 C49.577,81.676 49.954,77.873 50.018,77.938 C52.748,80.746 52.458,76.675 52.228,74.319 C52.064,72.648 53.51,69.302 53.545,69.592 C53.694,70.807 54.188,72.059 55.015,71.799 C56.383,71.367 56.8,68.555 57.231,67.527 C58.8,63.785 61.881,60.85 61.929,61.048 C62.311,62.612 63.174,63.629 63.81,63.229 C64.542,62.769 65.17,61.237 66.014,59.353 C66.845,57.501 69.369,56.483 70.777,56.067 C70.9,56.031 69.667,56.991 70.506,57.102 C71.834,57.279 71.818,56.204 72.921,55.778 C73.745,55.459 75.783,55.205 76.661,55.88 L76.661,55.88 z" fill-opacity="0" stroke="#FFFED0" stroke-width="1" stroke-linecap="round" stroke-linejoin="round"/>
    </g>
    <g>
      <path d="M23.339,55.88 C22.719,56.593 22.896,58.51 23.168,59.41 C23.476,60.43 24.61,60.564 24.587,61.663 C24.577,62.127 23.371,61.854 23.384,61.907 C23.699,63.208 25.219,65.919 26.526,66.697 C27.702,67.398 30.486,68.196 30.397,69.353 C30.32,70.356 28.725,70.831 27.695,70.81 C27.596,70.808 32.051,74.802 33.424,75.468 C35.782,76.612 37.885,76.187 38.697,77.6 C39.188,78.453 37.883,78.97 36.626,79.395 C36.528,79.428 38.977,80.863 40.779,80.9 C42.968,80.946 46.854,81.317 43.738,83.375 C43.45,83.566 47.702,84.331 49.286,82.996 C50.423,81.676 50.046,77.873 49.982,77.938 C47.252,80.746 47.542,76.675 47.772,74.319 C47.936,72.648 46.49,69.302 46.455,69.592 C46.306,70.807 45.812,72.059 44.985,71.799 C43.617,71.367 43.2,68.555 42.769,67.527 C41.2,63.785 38.119,60.85 38.071,61.048 C37.689,62.612 36.826,63.629 36.19,63.229 C35.458,62.769 34.83,61.237 33.986,59.353 C33.155,57.501 30.631,56.483 29.223,56.067 C29.1,56.031 30.333,56.991 29.494,57.102 C28.166,57.279 28.182,56.204 27.079,55.778 C26.255,55.459 24.217,55.205 23.339,55.88 L23.339,55.88 z" fill="#000000"/>
      <path d="M23.339,55.88 C22.719,56.593 22.896,58.51 23.168,59.41 C23.476,60.43 24.61,60.564 24.587,61.663 C24.577,62.127 23.371,61.854 23.384,61.907 C23.699,63.208 25.219,65.919 26.526,66.697 C27.702,67.398 30.486,68.196 30.397,69.353 C30.32,70.356 28.725,70.831 27.695,70.81 C27.596,70.808 32.051,74.802 33.424,75.468 C35.782,76.612 37.885,76.187 38.697,77.6 C39.188,78.453 37.883,78.97 36.626,79.395 C36.528,79.428 38.977,80.863 40.779,80.9 C42.968,80.946 46.854,81.317 43.738,83.375 C43.45,83.566 47.702,84.331 49.286,82.996 C50.423,81.676 50.046,77.873 49.982,77.938 C47.252,80.746 47.542,76.675 47.772,74.319 C47.936,72.648 46.49,69.302 46.455,69.592 C46.306,70.807 45.812,72.059 44.985,71.799 C43.617,71.367 43.2,68.555 42.769,67.527 C41.2,63.785 38.119,60.85 38.071,61.048 C37.689,62.612 36.826,63.629 36.19,63.229 C35.458,62.769 34.83,61.237 33.986,59.353 C33.155,57.501 30.631,56.483 29.223,56.067 C29.1,56.031 30.333,56.991 29.494,57.102 C28.166,57.279 28.182,56.204 27.079,55.778 C26.255,55.459 24.217,55.205 23.339,55.88 L23.339,55.88 z" fill-opacity="0" stroke="#FFFED0" stroke-width="1" stroke-linecap="round" stroke-linejoin="round"/>
    </g>
    <path d="M74.259,58.418 L53.285,80.488" fill-opacity="0" stroke="#FFFED0" stroke-width="1" stroke-linecap="round" stroke-linejoin="round"/>
    <path d="M25.894,58.429 L46.816,80.444" fill-opacity="0" stroke="#FFFED0" stroke-width="1" stroke-linecap="round" stroke-linejoin="round"/>
    <path d="M50.054,35.172 C49.819,35.176 49.621,35.064 49.468,34.926 C49.33,34.802 49.099,34.966 49.099,35.222 L49.099,35.222 C49.099,35.244 49.092,35.811 48.741,36.002 C48.713,36.017 48.685,36.028 48.656,36.035 C48.5,36.072 48.376,36.347 48.506,36.495 L48.506,36.495 C48.829,36.859 49.298,36.863 49.457,40.104 C49.543,41.867 49.456,47.881 49.432,54.848 C49.365,65.499 49.124,82.013 49.101,83.496 C49.099,83.576 49.12,83.642 49.157,83.695 L49.69,83.698 C49.953,83.703 50.156,83.703 50.418,83.698 L50.951,83.695 C50.988,83.642 51.009,83.576 51.008,83.496 C50.984,82.013 50.743,65.498 50.677,54.847 C50.652,47.881 50.565,41.867 50.651,40.104 C50.81,36.863 51.283,36.866 51.602,36.495 L51.602,36.495 C51.732,36.344 51.609,36.072 51.452,36.035 C51.424,36.028 51.395,36.017 51.368,36.002 C51.103,35.858 51.034,35.577 51.016,35.047 C51.008,34.813 50.851,34.71 50.739,34.854 C50.597,35.034 50.412,35.166 50.054,35.172 z" fill-opacity="0" stroke="#FFFED0" stroke-width="1"/>
    <g>
      <path d="M50,35.237 C49.765,35.241 49.567,35.129 49.414,34.991 C49.276,34.867 49.045,35.031 49.045,35.287 L49.045,35.287 C49.045,35.309 49.038,35.876 48.687,36.067 C48.659,36.082 48.631,36.093 48.602,36.1 C48.446,36.137 48.322,36.412 48.452,36.56 L48.452,36.56 C48.775,36.924 49.244,36.928 49.403,40.169 C49.489,41.932 49.402,47.946 49.378,54.913 C49.311,65.564 49.07,82.078 49.047,83.561 C49.045,83.641 49.066,83.707 49.103,83.76 L49.636,83.763 C49.899,83.768 50.102,83.768 50.364,83.763 L50.897,83.76 C50.934,83.707 50.955,83.641 50.954,83.561 C50.93,82.078 50.689,65.563 50.623,54.912 C50.598,47.946 50.511,41.932 50.597,40.169 C50.756,36.928 51.229,36.931 51.548,36.56 L51.548,36.56 C51.678,36.409 51.555,36.137 51.398,36.1 C51.37,36.093 51.341,36.082 51.314,36.067 C51.049,35.923 50.98,35.642 50.962,35.112 C50.954,34.878 50.797,34.775 50.685,34.919 C50.543,35.099 50.358,35.231 50,35.237 z" fill="#000000"/>
      <path d="M50,35.237 C49.765,35.241 49.567,35.129 49.414,34.991 C49.276,34.867 49.045,35.031 49.045,35.287 L49.045,35.287 C49.045,35.309 49.038,35.876 48.687,36.067 C48.659,36.082 48.631,36.093 48.602,36.1 C48.446,36.137 48.322,36.412 48.452,36.56 L48.452,36.56 C48.775,36.924 49.244,36.928 49.403,40.169 C49.489,41.932 49.402,47.946 49.378,54.913 C49.311,65.564 49.07,82.078 49.047,83.561 C49.045,83.641 49.066,83.707 49.103,83.76 L49.636,83.763 C49.899,83.768 50.102,83.768 50.364,83.763 L50.897,83.76 C50.934,83.707 50.955,83.641 50.954,83.561 C50.93,82.078 50.689,65.563 50.623,54.912 C50.598,47.946 50.511,41.932 50.597,40.169 C50.756,36.928 51.229,36.931 51.548,36.56 L51.548,36.56 C51.678,36.409 51.555,36.137 51.398,36.1 C51.37,36.093 51.341,36.082 51.314,36.067 C51.049,35.923 50.98,35.642 50.962,35.112 C50.954,34.878 50.797,34.775 50.685,34.919 C50.543,35.099 50.358,35.231 50,35.237 z" fill-opacity="0" stroke="#FFFED0" stroke-width="0.5"/>
    </g>
    <g>
      <g>
        <path d="M51.53,20.734 L51.823,30.064 L54.504,21.125 L56.119,21.558 L53.96,30.69 L58.89,22.706 L60.337,23.542 L55.913,31.758 L62.717,25.367 L63.899,26.549 L57.544,33.317 L65.725,28.929 L66.56,30.377 L58.67,35.269 L67.708,33.148 L68.141,34.762 L59.254,37.445 L68.532,37.736 L68.532,39.408 L59.253,39.699 L68.141,42.381 L67.708,43.996 L58.67,41.876 L66.56,46.767 L65.725,48.214 L57.543,43.828 L63.899,50.594 L62.717,51.776 L55.949,45.421 L60.337,53.602 L58.89,54.438 L53.998,46.548 L56.119,55.585 L54.504,56.018 L51.806,47.082 L51.53,56.41 L49.859,56.41 L49.582,47.081 L46.885,56.018 L45.27,55.585 L47.39,46.547 L42.499,54.438 L41.052,53.602 L45.463,45.375 L38.672,51.776 L37.49,50.594 L43.926,43.765 L35.664,48.214 L34.828,46.767 L42.813,41.836 L33.681,43.996 L33.248,42.381 L42.236,39.685 L32.857,39.408 L32.857,37.736 L42.237,37.458 L33.248,34.762 L33.681,33.148 L42.813,35.306 L34.828,30.377 L35.664,28.929 L43.927,33.378 L37.49,26.549 L38.672,25.367 L45.501,31.803 L41.052,23.542 L42.499,22.706 L47.43,30.69 L45.27,21.558 L46.885,21.125 L49.566,30.064 L49.859,20.734 L51.53,20.734 z" fill="#000000"/>
        <path d="M51.53,20.734 L51.823,30.064 L54.504,21.125 L56.119,21.558 L53.96,30.69 L58.89,22.706 L60.337,23.542 L55.913,31.758 L62.717,25.367 L63.899,26.549 L57.544,33.317 L65.725,28.929 L66.56,30.377 L58.67,35.269 L67.708,33.148 L68.141,34.762 L59.254,37.445 L68.532,37.736 L68.532,39.408 L59.253,39.699 L68.141,42.381 L67.708,43.996 L58.67,41.876 L66.56,46.767 L65.725,48.214 L57.543,43.828 L63.899,50.594 L62.717,51.776 L55.949,45.421 L60.337,53.602 L58.89,54.438 L53.998,46.548 L56.119,55.585 L54.504,56.018 L51.806,47.082 L51.53,56.41 L49.859,56.41 L49.582,47.081 L46.885,56.018 L45.27,55.585 L47.39,46.547 L42.499,54.438 L41.052,53.602 L45.463,45.375 L38.672,51.776 L37.49,50.594 L43.926,43.765 L35.664,48.214 L34.828,46.767 L42.813,41.836 L33.681,43.996 L33.248,42.381 L42.236,39.685 L32.857,39.408 L32.857,37.736 L42.237,37.458 L33.248,34.762 L33.681,33.148 L42.813,35.306 L34.828,30.377 L35.664,28.929 L43.927,33.378 L37.49,26.549 L38.672,25.367 L45.501,31.803 L41.052,23.542 L42.499,22.706 L47.43,30.69 L45.27,21.558 L46.885,21.125 L49.566,30.064 L49.859,20.734 L51.53,20.734 z" fill-opacity="0" stroke="#FFFED0" stroke-width="0.5"/>
      </g>
      <g>
        <path d="M53.584,22.57 L53.26,29.071 L56.222,23.279 L57.628,23.863 L55.594,30.105 L59.991,25.231 L61.198,26.159 L57.654,31.613 L63.128,28.092 L64.053,29.3 L59.273,33.631 L65.416,31.667 L65.997,33.074 L60.259,36.019 L66.702,35.713 L66.899,37.222 L60.594,38.582 L66.896,39.953 L66.696,41.462 L60.254,41.144 L65.987,44.099 L65.403,45.505 L59.263,43.53 L64.035,47.869 L63.107,49.075 L57.687,45.579 L61.174,51.005 L59.966,51.93 L55.635,47.15 L57.599,53.294 L56.192,53.875 L53.247,48.137 L53.554,54.579 L52.044,54.776 L50.675,48.413 L49.313,54.774 L47.804,54.574 L48.147,48.078 L45.167,53.864 L43.761,53.28 L45.736,47.14 L41.397,51.912 L40.191,50.985 L43.721,45.517 L38.261,49.052 L37.336,47.843 L42.217,43.455 L35.973,45.477 L35.391,44.07 L41.243,41.094 L34.687,41.431 L34.49,39.922 L40.912,38.562 L34.493,37.191 L34.693,35.682 L41.248,36.03 L35.402,33.044 L35.986,31.639 L42.227,33.671 L37.354,29.275 L38.281,28.068 L43.784,31.647 L40.215,26.139 L41.423,25.213 L45.812,30.095 L43.79,23.85 L45.196,23.269 L48.172,29.12 L47.835,22.564 L49.344,22.367 L50.695,28.73 L52.076,22.37 L53.584,22.57 z" fill="#000000"/>
        <path d="M53.584,22.57 L53.26,29.071 L56.222,23.279 L57.628,23.863 L55.594,30.105 L59.991,25.231 L61.198,26.159 L57.654,31.613 L63.128,28.092 L64.053,29.3 L59.273,33.631 L65.416,31.667 L65.997,33.074 L60.259,36.019 L66.702,35.713 L66.899,37.222 L60.594,38.582 L66.896,39.953 L66.696,41.462 L60.254,41.144 L65.987,44.099 L65.403,45.505 L59.263,43.53 L64.035,47.869 L63.107,49.075 L57.687,45.579 L61.174,51.005 L59.966,51.93 L55.635,47.15 L57.599,53.294 L56.192,53.875 L53.247,48.137 L53.554,54.579 L52.044,54.776 L50.675,48.413 L49.313,54.774 L47.804,54.574 L48.147,48.078 L45.167,53.864 L43.761,53.28 L45.736,47.14 L41.397,51.912 L40.191,50.985 L43.721,45.517 L38.261,49.052 L37.336,47.843 L42.217,43.455 L35.973,45.477 L35.391,44.07 L41.243,41.094 L34.687,41.431 L34.49,39.922 L40.912,38.562 L34.493,37.191 L34.693,35.682 L41.248,36.03 L35.402,33.044 L35.986,31.639 L42.227,33.671 L37.354,29.275 L38.281,28.068 L43.784,31.647 L40.215,26.139 L41.423,25.213 L45.812,30.095 L43.79,23.85 L45.196,23.269 L48.172,29.12 L47.835,22.564 L49.344,22.367 L50.695,28.73 L52.076,22.37 L53.584,22.57 z" fill-opacity="0" stroke="#FFFED0" stroke-width="0.5"/>
      </g>
      <g>
        <path d="M54.534,26.673 L53.622,31.594 L56.471,27.483 L57.482,28.072 L55.295,32.62 L59.144,29.356 L59.969,30.187 L56.71,33.981 L61.241,31.857 L61.823,32.873 L57.737,35.684 L62.62,34.816 L62.919,35.947 L58.245,37.605 L63.186,38.03 L63.182,39.201 L58.238,39.592 L62.9,41.282 L62.593,42.411 L57.717,41.51 L61.783,44.348 L61.194,45.36 L56.717,43.227 L59.91,47.021 L59.08,47.846 L55.307,44.627 L57.409,49.119 L56.393,49.7 L53.582,45.614 L54.451,50.497 L53.319,50.796 L51.661,46.122 L51.236,51.063 L50.066,51.059 L49.673,46.07 L47.985,50.778 L46.855,50.471 L47.781,45.555 L44.918,49.66 L43.906,49.072 L46.039,44.594 L42.245,47.787 L41.42,46.957 L44.67,43.151 L40.148,45.286 L39.566,44.271 L43.735,41.426 L38.769,42.328 L38.47,41.196 L43.233,39.527 L38.203,39.113 L38.207,37.943 L43.24,37.564 L38.489,35.862 L38.796,34.733 L43.755,35.669 L39.606,32.795 L40.195,31.784 L44.743,33.971 L41.479,30.122 L42.309,29.298 L46.137,32.588 L43.98,28.025 L44.995,27.443 L47.84,31.612 L46.938,26.646 L48.07,26.348 L49.739,31.111 L50.153,26.081 L51.323,26.085 L51.701,31.072 L53.404,26.366 L54.534,26.673 z" fill="#000000"/>
        <path d="M54.534,26.673 L53.622,31.594 L56.471,27.483 L57.482,28.072 L55.295,32.62 L59.144,29.356 L59.969,30.187 L56.71,33.981 L61.241,31.857 L61.823,32.873 L57.737,35.684 L62.62,34.816 L62.919,35.947 L58.245,37.605 L63.186,38.03 L63.182,39.201 L58.238,39.592 L62.9,41.282 L62.593,42.411 L57.717,41.51 L61.783,44.348 L61.194,45.36 L56.717,43.227 L59.91,47.021 L59.08,47.846 L55.307,44.627 L57.409,49.119 L56.393,49.7 L53.582,45.614 L54.451,50.497 L53.319,50.796 L51.661,46.122 L51.236,51.063 L50.066,51.059 L49.673,46.07 L47.985,50.778 L46.855,50.471 L47.781,45.555 L44.918,49.66 L43.906,49.072 L46.039,44.594 L42.245,47.787 L41.42,46.957 L44.67,43.151 L40.148,45.286 L39.566,44.271 L43.735,41.426 L38.769,42.328 L38.47,41.196 L43.233,39.527 L38.203,39.113 L38.207,37.943 L43.24,37.564 L38.489,35.862 L38.796,34.733 L43.755,35.669 L39.606,32.795 L40.195,31.784 L44.743,33.971 L41.479,30.122 L42.309,29.298 L46.137,32.588 L43.98,28.025 L44.995,27.443 L47.84,31.612 L46.938,26.646 L48.07,26.348 L49.739,31.111 L50.153,26.081 L51.323,26.085 L51.701,31.072 L53.404,26.366 L54.534,26.673 z" fill-opacity="0" stroke="#FFFED0" stroke-width="0.5"/>
      </g>
      <g>
        <path d="M52.471,29.287 L52.125,33.506 L54,29.716 L54.813,30.063 L53.378,34.073 L56.179,30.873 L56.875,31.419 L54.481,34.893 L57.985,32.555 L58.516,33.263 L55.344,35.982 L59.294,34.647 L59.623,35.468 L55.864,37.266 L60.017,37.006 L60.122,37.885 L56.032,38.638 L60.104,39.472 L59.979,40.348 L55.836,40.007 L59.551,41.877 L59.203,42.691 L55.289,41.277 L58.393,44.057 L57.847,44.753 L54.43,42.363 L56.711,45.862 L56.003,46.393 L53.316,43.191 L54.619,47.171 L53.798,47.501 L52.023,43.704 L52.26,47.894 L51.381,48 L50.635,43.836 L49.794,47.982 L48.918,47.856 L49.274,43.641 L47.389,47.428 L46.575,47.08 L47.978,43.124 L45.209,46.271 L44.514,45.724 L46.9,42.244 L43.404,44.589 L42.873,43.881 L46.1,41.131 L42.095,42.497 L41.766,41.675 L45.586,39.862 L41.372,40.137 L41.267,39.259 L45.42,38.506 L41.285,37.671 L41.41,36.795 L45.614,37.154 L41.838,35.266 L42.186,34.453 L46.153,35.898 L42.996,33.087 L43.542,32.391 L47.003,34.825 L44.678,31.281 L45.386,30.75 L48.104,34.007 L46.769,29.972 L47.591,29.643 L49.382,33.501 L49.129,29.249 L50.007,29.144 L50.744,33.308 L51.595,29.162 L52.471,29.287 z" fill="#000000"/>
        <path d="M52.471,29.287 L52.125,33.506 L54,29.716 L54.813,30.063 L53.378,34.073 L56.179,30.873 L56.875,31.419 L54.481,34.893 L57.985,32.555 L58.516,33.263 L55.344,35.982 L59.294,34.647 L59.623,35.468 L55.864,37.266 L60.017,37.006 L60.122,37.885 L56.032,38.638 L60.104,39.472 L59.979,40.348 L55.836,40.007 L59.551,41.877 L59.203,42.691 L55.289,41.277 L58.393,44.057 L57.847,44.753 L54.43,42.363 L56.711,45.862 L56.003,46.393 L53.316,43.191 L54.619,47.171 L53.798,47.501 L52.023,43.704 L52.26,47.894 L51.381,48 L50.635,43.836 L49.794,47.982 L48.918,47.856 L49.274,43.641 L47.389,47.428 L46.575,47.08 L47.978,43.124 L45.209,46.271 L44.514,45.724 L46.9,42.244 L43.404,44.589 L42.873,43.881 L46.1,41.131 L42.095,42.497 L41.766,41.675 L45.586,39.862 L41.372,40.137 L41.267,39.259 L45.42,38.506 L41.285,37.671 L41.41,36.795 L45.614,37.154 L41.838,35.266 L42.186,34.453 L46.153,35.898 L42.996,33.087 L43.542,32.391 L47.003,34.825 L44.678,31.281 L45.386,30.75 L48.104,34.007 L46.769,29.972 L47.591,29.643 L49.382,33.501 L49.129,29.249 L50.007,29.144 L50.744,33.308 L51.595,29.162 L52.471,29.287 z" fill-opacity="0" stroke="#FFFED0" stroke-width="0.5"/>
      </g>
    </g>
    <path d="M50.993,33.203 L51.217,34.866 L51.885,33.332 L52.368,33.467 L52.149,35.15 L53.196,33.822 L53.628,34.078 L52.999,35.624 L54.335,34.635 L54.686,34.994 L53.705,36.309 L55.226,35.715 L55.471,36.152 L54.189,37.163 L55.806,36.988 L55.93,37.475 L54.433,38.111 L56.037,38.369 L56.031,38.871 L54.421,39.09 L55.903,39.762 L55.767,40.245 L54.154,40.033 L55.412,41.073 L55.156,41.505 L53.65,40.874 L54.6,42.213 L54.24,42.563 L52.944,41.558 L53.519,43.103 L53.082,43.349 L52.084,42.037 L52.246,43.683 L51.759,43.807 L51.121,42.258 L50.865,43.914 L50.363,43.908 L50.147,42.246 L49.472,43.78 L48.989,43.644 L49.19,42.002 L48.161,43.29 L47.729,43.034 L48.352,41.483 L47.021,42.477 L46.671,42.118 L47.687,40.776 L46.131,41.397 L45.886,40.959 L47.21,39.932 L45.551,40.123 L45.427,39.637 L46.968,38.995 L45.32,38.743 L45.326,38.241 L46.98,38.028 L45.454,37.349 L45.59,36.866 L47.244,37.096 L45.944,36.038 L46.201,35.607 L47.742,36.264 L46.757,34.899 L47.116,34.548 L48.439,35.589 L47.837,34.009 L48.275,33.763 L49.29,35.115 L49.111,33.428 L49.597,33.304 L50.229,34.855 L50.492,33.197 L50.993,33.203 z" fill="#FFFED0"/>
  </g>
</svg>
