<?xml version="1.0" encoding="UTF-8"?>
<!DOCTYPE svg PUBLIC "-//W3C//DTD SVG 1.1//EN" "http://www.w3.org/Graphics/SVG/1.1/DTD/svg11.dtd">
<svg version="1.1" xmlns="http://www.w3.org/2000/svg" xmlns:xlink="http://www.w3.org/1999/xlink" x="0" y="0" width="100" height="100" viewBox="0, 0, 100, 100">
  <g id="Layer_1">
    <path d="M49.622,77.038 L51.154,79.768" fill-opacity="0" stroke="#FFFED0" stroke-width="4" stroke-linecap="round" stroke-linejoin="round"/>
    <path d="M50.317,23.232 L50.322,23.232 C50.549,25.46 50.571,26.868 51.127,29.149 C51.288,29.782 51.459,30.63 51.861,31.62 L53.137,35.245 C53.245,35.51 53.655,35.744 53.92,35.636 C54.185,35.528 54.529,35.125 54.439,34.853 C53.472,31.925 53.49,31.584 53.508,31.137 C53.613,28.519 53.868,28.419 53.905,28.492 C54.465,29.589 54.61,30.789 55.224,31.912 C56.405,34.069 56.423,34.263 57.952,35.91 C58.364,37.458 58.881,38.754 58.98,39.105 C59.058,39.38 59.556,39.59 59.832,39.512 C60.107,39.434 60.473,39.089 60.369,38.822 C59.558,36.732 59.344,35.935 59.244,35.558 C59.614,33.464 59.6,31.953 59.587,29.831 C59.907,33.214 60.76,35.145 62.075,37.595 C63.545,40.335 64.049,42.336 63.617,43.605 C62.668,46.399 63.745,46.977 64.573,46.256 C65.762,45.22 66.77,42.544 68.414,40.838 C68.538,40.709 65.947,43.824 66.27,54.506 C66.328,56.411 63.656,59.388 64.482,60.93 C65.087,62.06 66.952,59.609 70.424,57.305 C70.484,57.266 68.952,58.594 67.993,60.121 C66.02,63.263 63.509,68.047 61.534,69.086 C57.968,70.963 59.53,71.464 62.556,70.693 C63.118,70.55 57.519,74.066 53.202,76.217 C51.685,76.972 51.276,77.973 50.038,78.015 C48.959,77.962 48.055,76.763 46.555,75.96 C42.5,73.787 37.369,70.539 37.519,70.564 C40.546,71.078 41.096,70.486 39.308,69.369 C37.511,68.247 34.896,63.161 32.908,60.035 C31.898,58.447 30.413,57.486 30.588,57.561 C32.775,58.496 33.512,60.291 35.888,60.826 C37.894,61.278 34.33,56.16 34.355,54.635 C34.517,45.026 31.945,40.15 32.142,40.496 C34.517,44.677 36.313,47.272 36.766,46.384 C36.882,43.983 36.826,43.774 36.766,43.538 C36.407,42.138 37.132,39.593 38.913,37.252 C39.827,36.05 40.697,31.039 40.857,30.343 C40.942,32.162 40.86,34.01 41.299,35.79 C40.992,37.311 40.476,38.698 40.317,39.141 C40.221,39.411 40.536,39.846 40.805,39.942 C41.075,40.039 41.627,39.76 41.724,39.491 C42.59,36.853 42.534,37.13 42.639,36.569 C42.87,36.35 43.118,36.146 43.333,35.91 C44.673,34.443 45.337,32.918 46.208,31.13 C46.308,30.924 47.309,27.616 47.32,28.967 C47.338,29.714 47.362,30.222 47.349,30.958 C47.317,32.795 46.622,34.275 46.464,34.717 C46.367,34.987 46.664,35.362 46.933,35.458 C47.203,35.555 47.649,35.407 47.753,35.141 C48.638,32.874 48.755,32.303 48.942,31.513 C49.164,30.579 49.286,30.216 49.496,29.073 C49.972,26.483 50.317,23.232 50.317,23.232 z" fill-opacity="0" stroke="#FFFED0" stroke-width="1.5" stroke-linecap="round" stroke-linejoin="round"/>
    <path d="M50.317,23.232 L50.322,23.232 C50.549,25.46 50.571,26.868 51.127,29.149 C51.288,29.782 51.459,30.63 51.861,31.62 L53.137,35.245 C53.245,35.51 53.655,35.744 53.92,35.636 C54.185,35.528 54.529,35.125 54.439,34.853 C53.472,31.925 53.49,31.584 53.508,31.137 C53.613,28.519 53.868,28.419 53.905,28.492 C54.465,29.589 54.61,30.789 55.224,31.912 C56.405,34.069 56.423,34.263 57.952,35.91 C58.364,37.458 58.881,38.754 58.98,39.105 C59.058,39.38 59.556,39.59 59.832,39.512 C60.107,39.434 60.473,39.089 60.369,38.822 C59.558,36.732 59.344,35.935 59.244,35.558 C59.614,33.464 59.6,31.953 59.587,29.831 C59.907,33.214 60.76,35.145 62.075,37.595 C63.545,40.335 64.049,42.336 63.617,43.605 C62.668,46.399 63.745,46.977 64.573,46.256 C65.762,45.22 66.77,42.544 68.414,40.838 C68.538,40.709 65.947,43.824 66.27,54.506 C66.328,56.411 63.656,59.388 64.482,60.93 C65.087,62.06 66.952,59.609 70.424,57.305 C70.484,57.266 68.952,58.594 67.993,60.121 C66.02,63.263 63.509,68.047 61.534,69.086 C57.968,70.963 59.53,71.464 62.556,70.693 C63.118,70.55 57.519,74.066 53.202,76.217 C51.685,76.972 51.276,77.973 50.038,78.015 C48.959,77.962 48.055,76.763 46.555,75.96 C42.5,73.787 37.369,70.539 37.519,70.564 C40.546,71.078 41.096,70.486 39.308,69.369 C37.511,68.247 34.896,63.161 32.908,60.035 C31.898,58.447 30.413,57.486 30.588,57.561 C32.775,58.496 33.512,60.291 35.888,60.826 C37.894,61.278 34.33,56.16 34.355,54.635 C34.517,45.026 31.945,40.15 32.142,40.496 C34.517,44.677 36.313,47.272 36.766,46.384 C36.882,43.983 36.826,43.774 36.766,43.538 C36.407,42.138 37.132,39.593 38.913,37.252 C39.827,36.05 40.697,31.039 40.857,30.343 C40.942,32.162 40.86,34.01 41.299,35.79 C40.992,37.311 40.476,38.698 40.317,39.141 C40.221,39.411 40.536,39.846 40.805,39.942 C41.075,40.039 41.627,39.76 41.724,39.491 C42.59,36.853 42.534,37.13 42.639,36.569 C42.87,36.35 43.118,36.146 43.333,35.91 C44.673,34.443 45.337,32.918 46.208,31.13 C46.308,30.924 47.309,27.616 47.32,28.967 C47.338,29.714 47.362,30.222 47.349,30.958 C47.317,32.795 46.622,34.275 46.464,34.717 C46.367,34.987 46.664,35.362 46.933,35.458 C47.203,35.555 47.649,35.407 47.753,35.141 C48.638,32.874 48.755,32.303 48.942,31.513 C49.164,30.579 49.286,30.216 49.496,29.073 C49.972,26.483 50.317,23.232 50.317,23.232 z" fill="#000000"/>
    <path d="M49.51,76.044 C50.362,76.283 50.071,76.057 50.494,76.549 L52.026,79.279 C52.296,79.76 52.125,80.37 51.643,80.64 C51.162,80.91 50.552,80.739 50.282,80.257 L48.75,77.527 C48.48,77.046 48.651,76.436 49.133,76.166 L49.51,76.044 z" fill="#000000"/>
    <path d="M50.481,63.859 C48.933,63.859 46.929,60.214 46.929,56.012 C46.929,51.811 49.056,47.602 50.604,47.602 C52.152,47.602 54.071,51.729 54.071,55.931 C54.071,60.132 52.029,63.859 50.481,63.859 z" fill-opacity="0" stroke="#FFFED0" stroke-width="16"/>
    <g>
      <path d="M43.489,48.851 C43.236,48.86 43.024,48.663 43.015,48.409 C43.006,48.157 43.203,47.945 43.457,47.936 C43.709,47.927 43.921,48.125 43.93,48.377 C43.939,48.63 43.741,48.842 43.489,48.851 z" fill-opacity="0" stroke="#000000" stroke-width="1"/>
      <path d="M54.492,45.237 C54.239,45.246 54.027,45.048 54.019,44.796 C54.01,44.542 54.207,44.33 54.46,44.321 C54.713,44.312 54.925,44.51 54.934,44.764 C54.943,45.016 54.745,45.228 54.492,45.237 z" fill-opacity="0" stroke="#000000" stroke-width="1"/>
      <path d="M50.879,49.974 C50.913,49.723 51.143,49.547 51.394,49.58 C51.645,49.613 51.82,49.843 51.787,50.095 C51.754,50.345 51.524,50.521 51.274,50.488 C51.023,50.455 50.846,50.225 50.879,49.974 z" fill-opacity="0" stroke="#000000" stroke-width="1"/>
      <path d="M53.646,59.796 C53.68,59.546 53.91,59.369 54.16,59.402 C54.411,59.435 54.588,59.666 54.555,59.917 C54.522,60.167 54.291,60.343 54.04,60.31 C53.79,60.277 53.613,60.047 53.646,59.796 z" fill-opacity="0" stroke="#000000" stroke-width="1"/>
      <path d="M49.166,60.432 C49.199,60.181 49.429,60.005 49.68,60.038 C49.93,60.071 50.107,60.301 50.074,60.552 C50.041,60.803 49.81,60.979 49.56,60.946 C49.309,60.912 49.132,60.682 49.166,60.432 z" fill-opacity="0" stroke="#000000" stroke-width="1"/>
      <path d="M46.4,63.122 C46.433,62.872 46.664,62.694 46.914,62.728 C47.165,62.761 47.341,62.992 47.308,63.242 C47.275,63.492 47.045,63.67 46.794,63.635 C46.543,63.602 46.367,63.372 46.4,63.122 z" fill-opacity="0" stroke="#000000" stroke-width="1"/>
      <path d="M41.215,59.227 C41.249,58.976 41.479,58.8 41.73,58.833 C41.98,58.866 42.156,59.096 42.123,59.347 C42.09,59.598 41.86,59.774 41.609,59.741 C41.358,59.708 41.182,59.478 41.215,59.227 z" fill-opacity="0" stroke="#000000" stroke-width="1"/>
      <path d="M58.466,54.997 C58.593,54.779 58.873,54.705 59.092,54.832 C59.311,54.959 59.385,55.239 59.257,55.459 C59.13,55.677 58.849,55.751 58.631,55.624 C58.412,55.496 58.338,55.216 58.466,54.997 z" fill-opacity="0" stroke="#000000" stroke-width="1"/>
      <path d="M48.104,56.734 C48.23,56.516 48.511,56.442 48.73,56.569 C48.948,56.697 49.022,56.976 48.895,57.196 C48.767,57.414 48.488,57.488 48.269,57.361 C48.049,57.233 47.977,56.953 48.104,56.734 z" fill-opacity="0" stroke="#000000" stroke-width="1"/>
      <path d="M53.344,62.735 C53.539,62.897 53.565,63.185 53.404,63.38 C53.242,63.575 52.952,63.601 52.758,63.439 C52.564,63.278 52.538,62.989 52.699,62.794 C52.861,62.6 53.15,62.573 53.344,62.735 z" fill-opacity="0" stroke="#000000" stroke-width="1"/>
      <path d="M45.646,55.051 C45.841,55.213 45.867,55.502 45.706,55.695 C45.545,55.89 45.255,55.916 45.062,55.755 C44.867,55.593 44.841,55.305 45.002,55.111 C45.164,54.916 45.452,54.89 45.646,55.051 z" fill-opacity="0" stroke="#000000" stroke-width="1"/>
      <path d="M54.364,52.959 C54.559,53.12 54.585,53.409 54.424,53.604 C54.262,53.798 53.973,53.825 53.779,53.663 C53.584,53.501 53.557,53.213 53.719,53.019 C53.881,52.824 54.17,52.798 54.364,52.959 z" fill-opacity="0" stroke="#000000" stroke-width="1"/>
      <path d="M48.867,44.635 C49.061,44.797 49.088,45.085 48.925,45.28 C48.764,45.475 48.475,45.501 48.28,45.34 C48.086,45.178 48.059,44.888 48.221,44.695 C48.383,44.5 48.672,44.473 48.867,44.635 z" fill-opacity="0" stroke="#000000" stroke-width="1"/>
      <path d="M42.787,51.633 C42.982,51.795 43.008,52.084 42.847,52.279 C42.685,52.472 42.396,52.5 42.202,52.337 C42.008,52.175 41.981,51.888 42.143,51.693 C42.304,51.498 42.593,51.472 42.787,51.633 z" fill-opacity="0" stroke="#000000" stroke-width="1"/>
      <path d="M52.13,46.323 C52.325,46.485 52.351,46.774 52.19,46.969 C52.027,47.162 51.738,47.19 51.544,47.027 C51.35,46.865 51.322,46.578 51.485,46.383 C51.647,46.188 51.935,46.162 52.13,46.323 z" fill-opacity="0" stroke="#000000" stroke-width="1"/>
      <path d="M45.043,66.606 C45.076,66.354 45.307,66.179 45.556,66.212 C45.808,66.246 45.984,66.476 45.951,66.726 C45.918,66.977 45.688,67.153 45.436,67.12 C45.186,67.087 45.01,66.857 45.043,66.606 z" fill-opacity="0" stroke="#000000" stroke-width="1"/>
      <path d="M54.202,49.858 C54.236,49.606 54.466,49.43 54.717,49.463 C54.968,49.497 55.143,49.727 55.111,49.978 C55.078,50.228 54.848,50.404 54.597,50.371 C54.346,50.338 54.17,50.108 54.202,49.858 z" fill-opacity="0" stroke="#000000" stroke-width="1"/>
      <path d="M50.985,68.284 C51.179,68.446 51.206,68.736 51.044,68.929 C50.882,69.124 50.593,69.15 50.399,68.989 C50.204,68.827 50.178,68.538 50.339,68.344 C50.501,68.149 50.791,68.123 50.985,68.284 z" fill-opacity="0" stroke="#000000" stroke-width="1"/>
      <path d="M45.321,59.253 C45.068,59.262 44.87,59.474 44.879,59.727 C44.888,59.98 45.1,60.177 45.353,60.168 C45.605,60.16 45.803,59.947 45.794,59.695 C45.785,59.442 45.573,59.244 45.321,59.253 z" fill-opacity="0" stroke="#000000" stroke-width="1"/>
      <path d="M55.856,56.466 C55.604,56.475 55.406,56.687 55.415,56.941 C55.424,57.192 55.636,57.39 55.889,57.381 C56.141,57.372 56.339,57.16 56.33,56.908 C56.321,56.655 56.109,56.457 55.856,56.466 z" fill-opacity="0" stroke="#000000" stroke-width="1"/>
      <path d="M49.58,52.291 C49.327,52.299 49.129,52.511 49.138,52.763 C49.147,53.016 49.359,53.214 49.612,53.205 C49.865,53.196 50.063,52.984 50.054,52.731 C50.045,52.479 49.833,52.282 49.58,52.291 z" fill-opacity="0" stroke="#000000" stroke-width="1"/>
      <path d="M58.049,51.801 C58.101,52.048 58.342,52.208 58.59,52.157 C58.837,52.106 58.998,51.864 58.947,51.616 C58.896,51.369 58.654,51.209 58.407,51.26 C58.159,51.311 57.998,51.552 58.049,51.801 z" fill-opacity="0" stroke="#000000" stroke-width="1"/>
      <path d="M47.322,48.418 C47.372,48.666 47.614,48.825 47.862,48.776 C48.11,48.725 48.269,48.482 48.22,48.235 C48.169,47.986 47.926,47.827 47.679,47.878 C47.43,47.928 47.271,48.17 47.322,48.418 z" fill-opacity="0" stroke="#000000" stroke-width="1"/>
      <path d="M56.523,47.696 C56.574,47.944 56.816,48.103 57.064,48.052 C57.311,48.002 57.471,47.761 57.42,47.512 C57.369,47.264 57.127,47.104 56.879,47.155 C56.633,47.206 56.472,47.447 56.523,47.696 z" fill-opacity="0" stroke="#000000" stroke-width="1"/>
      <path d="M41.452,55.916 C41.503,56.164 41.745,56.323 41.993,56.272 C42.24,56.222 42.4,55.98 42.349,55.733 C42.299,55.484 42.056,55.325 41.809,55.375 C41.561,55.426 41.402,55.668 41.452,55.916 z" fill-opacity="0" stroke="#000000" stroke-width="1"/>
      <path d="M51.476,56.556 C51.617,56.766 51.903,56.819 52.111,56.677 C52.321,56.535 52.376,56.25 52.233,56.041 C52.091,55.831 51.807,55.777 51.598,55.92 C51.387,56.061 51.333,56.346 51.476,56.556 z" fill-opacity="0" stroke="#000000" stroke-width="1"/>
      <path d="M46.422,51.979 C46.605,51.804 46.611,51.514 46.436,51.331 C46.261,51.148 45.97,51.143 45.788,51.318 C45.605,51.493 45.6,51.783 45.774,51.966 C45.95,52.148 46.24,52.155 46.422,51.979 z" fill-opacity="0" stroke="#000000" stroke-width="1"/>
      <path d="M59.039,59.935 C59.222,59.761 59.228,59.47 59.054,59.287 C58.878,59.105 58.589,59.098 58.406,59.274 C58.223,59.448 58.218,59.738 58.391,59.921 C58.567,60.105 58.857,60.11 59.039,59.935 z" fill-opacity="0" stroke="#000000" stroke-width="1"/>
      <path d="M50.142,65.453 C50.325,65.279 50.331,64.99 50.155,64.807 C49.981,64.625 49.69,64.618 49.507,64.793 C49.325,64.968 49.318,65.257 49.494,65.44 C49.669,65.623 49.959,65.629 50.142,65.453 z" fill-opacity="0" stroke="#000000" stroke-width="1"/>
      <path d="M43.397,63.646 C43.58,63.47 43.586,63.18 43.411,62.998 C43.236,62.815 42.946,62.809 42.763,62.984 C42.581,63.159 42.575,63.449 42.75,63.631 C42.925,63.814 43.215,63.82 43.397,63.646 z" fill-opacity="0" stroke="#000000" stroke-width="1"/>
      <path d="M54.891,66.849 C55.074,66.674 55.079,66.385 54.904,66.202 C54.729,66.02 54.44,66.013 54.257,66.189 C54.075,66.363 54.068,66.653 54.244,66.836 C54.418,67.019 54.708,67.024 54.891,66.849 z" fill-opacity="0" stroke="#000000" stroke-width="1"/>
      <path d="M44.343,45.243 C44.395,45.491 44.637,45.651 44.884,45.6 C45.131,45.55 45.292,45.308 45.241,45.059 C45.191,44.811 44.948,44.653 44.7,44.703 C44.452,44.754 44.293,44.996 44.343,45.243 z" fill-opacity="0" stroke="#000000" stroke-width="1"/>
      <path d="M56.846,62.907 C56.897,63.154 57.139,63.315 57.386,63.263 C57.634,63.212 57.794,62.971 57.743,62.723 C57.693,62.476 57.451,62.315 57.203,62.366 C56.955,62.417 56.796,62.66 56.846,62.907 z" fill-opacity="0" stroke="#000000" stroke-width="1"/>
      <path d="M51.152,43.117 C51.335,42.941 51.341,42.652 51.166,42.469 C50.99,42.286 50.701,42.28 50.519,42.455 C50.336,42.63 50.33,42.92 50.504,43.103 C50.679,43.285 50.97,43.292 51.152,43.117 z" fill-opacity="0" stroke="#000000" stroke-width="1"/>
    </g>
  </g>
</svg>
