<?xml version="1.0" encoding="UTF-8"?>
<!DOCTYPE svg PUBLIC "-//W3C//DTD SVG 1.1//EN" "http://www.w3.org/Graphics/SVG/1.1/DTD/svg11.dtd">
<svg version="1.1" xmlns="http://www.w3.org/2000/svg" xmlns:xlink="http://www.w3.org/1999/xlink" x="0" y="0" width="100" height="100" viewBox="0, 0, 100, 100">
  <g id="Layer_1">
    <path d="M23.888,50.74 C23.888,50.74 32.761,35.938 50.403,35.378 C68.674,35.657 77.75,50.97 77.75,50.97 C77.75,50.97 70.246,64.542 51.456,64.621 C32.665,64.701 23.888,50.74 23.888,50.74" fill-opacity="0" stroke="#000000" stroke-width="2.5" stroke-linecap="round" stroke-linejoin="round"/>
    <path d="M23.888,50.74 C23.888,50.74 32.761,35.938 50.403,35.378 C68.674,35.657 77.75,50.97 77.75,50.97 C77.75,50.97 70.246,64.542 51.456,64.621 C32.665,64.701 23.888,50.74 23.888,50.74" fill="#FFFED0"/>
    <g>
      <path d="M50.819,62.277 C44.038,62.277 38.54,56.781 38.54,50 C38.54,43.219 44.038,37.723 50.819,37.723 C57.599,37.723 63.097,43.219 63.097,50 C63.097,56.781 57.599,62.277 50.819,62.277 z" fill="#000000"/>
      <g>
        <g>
          <g>
            <path d="M51.225,39.22 L51.403,44.859 L53.023,39.457 L53.998,39.718 L52.693,45.237 L55.672,40.412 L56.547,40.917 L53.874,45.883 L57.985,42.02 L58.7,42.734 L54.859,46.825 L59.803,44.173 L60.309,45.047 L55.54,48.003 L61.002,46.722 L61.263,47.698 L55.892,49.319 L61.5,49.495 L61.5,50.505 L55.892,50.681 L61.263,52.302 L61.002,53.278 L55.54,51.997 L60.309,54.953 L59.803,55.827 L54.859,53.176 L58.7,57.266 L57.985,57.98 L53.896,54.139 L56.547,59.083 L55.672,59.588 L52.716,54.82 L53.998,60.282 L53.023,60.543 L51.392,55.143 L51.225,60.78 L50.215,60.78 L50.048,55.143 L48.418,60.543 L47.442,60.282 L48.723,54.82 L45.768,59.588 L44.893,59.083 L47.559,54.112 L43.455,57.98 L42.741,57.266 L46.63,53.139 L41.637,55.827 L41.132,54.953 L45.957,51.972 L40.439,53.278 L40.177,52.302 L45.609,50.672 L39.94,50.505 L39.94,49.495 L45.609,49.327 L40.177,47.698 L40.439,46.722 L45.957,48.027 L41.132,45.047 L41.637,44.173 L46.63,46.861 L42.741,42.734 L43.455,42.02 L47.582,45.91 L44.893,40.917 L45.768,40.412 L48.747,45.236 L47.442,39.718 L48.418,39.457 L50.038,44.859 L50.215,39.22 L51.225,39.22 z" fill="#000000"/>
            <path d="M51.225,39.22 L51.403,44.859 L53.023,39.457 L53.998,39.718 L52.693,45.237 L55.672,40.412 L56.547,40.917 L53.874,45.883 L57.985,42.02 L58.7,42.734 L54.859,46.825 L59.803,44.173 L60.309,45.047 L55.54,48.003 L61.002,46.722 L61.263,47.698 L55.892,49.319 L61.5,49.495 L61.5,50.505 L55.892,50.681 L61.263,52.302 L61.002,53.278 L55.54,51.997 L60.309,54.953 L59.803,55.827 L54.859,53.176 L58.7,57.266 L57.985,57.98 L53.896,54.139 L56.547,59.083 L55.672,59.588 L52.716,54.82 L53.998,60.282 L53.023,60.543 L51.392,55.143 L51.225,60.78 L50.215,60.78 L50.048,55.143 L48.418,60.543 L47.442,60.282 L48.723,54.82 L45.768,59.588 L44.893,59.083 L47.559,54.112 L43.455,57.98 L42.741,57.266 L46.63,53.139 L41.637,55.827 L41.132,54.953 L45.957,51.972 L40.439,53.278 L40.177,52.302 L45.609,50.672 L39.94,50.505 L39.94,49.495 L45.609,49.327 L40.177,47.698 L40.439,46.722 L45.957,48.027 L41.132,45.047 L41.637,44.173 L46.63,46.861 L42.741,42.734 L43.455,42.02 L47.582,45.91 L44.893,40.917 L45.768,40.412 L48.747,45.236 L47.442,39.718 L48.418,39.457 L50.038,44.859 L50.215,39.22 L51.225,39.22 z" fill-opacity="0" stroke="#FFFED0" stroke-width="0.5" stroke-linecap="round" stroke-linejoin="round"/>
          </g>
          <g>
            <path d="M51.225,39.22 L51.403,44.859 L53.023,39.457 L53.998,39.718 L52.693,45.237 L55.672,40.412 L56.547,40.917 L53.874,45.883 L57.985,42.02 L58.7,42.734 L54.859,46.825 L59.803,44.173 L60.309,45.047 L55.54,48.003 L61.002,46.722 L61.263,47.698 L55.892,49.319 L61.5,49.495 L61.5,50.505 L55.892,50.681 L61.263,52.302 L61.002,53.278 L55.54,51.997 L60.309,54.953 L59.803,55.827 L54.859,53.176 L58.7,57.266 L57.985,57.98 L53.896,54.139 L56.547,59.083 L55.672,59.588 L52.716,54.82 L53.998,60.282 L53.023,60.543 L51.392,55.143 L51.225,60.78 L50.215,60.78 L50.048,55.143 L48.418,60.543 L47.442,60.282 L48.723,54.82 L45.768,59.588 L44.893,59.083 L47.559,54.112 L43.455,57.98 L42.741,57.266 L46.63,53.139 L41.637,55.827 L41.132,54.953 L45.957,51.972 L40.439,53.278 L40.177,52.302 L45.609,50.672 L39.94,50.505 L39.94,49.495 L45.609,49.327 L40.177,47.698 L40.439,46.722 L45.957,48.027 L41.132,45.047 L41.637,44.173 L46.63,46.861 L42.741,42.734 L43.455,42.02 L47.582,45.91 L44.893,40.917 L45.768,40.412 L48.747,45.236 L47.442,39.718 L48.418,39.457 L50.038,44.859 L50.215,39.22 L51.225,39.22 z" fill="#000000"/>
            <path d="M51.225,39.22 L51.403,44.859 L53.023,39.457 L53.998,39.718 L52.693,45.237 L55.672,40.412 L56.547,40.917 L53.874,45.883 L57.985,42.02 L58.7,42.734 L54.859,46.825 L59.803,44.173 L60.309,45.047 L55.54,48.003 L61.002,46.722 L61.263,47.698 L55.892,49.319 L61.5,49.495 L61.5,50.505 L55.892,50.681 L61.263,52.302 L61.002,53.278 L55.54,51.997 L60.309,54.953 L59.803,55.827 L54.859,53.176 L58.7,57.266 L57.985,57.98 L53.896,54.139 L56.547,59.083 L55.672,59.588 L52.716,54.82 L53.998,60.282 L53.023,60.543 L51.392,55.143 L51.225,60.78 L50.215,60.78 L50.048,55.143 L48.418,60.543 L47.442,60.282 L48.723,54.82 L45.768,59.588 L44.893,59.083 L47.559,54.112 L43.455,57.98 L42.741,57.266 L46.63,53.139 L41.637,55.827 L41.132,54.953 L45.957,51.972 L40.439,53.278 L40.177,52.302 L45.609,50.672 L39.94,50.505 L39.94,49.495 L45.609,49.327 L40.177,47.698 L40.439,46.722 L45.957,48.027 L41.132,45.047 L41.637,44.173 L46.63,46.861 L42.741,42.734 L43.455,42.02 L47.582,45.91 L44.893,40.917 L45.768,40.412 L48.747,45.236 L47.442,39.718 L48.418,39.457 L50.038,44.859 L50.215,39.22 L51.225,39.22 z" fill-opacity="0" stroke="#FFFED0" stroke-width="0.5" stroke-linecap="round" stroke-linejoin="round"/>
          </g>
        </g>
        <g>
          <g>
            <path d="M52.55,39.867 L52.346,43.983 L54.221,40.316 L55.111,40.685 L53.823,44.638 L56.608,41.552 L57.372,42.139 L55.127,45.593 L58.593,43.363 L59.18,44.129 L56.152,46.871 L60.043,45.627 L60.412,46.518 L56.777,48.384 L60.858,48.19 L60.982,49.145 L56.99,50.007 L60.981,50.875 L60.854,51.83 L56.774,51.629 L60.405,53.5 L60.035,54.391 L56.147,53.14 L59.169,55.888 L58.581,56.652 L55.148,54.438 L57.356,57.874 L56.592,58.46 L53.849,55.432 L55.093,59.323 L54.202,59.691 L52.337,56.058 L52.531,60.137 L51.575,60.263 L50.708,56.232 L49.845,60.261 L48.89,60.133 L49.107,56.02 L47.22,59.684 L46.329,59.315 L47.58,55.426 L44.833,58.448 L44.068,57.861 L46.304,54.399 L42.847,56.637 L42.261,55.871 L45.352,53.092 L41.397,54.373 L41.029,53.482 L44.735,51.597 L40.583,51.81 L40.458,50.855 L44.525,49.993 L40.46,49.125 L40.586,48.169 L44.737,48.39 L41.035,46.5 L41.406,45.609 L45.357,46.896 L42.271,44.112 L42.859,43.348 L46.344,45.615 L44.084,42.126 L44.849,41.54 L47.628,44.631 L46.347,40.677 L47.239,40.309 L49.123,44.014 L48.909,39.863 L49.865,39.737 L50.72,43.768 L51.595,39.739 L52.55,39.867 z" fill="#000000"/>
            <path d="M52.55,39.867 L52.346,43.983 L54.221,40.316 L55.111,40.685 L53.823,44.638 L56.608,41.552 L57.372,42.139 L55.127,45.593 L58.593,43.363 L59.18,44.129 L56.152,46.871 L60.043,45.627 L60.412,46.518 L56.777,48.384 L60.858,48.19 L60.982,49.145 L56.99,50.007 L60.981,50.875 L60.854,51.83 L56.774,51.629 L60.405,53.5 L60.035,54.391 L56.147,53.14 L59.169,55.888 L58.581,56.652 L55.148,54.438 L57.356,57.874 L56.592,58.46 L53.849,55.432 L55.093,59.323 L54.202,59.691 L52.337,56.058 L52.531,60.137 L51.575,60.263 L50.708,56.232 L49.845,60.261 L48.89,60.133 L49.107,56.02 L47.22,59.684 L46.329,59.315 L47.58,55.426 L44.833,58.448 L44.068,57.861 L46.304,54.399 L42.847,56.637 L42.261,55.871 L45.352,53.092 L41.397,54.373 L41.029,53.482 L44.735,51.597 L40.583,51.81 L40.458,50.855 L44.525,49.993 L40.46,49.125 L40.586,48.169 L44.737,48.39 L41.035,46.5 L41.406,45.609 L45.357,46.896 L42.271,44.112 L42.859,43.348 L46.344,45.615 L44.084,42.126 L44.849,41.54 L47.628,44.631 L46.347,40.677 L47.239,40.309 L49.123,44.014 L48.909,39.863 L49.865,39.737 L50.72,43.768 L51.595,39.739 L52.55,39.867 z" fill-opacity="0" stroke="#FFFED0" stroke-width="0.5" stroke-linecap="round" stroke-linejoin="round"/>
          </g>
          <g>
            <path d="M52.55,39.867 L52.346,43.983 L54.221,40.316 L55.111,40.685 L53.823,44.638 L56.608,41.552 L57.372,42.139 L55.127,45.593 L58.593,43.363 L59.18,44.129 L56.152,46.871 L60.043,45.627 L60.412,46.518 L56.777,48.384 L60.858,48.19 L60.982,49.145 L56.99,50.007 L60.981,50.875 L60.854,51.83 L56.774,51.629 L60.405,53.5 L60.035,54.391 L56.147,53.14 L59.169,55.888 L58.581,56.652 L55.148,54.438 L57.356,57.874 L56.592,58.46 L53.849,55.432 L55.093,59.323 L54.202,59.691 L52.337,56.058 L52.531,60.137 L51.575,60.263 L50.708,56.232 L49.845,60.261 L48.89,60.133 L49.107,56.02 L47.22,59.684 L46.329,59.315 L47.58,55.426 L44.833,58.448 L44.068,57.861 L46.304,54.399 L42.847,56.637 L42.261,55.871 L45.352,53.092 L41.397,54.373 L41.029,53.482 L44.735,51.597 L40.583,51.81 L40.458,50.855 L44.525,49.993 L40.46,49.125 L40.586,48.169 L44.737,48.39 L41.035,46.5 L41.406,45.609 L45.357,46.896 L42.271,44.112 L42.859,43.348 L46.344,45.615 L44.084,42.126 L44.849,41.54 L47.628,44.631 L46.347,40.677 L47.239,40.309 L49.123,44.014 L48.909,39.863 L49.865,39.737 L50.72,43.768 L51.595,39.739 L52.55,39.867 z" fill="#000000"/>
            <path d="M52.55,39.867 L52.346,43.983 L54.221,40.316 L55.111,40.685 L53.823,44.638 L56.608,41.552 L57.372,42.139 L55.127,45.593 L58.593,43.363 L59.18,44.129 L56.152,46.871 L60.043,45.627 L60.412,46.518 L56.777,48.384 L60.858,48.19 L60.982,49.145 L56.99,50.007 L60.981,50.875 L60.854,51.83 L56.774,51.629 L60.405,53.5 L60.035,54.391 L56.147,53.14 L59.169,55.888 L58.581,56.652 L55.148,54.438 L57.356,57.874 L56.592,58.46 L53.849,55.432 L55.093,59.323 L54.202,59.691 L52.337,56.058 L52.531,60.137 L51.575,60.263 L50.708,56.232 L49.845,60.261 L48.89,60.133 L49.107,56.02 L47.22,59.684 L46.329,59.315 L47.58,55.426 L44.833,58.448 L44.068,57.861 L46.304,54.399 L42.847,56.637 L42.261,55.871 L45.352,53.092 L41.397,54.373 L41.029,53.482 L44.735,51.597 L40.583,51.81 L40.458,50.855 L44.525,49.993 L40.46,49.125 L40.586,48.169 L44.737,48.39 L41.035,46.5 L41.406,45.609 L45.357,46.896 L42.271,44.112 L42.859,43.348 L46.344,45.615 L44.084,42.126 L44.849,41.54 L47.628,44.631 L46.347,40.677 L47.239,40.309 L49.123,44.014 L48.909,39.863 L49.865,39.737 L50.72,43.768 L51.595,39.739 L52.55,39.867 z" fill-opacity="0" stroke="#FFFED0" stroke-width="0.5" stroke-linecap="round" stroke-linejoin="round"/>
          </g>
        </g>
        <g>
          <g>
            <path d="M53.152,42.465 L52.574,45.581 L54.378,42.978 L55.019,43.35 L53.634,46.231 L56.071,44.163 L56.593,44.69 L54.529,47.092 L57.399,45.748 L57.768,46.391 L55.18,48.171 L58.272,47.621 L58.462,48.338 L55.502,49.388 L58.63,49.657 L58.628,50.398 L55.498,50.646 L58.45,51.716 L58.256,52.431 L55.167,51.861 L57.743,53.659 L57.369,54.299 L54.534,52.948 L56.556,55.351 L56.03,55.873 L53.641,53.835 L54.973,56.68 L54.33,57.047 L52.549,54.46 L53.098,57.552 L52.382,57.742 L51.333,54.782 L51.063,57.911 L50.322,57.908 L50.073,54.748 L49.004,57.729 L48.289,57.535 L48.875,54.423 L47.062,57.022 L46.422,56.65 L47.772,53.814 L45.369,55.837 L44.847,55.31 L46.905,52.9 L44.041,54.252 L43.672,53.609 L46.313,51.807 L43.168,52.379 L42.979,51.662 L45.995,50.605 L42.81,50.343 L42.813,49.602 L46,49.362 L42.99,48.284 L43.185,47.569 L46.326,48.162 L43.698,46.341 L44.071,45.701 L46.951,47.087 L44.884,44.649 L45.41,44.127 L47.833,46.21 L46.468,43.32 L47.111,42.953 L48.913,45.592 L48.342,42.448 L49.058,42.259 L50.115,45.275 L50.377,42.089 L51.118,42.092 L51.358,45.25 L52.436,42.271 L53.152,42.465 z" fill="#000000"/>
            <path d="M53.152,42.465 L52.574,45.581 L54.378,42.978 L55.019,43.35 L53.634,46.231 L56.071,44.163 L56.593,44.69 L54.529,47.092 L57.399,45.748 L57.768,46.391 L55.18,48.171 L58.272,47.621 L58.462,48.338 L55.502,49.388 L58.63,49.657 L58.628,50.398 L55.498,50.646 L58.45,51.716 L58.256,52.431 L55.167,51.861 L57.743,53.659 L57.369,54.299 L54.534,52.948 L56.556,55.351 L56.03,55.873 L53.641,53.835 L54.973,56.68 L54.33,57.047 L52.549,54.46 L53.098,57.552 L52.382,57.742 L51.333,54.782 L51.063,57.911 L50.322,57.908 L50.073,54.748 L49.004,57.729 L48.289,57.535 L48.875,54.423 L47.062,57.022 L46.422,56.65 L47.772,53.814 L45.369,55.837 L44.847,55.31 L46.905,52.9 L44.041,54.252 L43.672,53.609 L46.313,51.807 L43.168,52.379 L42.979,51.662 L45.995,50.605 L42.81,50.343 L42.813,49.602 L46,49.362 L42.99,48.284 L43.185,47.569 L46.326,48.162 L43.698,46.341 L44.071,45.701 L46.951,47.087 L44.884,44.649 L45.41,44.127 L47.833,46.21 L46.468,43.32 L47.111,42.953 L48.913,45.592 L48.342,42.448 L49.058,42.259 L50.115,45.275 L50.377,42.089 L51.118,42.092 L51.358,45.25 L52.436,42.271 L53.152,42.465 z" fill-opacity="0" stroke="#FFFED0" stroke-width="0.5" stroke-linecap="round" stroke-linejoin="round"/>
          </g>
          <g>
            <path d="M53.152,42.465 L52.574,45.581 L54.378,42.978 L55.019,43.35 L53.634,46.231 L56.071,44.163 L56.593,44.69 L54.529,47.092 L57.399,45.748 L57.768,46.391 L55.18,48.171 L58.272,47.621 L58.462,48.338 L55.502,49.388 L58.63,49.657 L58.628,50.398 L55.498,50.646 L58.45,51.716 L58.256,52.431 L55.167,51.861 L57.743,53.659 L57.369,54.299 L54.534,52.948 L56.556,55.351 L56.03,55.873 L53.641,53.835 L54.973,56.68 L54.33,57.047 L52.549,54.46 L53.098,57.552 L52.382,57.742 L51.333,54.782 L51.063,57.911 L50.322,57.908 L50.073,54.748 L49.004,57.729 L48.289,57.535 L48.875,54.423 L47.062,57.022 L46.422,56.65 L47.772,53.814 L45.369,55.837 L44.847,55.31 L46.905,52.9 L44.041,54.252 L43.672,53.609 L46.313,51.807 L43.168,52.379 L42.979,51.662 L45.995,50.605 L42.81,50.343 L42.813,49.602 L46,49.362 L42.99,48.284 L43.185,47.569 L46.326,48.162 L43.698,46.341 L44.071,45.701 L46.951,47.087 L44.884,44.649 L45.41,44.127 L47.833,46.21 L46.468,43.32 L47.111,42.953 L48.913,45.592 L48.342,42.448 L49.058,42.259 L50.115,45.275 L50.377,42.089 L51.118,42.092 L51.358,45.25 L52.436,42.271 L53.152,42.465 z" fill="#000000"/>
            <path d="M53.152,42.465 L52.574,45.581 L54.378,42.978 L55.019,43.35 L53.634,46.231 L56.071,44.163 L56.593,44.69 L54.529,47.092 L57.399,45.748 L57.768,46.391 L55.18,48.171 L58.272,47.621 L58.462,48.338 L55.502,49.388 L58.63,49.657 L58.628,50.398 L55.498,50.646 L58.45,51.716 L58.256,52.431 L55.167,51.861 L57.743,53.659 L57.369,54.299 L54.534,52.948 L56.556,55.351 L56.03,55.873 L53.641,53.835 L54.973,56.68 L54.33,57.047 L52.549,54.46 L53.098,57.552 L52.382,57.742 L51.333,54.782 L51.063,57.911 L50.322,57.908 L50.073,54.748 L49.004,57.729 L48.289,57.535 L48.875,54.423 L47.062,57.022 L46.422,56.65 L47.772,53.814 L45.369,55.837 L44.847,55.31 L46.905,52.9 L44.041,54.252 L43.672,53.609 L46.313,51.807 L43.168,52.379 L42.979,51.662 L45.995,50.605 L42.81,50.343 L42.813,49.602 L46,49.362 L42.99,48.284 L43.185,47.569 L46.326,48.162 L43.698,46.341 L44.071,45.701 L46.951,47.087 L44.884,44.649 L45.41,44.127 L47.833,46.21 L46.468,43.32 L47.111,42.953 L48.913,45.592 L48.342,42.448 L49.058,42.259 L50.115,45.275 L50.377,42.089 L51.118,42.092 L51.358,45.25 L52.436,42.271 L53.152,42.465 z" fill-opacity="0" stroke="#FFFED0" stroke-width="0.5" stroke-linecap="round" stroke-linejoin="round"/>
          </g>
        </g>
      </g>
      <g>
        <g>
          <path d="M52.716,45.805 L52.761,46.485 L53.393,46.199 L53.74,46.466 L53.577,47.146 L54.292,47.022 L54.557,47.368 L54.232,47.966 L54.947,48.048 L55.112,48.452 L54.658,48.941 L55.313,49.208 L55.369,49.641 L54.793,49.995 L55.367,50.425 L55.308,50.858 L54.652,51.048 L55.103,51.613 L54.935,52.016 L54.242,52.029 L54.541,52.692 L54.273,53.038 L53.592,52.87 L53.722,53.554 L53.375,53.819 L52.747,53.514 L52.696,54.208 L52.291,54.374 L51.763,53.918 L51.533,54.573 L51.101,54.629 L50.71,54.053 L50.317,54.627 L49.884,54.569 L49.659,53.887 L49.127,54.363 L48.725,54.195 L48.691,53.483 L48.047,53.801 L47.701,53.534 L47.834,52.851 L47.148,52.978 L46.883,52.632 L47.209,51.991 L46.49,51.989 L46.323,51.585 L46.833,51.011 L46.123,50.828 L46.067,50.395 L46.699,49.969 L46.069,49.612 L46.128,49.179 L46.84,48.928 L46.332,48.423 L46.501,48.021 L47.244,47.96 L46.895,47.344 L47.162,46.998 L47.887,47.128 L47.718,46.446 L48.065,46.181 L48.722,46.492 L48.745,45.792 L49.149,45.626 L49.693,46.092 L49.907,45.427 L50.34,45.371 L50.735,45.959 L51.123,45.373 L51.557,45.431 L51.779,46.075 L52.313,45.637 L52.716,45.805 z" fill="#000000"/>
          <path d="M52.716,45.805 L52.761,46.485 L53.393,46.199 L53.74,46.466 L53.577,47.146 L54.292,47.022 L54.557,47.368 L54.232,47.966 L54.947,48.048 L55.112,48.452 L54.658,48.941 L55.313,49.208 L55.369,49.641 L54.793,49.995 L55.367,50.425 L55.308,50.858 L54.652,51.048 L55.103,51.613 L54.935,52.016 L54.242,52.029 L54.541,52.692 L54.273,53.038 L53.592,52.87 L53.722,53.554 L53.375,53.819 L52.747,53.514 L52.696,54.208 L52.291,54.374 L51.763,53.918 L51.533,54.573 L51.101,54.629 L50.71,54.053 L50.317,54.627 L49.884,54.569 L49.659,53.887 L49.127,54.363 L48.725,54.195 L48.691,53.483 L48.047,53.801 L47.701,53.534 L47.834,52.851 L47.148,52.978 L46.883,52.632 L47.209,51.991 L46.49,51.989 L46.323,51.585 L46.833,51.011 L46.123,50.828 L46.067,50.395 L46.699,49.969 L46.069,49.612 L46.128,49.179 L46.84,48.928 L46.332,48.423 L46.501,48.021 L47.244,47.96 L46.895,47.344 L47.162,46.998 L47.887,47.128 L47.718,46.446 L48.065,46.181 L48.722,46.492 L48.745,45.792 L49.149,45.626 L49.693,46.092 L49.907,45.427 L50.34,45.371 L50.735,45.959 L51.123,45.373 L51.557,45.431 L51.779,46.075 L52.313,45.637 L52.716,45.805 z" fill-opacity="0" stroke="#FFFED0" stroke-width="0.5"/>
        </g>
        <g>
          <path d="M52.716,45.805 L52.761,46.485 L53.393,46.199 L53.74,46.466 L53.577,47.146 L54.292,47.022 L54.557,47.368 L54.232,47.966 L54.947,48.048 L55.112,48.452 L54.658,48.941 L55.313,49.208 L55.369,49.641 L54.793,49.995 L55.367,50.425 L55.308,50.858 L54.652,51.048 L55.103,51.613 L54.935,52.016 L54.242,52.029 L54.541,52.692 L54.273,53.038 L53.592,52.87 L53.722,53.554 L53.375,53.819 L52.747,53.514 L52.696,54.208 L52.291,54.374 L51.763,53.918 L51.533,54.573 L51.101,54.629 L50.71,54.053 L50.317,54.627 L49.884,54.569 L49.659,53.887 L49.127,54.363 L48.725,54.195 L48.691,53.483 L48.047,53.801 L47.701,53.534 L47.834,52.851 L47.148,52.978 L46.883,52.632 L47.209,51.991 L46.49,51.989 L46.323,51.585 L46.833,51.011 L46.123,50.828 L46.067,50.395 L46.699,49.969 L46.069,49.612 L46.128,49.179 L46.84,48.928 L46.332,48.423 L46.501,48.021 L47.244,47.96 L46.895,47.344 L47.162,46.998 L47.887,47.128 L47.718,46.446 L48.065,46.181 L48.722,46.492 L48.745,45.792 L49.149,45.626 L49.693,46.092 L49.907,45.427 L50.34,45.371 L50.735,45.959 L51.123,45.373 L51.557,45.431 L51.779,46.075 L52.313,45.637 L52.716,45.805 z" fill="#000000"/>
          <path d="M52.716,45.805 L52.761,46.485 L53.393,46.199 L53.74,46.466 L53.577,47.146 L54.292,47.022 L54.557,47.368 L54.232,47.966 L54.947,48.048 L55.112,48.452 L54.658,48.941 L55.313,49.208 L55.369,49.641 L54.793,49.995 L55.367,50.425 L55.308,50.858 L54.652,51.048 L55.103,51.613 L54.935,52.016 L54.242,52.029 L54.541,52.692 L54.273,53.038 L53.592,52.87 L53.722,53.554 L53.375,53.819 L52.747,53.514 L52.696,54.208 L52.291,54.374 L51.763,53.918 L51.533,54.573 L51.101,54.629 L50.71,54.053 L50.317,54.627 L49.884,54.569 L49.659,53.887 L49.127,54.363 L48.725,54.195 L48.691,53.483 L48.047,53.801 L47.701,53.534 L47.834,52.851 L47.148,52.978 L46.883,52.632 L47.209,51.991 L46.49,51.989 L46.323,51.585 L46.833,51.011 L46.123,50.828 L46.067,50.395 L46.699,49.969 L46.069,49.612 L46.128,49.179 L46.84,48.928 L46.332,48.423 L46.501,48.021 L47.244,47.96 L46.895,47.344 L47.162,46.998 L47.887,47.128 L47.718,46.446 L48.065,46.181 L48.722,46.492 L48.745,45.792 L49.149,45.626 L49.693,46.092 L49.907,45.427 L50.34,45.371 L50.735,45.959 L51.123,45.373 L51.557,45.431 L51.779,46.075 L52.313,45.637 L52.716,45.805 z" fill-opacity="0" stroke="#FFFED0" stroke-width="0.5"/>
        </g>
      </g>
    </g>
  </g>
</svg>
