<?xml version="1.0" encoding="UTF-8"?>
<!DOCTYPE svg PUBLIC "-//W3C//DTD SVG 1.1//EN" "http://www.w3.org/Graphics/SVG/1.1/DTD/svg11.dtd">
<svg version="1.1" xmlns="http://www.w3.org/2000/svg" xmlns:xlink="http://www.w3.org/1999/xlink" x="0" y="0" width="100" height="100" viewBox="0, 0, 100, 100">
  <g id="Layer_1">
    <path d="M50.094,27.452 C50.448,27.454 50.8,27.463 51.15,27.479 C51.533,27.496 51.854,27.771 51.941,28.145 L52.496,30.518 C52.58,30.877 52.879,31.143 53.243,31.198 C53.62,31.255 53.993,31.322 54.364,31.399 C54.713,31.471 55.076,31.336 55.282,31.045 L56.729,29.007 C56.947,28.7 57.337,28.564 57.695,28.682 C58.671,29.004 59.62,29.386 60.537,29.822 C60.883,29.987 61.072,30.363 61.008,30.741 L60.61,33.122 C60.55,33.484 60.722,33.844 61.035,34.036 C61.4,34.258 61.756,34.491 62.105,34.734 C62.4,34.939 62.789,34.957 63.094,34.767 L65.089,33.529 C65.435,33.314 65.883,33.366 66.171,33.654 L68.206,35.689 C68.495,35.977 68.546,36.426 68.331,36.772 L67.128,38.71 C66.936,39.021 66.957,39.416 67.17,39.712 C67.422,40.06 67.663,40.415 67.893,40.778 C68.086,41.083 68.441,41.25 68.797,41.191 L71.064,40.815 C71.466,40.749 71.861,40.968 72.017,41.344 L73.122,44.002 C73.278,44.378 73.155,44.812 72.824,45.05 L70.969,46.385 C70.675,46.597 70.543,46.967 70.624,47.32 C70.712,47.703 70.789,48.091 70.856,48.482 C70.92,48.853 71.202,49.151 71.572,49.22 L73.795,49.636 C74.181,49.709 74.473,50.028 74.498,50.42 C74.531,50.942 74.548,51.469 74.548,52 C74.548,52.702 74.518,53.398 74.46,54.085 C74.428,54.47 74.138,54.78 73.759,54.851 L71.505,55.273 C71.14,55.342 70.86,55.632 70.791,55.996 C70.728,56.329 70.658,56.659 70.58,56.985 C70.494,57.342 70.628,57.718 70.927,57.931 L72.809,59.269 C73.122,59.491 73.255,59.892 73.126,60.253 C72.777,61.232 72.367,62.182 71.901,63.099 C71.732,63.433 71.363,63.612 70.993,63.551 L68.647,63.16 C68.295,63.101 67.944,63.263 67.749,63.562 C67.537,63.887 67.317,64.205 67.089,64.516 C66.871,64.813 66.85,65.213 67.045,65.525 L68.26,67.469 C68.464,67.795 68.433,68.216 68.175,68.501 C67.464,69.283 66.704,70.019 65.898,70.704 C65.614,70.947 65.205,70.97 64.888,70.772 L62.867,69.508 C62.566,69.32 62.18,69.334 61.886,69.533 C61.615,69.717 61.34,69.894 61.061,70.065 C60.747,70.257 60.575,70.618 60.637,70.98 L61.02,73.252 C61.084,73.629 60.896,74.006 60.55,74.171 C59.58,74.634 58.575,75.034 57.54,75.368 C57.185,75.483 56.799,75.348 56.582,75.044 L55.185,73.089 C54.979,72.801 54.619,72.666 54.271,72.737 C53.959,72.8 53.645,72.856 53.327,72.906 C52.965,72.962 52.668,73.228 52.585,73.584 L52.054,75.849 C51.967,76.222 51.649,76.496 51.267,76.516 C50.848,76.537 50.425,76.548 50,76.548 C49.321,76.548 48.649,76.52 47.984,76.466 C47.613,76.436 47.308,76.165 47.223,75.802 L46.669,73.433 C46.588,73.089 46.308,72.828 45.962,72.76 C45.721,72.713 45.482,72.661 45.245,72.606 C44.891,72.523 44.518,72.656 44.306,72.952 L42.926,74.88 C42.704,75.189 42.309,75.322 41.95,75.197 C40.894,74.831 39.871,74.394 38.885,73.893 C38.553,73.724 38.374,73.357 38.434,72.988 L38.83,70.56 C38.887,70.211 38.727,69.863 38.432,69.668 C38.239,69.54 38.047,69.409 37.858,69.275 C37.563,69.065 37.171,69.046 36.863,69.237 L34.808,70.512 C34.487,70.712 34.073,70.684 33.789,70.434 C32.95,69.695 32.161,68.9 31.429,68.054 C31.183,67.77 31.157,67.359 31.355,67.04 L32.66,64.938 C32.848,64.635 32.832,64.25 32.631,63.956 C32.517,63.79 32.406,63.621 32.296,63.451 C32.103,63.15 31.75,62.985 31.396,63.044 L28.954,63.448 C28.584,63.51 28.214,63.328 28.045,62.993 C27.548,62.001 27.115,60.97 26.754,59.907 C26.632,59.55 26.765,59.158 27.071,58.937 L29.093,57.482 C29.384,57.273 29.516,56.909 29.44,56.558 C29.398,56.366 29.359,56.172 29.322,55.977 C29.257,55.627 28.995,55.344 28.648,55.262 L26.191,54.687 C25.827,54.602 25.555,54.296 25.526,53.923 C25.477,53.288 25.452,52.647 25.452,52 C25.452,51.524 25.466,51.052 25.492,50.583 C25.514,50.204 25.788,49.888 26.158,49.801 L28.58,49.235 C28.933,49.152 29.197,48.861 29.257,48.504 C29.293,48.29 29.333,48.078 29.376,47.866 C29.446,47.519 29.312,47.16 29.024,46.954 L26.941,45.463 C26.638,45.246 26.504,44.861 26.617,44.506 C26.954,43.456 27.359,42.436 27.827,41.453 C27.991,41.108 28.366,40.92 28.742,40.981 L31.203,41.382 C31.562,41.441 31.918,41.271 32.109,40.962 C32.25,40.735 32.395,40.511 32.543,40.29 C32.741,39.996 32.755,39.614 32.568,39.313 L31.211,37.128 C31.015,36.811 31.039,36.404 31.28,36.12 C31.975,35.302 32.722,34.53 33.517,33.809 C33.8,33.552 34.22,33.521 34.545,33.723 L36.653,35.031 C36.964,35.224 37.361,35.202 37.656,34.987 C37.893,34.815 38.132,34.648 38.376,34.486 C38.67,34.29 38.828,33.942 38.77,33.593 L38.35,31.056 C38.29,30.689 38.467,30.321 38.799,30.151 C39.727,29.674 40.689,29.255 41.68,28.898 C42.04,28.768 42.44,28.899 42.664,29.21 L44.106,31.215 C44.32,31.512 44.696,31.643 45.052,31.557 C45.381,31.477 45.713,31.404 46.047,31.34 C46.395,31.273 46.677,31.012 46.758,30.666 L47.337,28.189 C47.423,27.825 47.73,27.553 48.103,27.524 C48.698,27.479 49.299,27.455 49.906,27.452 L50.094,27.452 z M50,47.299 C47.192,47.299 44.915,49.575 44.915,52.384 C44.915,55.192 47.192,57.469 50,57.468 C52.808,57.469 55.085,55.192 55.085,52.384 C55.085,49.575 52.808,47.299 50,47.299 z" fill-opacity="0" stroke="#FFFED0" stroke-width="1.75"/>
    <path d="M50.094,27.452 C50.448,27.454 50.8,27.463 51.15,27.479 C51.533,27.496 51.854,27.771 51.941,28.145 L52.496,30.518 C52.58,30.877 52.879,31.143 53.243,31.198 C53.62,31.255 53.993,31.322 54.364,31.399 C54.713,31.471 55.076,31.336 55.282,31.045 L56.729,29.007 C56.947,28.7 57.337,28.564 57.695,28.682 C58.671,29.004 59.62,29.386 60.537,29.822 C60.883,29.987 61.072,30.363 61.008,30.741 L60.61,33.122 C60.55,33.484 60.722,33.844 61.035,34.036 C61.4,34.258 61.756,34.491 62.105,34.734 C62.4,34.939 62.789,34.957 63.094,34.767 L65.089,33.529 C65.435,33.314 65.883,33.366 66.171,33.654 L68.206,35.689 C68.495,35.977 68.546,36.426 68.331,36.772 L67.128,38.71 C66.936,39.021 66.957,39.416 67.17,39.712 C67.422,40.06 67.663,40.415 67.893,40.778 C68.086,41.083 68.441,41.25 68.797,41.191 L71.064,40.815 C71.466,40.749 71.861,40.968 72.017,41.344 L73.122,44.002 C73.278,44.378 73.155,44.812 72.824,45.05 L70.969,46.385 C70.675,46.597 70.543,46.967 70.624,47.32 C70.712,47.703 70.789,48.091 70.856,48.482 C70.92,48.853 71.202,49.151 71.572,49.22 L73.795,49.636 C74.181,49.709 74.473,50.028 74.498,50.42 C74.531,50.942 74.548,51.469 74.548,52 C74.548,52.702 74.518,53.398 74.46,54.085 C74.428,54.47 74.138,54.78 73.759,54.851 L71.505,55.273 C71.14,55.342 70.86,55.632 70.791,55.996 C70.728,56.329 70.658,56.659 70.58,56.985 C70.494,57.342 70.628,57.718 70.927,57.931 L72.809,59.269 C73.122,59.491 73.255,59.892 73.126,60.253 C72.777,61.232 72.367,62.182 71.901,63.099 C71.732,63.433 71.363,63.612 70.993,63.551 L68.647,63.16 C68.295,63.101 67.944,63.263 67.749,63.562 C67.537,63.887 67.317,64.205 67.089,64.516 C66.871,64.813 66.85,65.213 67.045,65.525 L68.26,67.469 C68.464,67.795 68.433,68.216 68.175,68.501 C67.464,69.283 66.704,70.019 65.898,70.704 C65.614,70.947 65.205,70.97 64.888,70.772 L62.867,69.508 C62.566,69.32 62.18,69.334 61.886,69.533 C61.615,69.717 61.34,69.894 61.061,70.065 C60.747,70.257 60.575,70.618 60.637,70.98 L61.02,73.252 C61.084,73.629 60.896,74.006 60.55,74.171 C59.58,74.634 58.575,75.034 57.54,75.368 C57.185,75.483 56.799,75.348 56.582,75.044 L55.185,73.089 C54.979,72.801 54.619,72.666 54.271,72.737 C53.959,72.8 53.645,72.856 53.327,72.906 C52.965,72.962 52.668,73.228 52.585,73.584 L52.054,75.849 C51.967,76.222 51.649,76.496 51.267,76.516 C50.848,76.537 50.425,76.548 50,76.548 C49.321,76.548 48.649,76.52 47.984,76.466 C47.613,76.436 47.308,76.165 47.223,75.802 L46.669,73.433 C46.588,73.089 46.308,72.828 45.962,72.76 C45.721,72.713 45.482,72.661 45.245,72.606 C44.891,72.523 44.518,72.656 44.306,72.952 L42.926,74.88 C42.704,75.189 42.309,75.322 41.95,75.197 C40.894,74.831 39.871,74.394 38.885,73.893 C38.553,73.724 38.374,73.357 38.434,72.988 L38.83,70.56 C38.887,70.211 38.727,69.863 38.432,69.668 C38.239,69.54 38.047,69.409 37.858,69.275 C37.563,69.065 37.171,69.046 36.863,69.237 L34.808,70.512 C34.487,70.712 34.073,70.684 33.789,70.434 C32.95,69.695 32.161,68.9 31.429,68.054 C31.183,67.77 31.157,67.359 31.355,67.04 L32.66,64.938 C32.848,64.635 32.832,64.25 32.631,63.956 C32.517,63.79 32.406,63.621 32.296,63.451 C32.103,63.15 31.75,62.985 31.396,63.044 L28.954,63.448 C28.584,63.51 28.214,63.328 28.045,62.993 C27.548,62.001 27.115,60.97 26.754,59.907 C26.632,59.55 26.765,59.158 27.071,58.937 L29.093,57.482 C29.384,57.273 29.516,56.909 29.44,56.558 C29.398,56.366 29.359,56.172 29.322,55.977 C29.257,55.627 28.995,55.344 28.648,55.262 L26.191,54.687 C25.827,54.602 25.555,54.296 25.526,53.923 C25.477,53.288 25.452,52.647 25.452,52 C25.452,51.524 25.466,51.052 25.492,50.583 C25.514,50.204 25.788,49.888 26.158,49.801 L28.58,49.235 C28.933,49.152 29.197,48.861 29.257,48.504 C29.293,48.29 29.333,48.078 29.376,47.866 C29.446,47.519 29.312,47.16 29.024,46.954 L26.941,45.463 C26.638,45.246 26.504,44.861 26.617,44.506 C26.954,43.456 27.359,42.436 27.827,41.453 C27.991,41.108 28.366,40.92 28.742,40.981 L31.203,41.382 C31.562,41.441 31.918,41.271 32.109,40.962 C32.25,40.735 32.395,40.511 32.543,40.29 C32.741,39.996 32.755,39.614 32.568,39.313 L31.211,37.128 C31.015,36.811 31.039,36.404 31.28,36.12 C31.975,35.302 32.722,34.53 33.517,33.809 C33.8,33.552 34.22,33.521 34.545,33.723 L36.653,35.031 C36.964,35.224 37.361,35.202 37.656,34.987 C37.893,34.815 38.132,34.648 38.376,34.486 C38.67,34.29 38.828,33.942 38.77,33.593 L38.35,31.056 C38.29,30.689 38.467,30.321 38.799,30.151 C39.727,29.674 40.689,29.255 41.68,28.898 C42.04,28.768 42.44,28.899 42.664,29.21 L44.106,31.215 C44.32,31.512 44.696,31.643 45.052,31.557 C45.381,31.477 45.713,31.404 46.047,31.34 C46.395,31.273 46.677,31.012 46.758,30.666 L47.337,28.189 C47.423,27.825 47.73,27.553 48.103,27.524 C48.698,27.479 49.299,27.455 49.906,27.452 L50.094,27.452 z M50,47.299 C47.192,47.299 44.915,49.575 44.915,52.384 C44.915,55.192 47.192,57.469 50,57.468 C52.808,57.469 55.085,55.192 55.085,52.384 C55.085,49.575 52.808,47.299 50,47.299 z" fill="#000000"/>
  </g>
</svg>
