<?xml version="1.0" encoding="UTF-8"?>
<!DOCTYPE svg PUBLIC "-//W3C//DTD SVG 1.1//EN" "http://www.w3.org/Graphics/SVG/1.1/DTD/svg11.dtd">
<svg version="1.1" xmlns="http://www.w3.org/2000/svg" xmlns:xlink="http://www.w3.org/1999/xlink" x="0" y="0" width="100" height="100" viewBox="0, 0, 100, 100">
  <g id="Layer_1">
    <path d="M36.49,31.98 C31.687,37.035 29.049,43.735 29.092,50.724 C29.092,64.415 38.677,75.513 50.5,75.513 C62.324,75.513 71.909,64.415 71.909,50.724 C71.829,43.422 69.355,36.492 63.916,31.487 L59.161,38.452 C61.989,41.802 63.005,45.77 63.09,50.098 C63.09,58.985 57.449,66.189 50.491,66.189 C43.533,66.189 37.892,58.985 37.892,50.098 C37.868,46.093 39.571,42.039 41.726,38.704 L36.502,31.959" fill-opacity="0" stroke="#FFFED0" stroke-width="1.75" stroke-linecap="round" stroke-linejoin="round"/>
    <path d="M36.49,31.98 C31.687,37.035 29.049,43.735 29.092,50.724 C29.092,64.415 38.677,75.513 50.5,75.513 C62.324,75.513 71.909,64.415 71.909,50.724 C71.829,43.422 69.355,36.492 63.916,31.487 L59.161,38.452 C61.989,41.802 63.005,45.77 63.09,50.098 C63.09,58.985 57.449,66.189 50.491,66.189 C43.533,66.189 37.892,58.985 37.892,50.098 C37.868,46.093 39.571,42.039 41.726,38.704 L36.502,31.959" fill="#000000"/>
    <path d="M59.255,67.56 C59.529,67.56 59.751,67.338 59.751,67.064 C59.751,66.79 59.529,66.568 59.255,66.568 C58.981,66.568 58.759,66.79 58.759,67.064 C58.759,67.338 58.981,67.56 59.255,67.56 z" fill-opacity="0" stroke="#FFFED0" stroke-width="1"/>
    <path d="M50.282,70.668 C50.556,70.668 50.778,70.445 50.778,70.172 C50.778,69.898 50.556,69.675 50.282,69.675 C50.008,69.675 49.786,69.898 49.786,70.172 C49.786,70.445 50.008,70.668 50.282,70.668 z" fill-opacity="0" stroke="#FFFED0" stroke-width="1"/>
    <path d="M65.073,61.544 C65.347,61.544 65.569,61.321 65.569,61.048 C65.569,60.774 65.347,60.551 65.073,60.551 C64.799,60.551 64.578,60.774 64.578,61.048 C64.578,61.321 64.799,61.544 65.073,61.544 z" fill-opacity="0" stroke="#FFFED0" stroke-width="1"/>
    <path d="M67.123,52.353 C67.397,52.353 67.619,52.131 67.619,51.857 C67.619,51.583 67.397,51.361 67.123,51.361 C66.849,51.361 66.627,51.583 66.627,51.857 C66.627,52.131 66.849,52.353 67.123,52.353 z" fill-opacity="0" stroke="#FFFED0" stroke-width="1"/>
    <path d="M66.395,43.89 C66.669,43.89 66.891,43.668 66.891,43.394 C66.891,43.12 66.669,42.898 66.395,42.898 C66.121,42.898 65.9,43.12 65.9,43.394 C65.9,43.668 66.121,43.89 66.395,43.89 z" fill-opacity="0" stroke="#FFFED0" stroke-width="1"/>
    <path d="M41.746,67.56 C41.472,67.56 41.25,67.338 41.25,67.064 C41.25,66.79 41.472,66.568 41.746,66.568 C42.02,66.568 42.241,66.79 42.241,67.064 C42.241,67.338 42.02,67.56 41.746,67.56 z" fill-opacity="0" stroke="#FFFED0" stroke-width="1"/>
    <path d="M35.927,61.544 C35.653,61.544 35.431,61.321 35.431,61.048 C35.431,60.774 35.653,60.551 35.927,60.551 C36.201,60.551 36.423,60.774 36.423,61.048 C36.423,61.321 36.201,61.544 35.927,61.544 z" fill-opacity="0" stroke="#FFFED0" stroke-width="1"/>
    <path d="M33.878,52.353 C33.604,52.353 33.382,52.131 33.382,51.857 C33.382,51.583 33.604,51.361 33.878,51.361 C34.152,51.361 34.373,51.583 34.373,51.857 C34.373,52.131 34.152,52.353 33.878,52.353 z" fill-opacity="0" stroke="#FFFED0" stroke-width="1"/>
    <path d="M34.605,43.89 C34.331,43.89 34.109,43.668 34.109,43.394 C34.109,43.12 34.331,42.898 34.605,42.898 C34.879,42.898 35.101,43.12 35.101,43.394 C35.101,43.668 34.879,43.89 34.605,43.89 z" fill-opacity="0" stroke="#FFFED0" stroke-width="1"/>
  </g>
</svg>
