<?xml version="1.0" encoding="UTF-8"?>
<!DOCTYPE svg PUBLIC "-//W3C//DTD SVG 1.1//EN" "http://www.w3.org/Graphics/SVG/1.1/DTD/svg11.dtd">
<svg version="1.1" xmlns="http://www.w3.org/2000/svg" xmlns:xlink="http://www.w3.org/1999/xlink" x="0" y="0" width="100" height="100" viewBox="0, 0, 100, 100">
  <g id="Layer_1">
    <path d="M40.083,62.789 L47.563,62.789 L47.563,77.809 L40.083,77.809 L40.083,72.744 L43.486,72.741 L43.486,68.115 L40.083,68.115 L40.083,62.789 z" fill-opacity="0" stroke="#FFFED0" stroke-width="1.5" stroke-linecap="round" stroke-linejoin="round"/>
    <path d="M40.083,62.789 L47.563,62.789 L47.563,77.809 L40.083,77.809 L40.083,72.744 L43.486,72.741 L43.486,68.115 L40.083,68.115 L40.083,62.789 z" fill="#000000"/>
    <g>
      <path d="M44.887,63.857 L45.294,63.857 L45.294,75.832 L44.887,75.832 L44.887,63.857 z" fill="#000000"/>
      <path d="M44.887,63.857 L45.294,63.857 L45.294,75.832 L44.887,75.832 L44.887,63.857 z" fill-opacity="0" stroke="#FFFED0" stroke-width="1" stroke-linecap="round" stroke-linejoin="round"/>
    </g>
    <path d="M41.551,63.857 L45.294,63.857 L45.294,66.051 L41.551,66.051 L41.551,63.857 z" fill-opacity="0" stroke="#FFFED0" stroke-width="1" stroke-linecap="round" stroke-linejoin="round"/>
    <path d="M41.551,73.638 L45.294,73.638 L45.294,75.832 L41.551,75.832 L41.551,73.638 z" fill-opacity="0" stroke="#FFFED0" stroke-width="1" stroke-linecap="round" stroke-linejoin="round"/>
    <path d="M42.221,64.491 L44.227,64.491 L44.227,65.417 L42.221,65.417 L42.221,64.491 z" fill-opacity="0" stroke="#FFFED0" stroke-width="1" stroke-linecap="round" stroke-linejoin="round"/>
    <g>
      <path d="M47.563,46.908 L53.437,46.908 L53.437,80.181 L47.563,80.181 L47.563,46.908 z" fill="#000000"/>
      <path d="M47.563,46.908 L53.437,46.908 L53.437,80.181 L47.563,80.181 L47.563,46.908 z" fill-opacity="0" stroke="#FFFED0" stroke-width="1" stroke-linecap="round" stroke-linejoin="round"/>
    </g>
    <g>
      <path d="M47.563,46.908 L53.437,46.908 L53.437,80.181 L47.563,80.181 L47.563,46.908 z" fill="#000000"/>
      <path d="M47.563,46.908 L53.437,46.908 L53.437,80.181 L47.563,80.181 L47.563,46.908 z" fill-opacity="0" stroke="#FFFED0" stroke-width="1" stroke-linecap="round" stroke-linejoin="round"/>
    </g>
    <g>
      <path d="M51.503,50.583 L51.555,78.145" fill="#000000"/>
      <path d="M51.503,50.583 L51.555,78.145" fill-opacity="0" stroke="#FFFED0" stroke-width="1" stroke-linecap="round" stroke-linejoin="round"/>
    </g>
    <path d="M42.221,74.272 L44.227,74.272 L44.227,75.198 L42.221,75.198 L42.221,74.272 z" fill-opacity="0" stroke="#FFFED0" stroke-width="1" stroke-linecap="round" stroke-linejoin="round"/>
    <g>
      <path d="M58.596,24.819 C62.014,24.819 64.785,27.77 64.785,31.41 L64.785,40.317 C64.785,43.957 62.014,46.908 58.596,46.908 L42.404,46.908 C38.986,46.908 36.215,43.957 36.215,40.317 L36.215,31.41 C36.215,27.77 38.986,24.819 42.404,24.819 L58.596,24.819 z M56.193,29.594 L44.807,29.594 C43.425,29.594 42.305,30.924 42.305,32.565 L42.305,39.235 C42.305,40.877 43.425,42.207 44.807,42.207 L56.193,42.207 C57.575,42.207 58.695,40.877 58.695,39.235 L58.695,32.565 C58.695,30.924 57.575,29.594 56.193,29.594 z" fill="#000000"/>
      <path d="M58.596,24.819 C62.014,24.819 64.785,27.77 64.785,31.41 L64.785,40.317 C64.785,43.957 62.014,46.908 58.596,46.908 L42.404,46.908 C38.986,46.908 36.215,43.957 36.215,40.317 L36.215,31.41 C36.215,27.77 38.986,24.819 42.404,24.819 L58.596,24.819 z M56.193,29.594 L44.807,29.594 C43.425,29.594 42.305,30.924 42.305,32.565 L42.305,39.235 C42.305,40.877 43.425,42.207 44.807,42.207 L56.193,42.207 C57.575,42.207 58.695,40.877 58.695,39.235 L58.695,32.565 C58.695,30.924 57.575,29.594 56.193,29.594 z" fill-opacity="0" stroke="#FFFED0" stroke-width="1" stroke-linecap="round" stroke-linejoin="round"/>
    </g>
    <g>
      <path d="M58.596,24.819 C62.014,24.819 64.785,27.77 64.785,31.41 L64.785,40.317 C64.785,43.957 62.014,46.908 58.596,46.908 L42.404,46.908 C38.986,46.908 36.215,43.957 36.215,40.317 L36.215,31.41 C36.215,27.77 38.986,24.819 42.404,24.819 L58.596,24.819 z M56.193,29.594 L44.807,29.594 C43.425,29.594 42.305,30.924 42.305,32.565 L42.305,39.235 C42.305,40.877 43.425,42.207 44.807,42.207 L56.193,42.207 C57.575,42.207 58.695,40.877 58.695,39.235 L58.695,32.565 C58.695,30.924 57.575,29.594 56.193,29.594 z" fill="#000000"/>
      <path d="M58.596,24.819 C62.014,24.819 64.785,27.77 64.785,31.41 L64.785,40.317 C64.785,43.957 62.014,46.908 58.596,46.908 L42.404,46.908 C38.986,46.908 36.215,43.957 36.215,40.317 L36.215,31.41 C36.215,27.77 38.986,24.819 42.404,24.819 L58.596,24.819 z M56.193,29.594 L44.807,29.594 C43.425,29.594 42.305,30.924 42.305,32.565 L42.305,39.235 C42.305,40.877 43.425,42.207 44.807,42.207 L56.193,42.207 C57.575,42.207 58.695,40.877 58.695,39.235 L58.695,32.565 C58.695,30.924 57.575,29.594 56.193,29.594 z" fill-opacity="0" stroke="#FFFED0" stroke-width="1" stroke-linecap="round" stroke-linejoin="round"/>
    </g>
    <path d="M40.711,32.455 C40.711,32.623 40.689,38.12 40.689,38.281 C40.692,39.455 40.719,40.443 40.966,41.102 C41.475,42.46 42.348,43.085 42.954,43.406 C43.779,43.843 44.351,43.898 47.383,43.874" fill-opacity="0" stroke="#FFFED0" stroke-width="1" stroke-linecap="round" stroke-linejoin="round"/>
    <path d="M40.711,39.432 C40.711,39.264 40.689,33.767 40.689,33.605 C40.692,32.431 40.719,31.444 40.966,30.785 C41.475,29.426 42.348,28.802 42.954,28.48 C43.779,28.044 44.351,27.989 47.383,28.013" fill-opacity="0" stroke="#FFFED0" stroke-width="1" stroke-linecap="round" stroke-linejoin="round"/>
    <path d="M56.423,26.774 C57.814,26.774 58.874,26.764 59.634,27.017 C60.834,27.417 61.744,28.368 62.25,29.212 C62.794,30.118 62.927,30.783 62.945,33.48 C62.946,33.718 62.881,40.01 62.881,40.281" fill-opacity="0" stroke="#FFFED0" stroke-width="1" stroke-linecap="round" stroke-linejoin="round"/>
    <path d="M56.423,44.92 C57.814,44.92 58.874,44.93 59.634,44.677 C60.834,44.277 61.744,43.326 62.25,42.482 C62.794,41.576 62.927,40.91 62.945,38.214 C62.946,37.976 62.91,32.383 62.91,32.112" fill-opacity="0" stroke="#FFFED0" stroke-width="1" stroke-linecap="round" stroke-linejoin="round"/>
  </g>
</svg>
