<?xml version="1.0" encoding="UTF-8"?>
<!DOCTYPE svg PUBLIC "-//W3C//DTD SVG 1.1//EN" "http://www.w3.org/Graphics/SVG/1.1/DTD/svg11.dtd">
<svg version="1.1" xmlns="http://www.w3.org/2000/svg" xmlns:xlink="http://www.w3.org/1999/xlink" x="0" y="0" width="100" height="100" viewBox="0, 0, 100, 100">
  <g id="Layer_1">
    <path d="M49.456,32.265 L51.756,32.265 L51.756,80.896 L53.601,82.657 L47.611,82.657 L49.456,80.899 L49.456,32.265 z" fill="#000000"/>
    <path d="M49.456,32.265 L51.756,32.265 L51.756,80.896 L53.601,82.657 L47.611,82.657 L49.456,80.899 L49.456,32.265 z" fill-opacity="0" stroke="#FFFED0" stroke-width="1" stroke-linecap="round" stroke-linejoin="round"/>
    <path d="M50.361,22.765 C50.361,22.766 55.568,27.912 60.057,34.561 C60.057,34.561 61.053,35.782 61.265,37.978 C61.478,40.174 58.861,42.579 60.486,44.92 C61.703,46.673 63.789,46.39 65.17,45.772 C65.93,49.128 65.759,51.013 65.245,52.642 C64.399,55.321 63.261,55.759 63.19,57.034 C63.119,58.309 63.899,59.371 65.349,59.444 C64.981,61.169 65.246,60.113 64.414,62.572 C61.002,70.465 50.607,73.789 50.607,73.789 C50.607,73.789 39.995,70.132 36.8,62.572 C36.062,60.321 36.335,61.379 35.923,59.412 C37.195,58.936 37.83,58.663 37.901,57.175 C37.965,55.824 36.98,55.334 35.988,52.925 C35.02,50.573 35.258,48.604 35.693,46.196 C37.734,47.273 40.517,46.582 41.128,44.28 C41.465,42.247 40.189,40.543 39.943,38.403 C39.787,37.05 40.68,35.386 41.393,34.228 C46.043,27.33 50.361,22.766 50.361,22.766 L50.361,22.765 z" fill-opacity="0" stroke="#FFFED0" stroke-width="1.75" stroke-linecap="round" stroke-linejoin="round"/>
    <path d="M50.361,22.765 C50.361,22.766 55.568,27.912 60.057,34.561 C60.057,34.561 61.053,35.782 61.265,37.978 C61.478,40.174 58.861,42.579 60.486,44.92 C61.703,46.673 63.789,46.39 65.17,45.772 C65.93,49.128 65.759,51.013 65.245,52.642 C64.399,55.321 63.261,55.759 63.19,57.034 C63.119,58.309 63.899,59.371 65.349,59.444 C64.981,61.169 65.246,60.113 64.414,62.572 C61.002,70.465 50.607,73.789 50.607,73.789 C50.607,73.789 39.995,70.132 36.8,62.572 C36.062,60.321 36.335,61.379 35.923,59.412 C37.195,58.936 37.83,58.663 37.901,57.175 C37.965,55.824 36.98,55.334 35.988,52.925 C35.02,50.573 35.258,48.604 35.693,46.196 C37.734,47.273 40.517,46.582 41.128,44.28 C41.465,42.247 40.189,40.543 39.943,38.403 C39.787,37.05 40.68,35.386 41.393,34.228 C46.043,27.33 50.361,22.766 50.361,22.766 L50.361,22.765 z" fill="#000000"/>
    <path d="M50.371,30.948 L50.607,69.89" fill-opacity="0" stroke="#FFFED0" stroke-width="1" stroke-linecap="round" stroke-linejoin="round"/>
    <path d="M41.392,55.172 L50.606,64.481 L59.82,55.172" fill-opacity="0" stroke="#FFFED0" stroke-width="1" stroke-linecap="round" stroke-linejoin="round"/>
    <path d="M45.327,41.566 L50.489,47.835 L55.651,41.566" fill-opacity="0" stroke="#FFFED0" stroke-width="1" stroke-linecap="round" stroke-linejoin="round"/>
  </g>
</svg>
