<?xml version="1.0" encoding="UTF-8"?>
<!DOCTYPE svg PUBLIC "-//W3C//DTD SVG 1.1//EN" "http://www.w3.org/Graphics/SVG/1.1/DTD/svg11.dtd">
<svg version="1.1" xmlns="http://www.w3.org/2000/svg" xmlns:xlink="http://www.w3.org/1999/xlink" x="0" y="0" width="100" height="100" viewBox="0, 0, 100, 100">
  <g id="Layer_1">
    <g>
      <g>
        <path d="M45.911,42.241 L54.881,42.241 C54.881,42.241 54.13,59.931 54.881,64.629 C55.638,69.366 60.122,74.339 54.881,75.754 C51.802,76.585 48.524,76.509 45.911,75.754 C41.182,74.387 45.283,69.359 45.911,64.835 C46.581,59.997 45.911,42.241 45.911,42.241 z" fill="#000000"/>
        <path d="M45.911,42.241 L54.881,42.241 C54.881,42.241 54.13,59.931 54.881,64.629 C55.638,69.366 60.122,74.339 54.881,75.754 C51.802,76.585 48.524,76.509 45.911,75.754 C41.182,74.387 45.283,69.359 45.911,64.835 C46.581,59.997 45.911,42.241 45.911,42.241 z" fill-opacity="0" stroke="#FFFED0" stroke-width="1"/>
      </g>
      <g>
        <path d="M45.911,42.241 L54.881,42.241 C54.881,42.241 54.13,59.931 54.881,64.629 C55.638,69.366 60.122,74.339 54.881,75.754 C51.802,76.585 48.524,76.509 45.911,75.754 C41.182,74.387 45.283,69.359 45.911,64.835 C46.581,59.997 45.911,42.241 45.911,42.241 z" fill="#000000"/>
        <path d="M45.911,42.241 L54.881,42.241 C54.881,42.241 54.13,59.931 54.881,64.629 C55.638,69.366 60.122,74.339 54.881,75.754 C51.802,76.585 48.524,76.509 45.911,75.754 C41.182,74.387 45.283,69.359 45.911,64.835 C46.581,59.997 45.911,42.241 45.911,42.241 z" fill-opacity="0" stroke="#FFFED0" stroke-width="1"/>
      </g>
    </g>
    <g>
      <g>
        <path d="M50,48.358 C38.394,48.358 28.985,44.882 28.985,40.593 C28.985,36.305 45.627,29.026 49.91,28.835 C54.192,28.645 71.016,36.305 71.016,40.593 C71.016,44.882 61.606,48.358 50,48.358 z" fill="#000000"/>
        <path d="M50,48.358 C38.394,48.358 28.985,44.882 28.985,40.593 C28.985,36.305 45.627,29.026 49.91,28.835 C54.192,28.645 71.016,36.305 71.016,40.593 C71.016,44.882 61.606,48.358 50,48.358 z" fill-opacity="0" stroke="#FFFED0" stroke-width="1"/>
      </g>
      <g>
        <path d="M50,48.358 C38.394,48.358 28.985,44.882 28.985,40.593 C28.985,36.305 45.627,29.026 49.91,28.835 C54.192,28.645 71.016,36.305 71.016,40.593 C71.016,44.882 61.606,48.358 50,48.358 z" fill="#000000"/>
        <path d="M50,48.358 C38.394,48.358 28.985,44.882 28.985,40.593 C28.985,36.305 45.627,29.026 49.91,28.835 C54.192,28.645 71.016,36.305 71.016,40.593 C71.016,44.882 61.606,48.358 50,48.358 z" fill-opacity="0" stroke="#FFFED0" stroke-width="1"/>
      </g>
    </g>
    <g>
      <g>
        <path d="M61.291,59.402 L65.324,60.527 C65.324,60.527 62.856,68.071 62.628,70.194 C62.398,72.335 63.815,75.045 61.288,74.998 C59.803,74.971 58.339,74.527 57.255,73.873 C55.293,72.69 57.743,71.033 58.57,69.158 C59.454,67.153 61.291,59.402 61.291,59.402 z" fill="#000000"/>
        <path d="M61.291,59.402 L65.324,60.527 C65.324,60.527 62.856,68.071 62.628,70.194 C62.398,72.335 63.815,75.045 61.288,74.998 C59.803,74.971 58.339,74.527 57.255,73.873 C55.293,72.69 57.743,71.033 58.57,69.158 C59.454,67.153 61.291,59.402 61.291,59.402 z" fill-opacity="0" stroke="#FFFED0" stroke-width="1"/>
      </g>
      <g>
        <path d="M61.291,59.402 L65.324,60.527 C65.324,60.527 62.856,68.071 62.628,70.194 C62.398,72.335 63.815,75.045 61.288,74.998 C59.803,74.971 58.339,74.527 57.255,73.873 C55.293,72.69 57.743,71.033 58.57,69.158 C59.454,67.153 61.291,59.402 61.291,59.402 z" fill="#000000"/>
        <path d="M61.291,59.402 L65.324,60.527 C65.324,60.527 62.856,68.071 62.628,70.194 C62.398,72.335 63.815,75.045 61.288,74.998 C59.803,74.971 58.339,74.527 57.255,73.873 C55.293,72.69 57.743,71.033 58.57,69.158 C59.454,67.153 61.291,59.402 61.291,59.402 z" fill-opacity="0" stroke="#FFFED0" stroke-width="1"/>
      </g>
    </g>
    <g>
      <g>
        <path d="M62.563,62.633 C57.345,61.178 53.551,58.435 54.088,56.507 C54.626,54.578 60.689,53.083 64.959,54.274 C69.23,55.465 73.524,59.85 72.986,61.778 C72.448,63.706 67.782,64.089 62.563,62.633 z" fill="#000000"/>
        <path d="M62.563,62.633 C57.345,61.178 53.551,58.435 54.088,56.507 C54.626,54.578 60.689,53.083 64.959,54.274 C69.23,55.465 73.524,59.85 72.986,61.778 C72.448,63.706 67.782,64.089 62.563,62.633 z" fill-opacity="0" stroke="#FFFED0" stroke-width="1"/>
      </g>
      <g>
        <path d="M62.563,62.633 C57.345,61.178 53.551,58.435 54.088,56.507 C54.626,54.578 60.689,53.083 64.959,54.274 C69.23,55.465 73.524,59.85 72.986,61.778 C72.448,63.706 67.782,64.089 62.563,62.633 z" fill="#000000"/>
        <path d="M62.563,62.633 C57.345,61.178 53.551,58.435 54.088,56.507 C54.626,54.578 60.689,53.083 64.959,54.274 C69.23,55.465 73.524,59.85 72.986,61.778 C72.448,63.706 67.782,64.089 62.563,62.633 z" fill-opacity="0" stroke="#FFFED0" stroke-width="1"/>
      </g>
    </g>
    <g>
      <g>
        <path d="M36.628,55.928 L42.288,54.929 C42.288,54.929 43.707,65.733 44.683,68.496 C45.668,71.283 49.029,73.797 45.873,75.238 C44.02,76.085 41.943,76.404 40.213,76.238 C37.083,75.936 39.133,72.432 39.045,69.62 C38.951,66.614 36.628,55.928 36.628,55.928 z" fill="#000000"/>
        <path d="M36.628,55.928 L42.288,54.929 C42.288,54.929 43.707,65.733 44.683,68.496 C45.668,71.283 49.029,73.797 45.873,75.238 C44.02,76.085 41.943,76.404 40.213,76.238 C37.083,75.936 39.133,72.432 39.045,69.62 C38.951,66.614 36.628,55.928 36.628,55.928 z" fill-opacity="0" stroke="#FFFED0" stroke-width="1"/>
      </g>
      <g>
        <path d="M36.628,55.928 L42.288,54.929 C42.288,54.929 43.707,65.733 44.683,68.496 C45.668,71.283 49.029,73.797 45.873,75.238 C44.02,76.085 41.943,76.404 40.213,76.238 C37.083,75.936 39.133,72.432 39.045,69.62 C38.951,66.614 36.628,55.928 36.628,55.928 z" fill="#000000"/>
        <path d="M36.628,55.928 L42.288,54.929 C42.288,54.929 43.707,65.733 44.683,68.496 C45.668,71.283 49.029,73.797 45.873,75.238 C44.02,76.085 41.943,76.404 40.213,76.238 C37.083,75.936 39.133,72.432 39.045,69.62 C38.951,66.614 36.628,55.928 36.628,55.928 z" fill-opacity="0" stroke="#FFFED0" stroke-width="1"/>
      </g>
    </g>
    <g>
      <g>
        <path d="M40.119,59.174 C32.795,60.467 26.471,59.322 25.993,56.616 C25.516,53.91 31.894,47.924 37.887,46.866 C43.88,45.808 52.037,49.228 52.514,51.934 C52.992,54.64 47.443,57.881 40.119,59.174 z" fill="#000000"/>
        <path d="M40.119,59.174 C32.795,60.467 26.471,59.322 25.993,56.616 C25.516,53.91 31.894,47.924 37.887,46.866 C43.88,45.808 52.037,49.228 52.514,51.934 C52.992,54.64 47.443,57.881 40.119,59.174 z" fill-opacity="0" stroke="#FFFED0" stroke-width="1"/>
      </g>
      <g>
        <path d="M40.119,59.174 C32.795,60.467 26.471,59.322 25.993,56.616 C25.516,53.91 31.894,47.924 37.887,46.866 C43.88,45.808 52.037,49.228 52.514,51.934 C52.992,54.64 47.443,57.881 40.119,59.174 z" fill="#000000"/>
        <path d="M40.119,59.174 C32.795,60.467 26.471,59.322 25.993,56.616 C25.516,53.91 31.894,47.924 37.887,46.866 C43.88,45.808 52.037,49.228 52.514,51.934 C52.992,54.64 47.443,57.881 40.119,59.174 z" fill-opacity="0" stroke="#FFFED0" stroke-width="1"/>
      </g>
    </g>
    <g>
      <path d="M39.033,36.401 C39.531,36.418 40.086,36.352 40.349,36.843 C40.473,37.293 39.759,37.882 38.756,38.159 C37.752,38.436 36.837,38.296 36.713,37.846 C36.589,37.397 37.303,36.809 38.307,36.532 L39.033,36.401 z" fill-opacity="0" stroke="#FFFED0" stroke-width="2"/>
    </g>
    <g>
      <g>
        <path d="M45.114,49.925 C45.599,49.925 45.993,50.069 45.993,50.247 C45.993,50.425 45.599,50.569 45.114,50.569 C44.629,50.569 44.235,50.425 44.235,50.247 C44.235,50.069 44.629,49.925 45.114,49.925 z" fill="#FFFED0"/>
        <path d="M45.114,49.925 C45.599,49.925 45.993,50.069 45.993,50.247 C45.993,50.425 45.599,50.569 45.114,50.569 C44.629,50.569 44.235,50.425 44.235,50.247 C44.235,50.069 44.629,49.925 45.114,49.925 z" fill-opacity="0" stroke="#FFFED0" stroke-width="1"/>
      </g>
    </g>
    <g>
      <path d="M46.368,54.005 C46.043,54.005 45.779,53.887 45.779,53.741 C45.779,53.595 46.043,53.477 46.368,53.477 C46.694,53.477 46.958,53.595 46.958,53.741 C46.958,53.887 46.694,54.005 46.368,54.005 z" fill-opacity="0" stroke="#FFFED0" stroke-width="1"/>
      <path d="M46.368,54.005 C46.043,54.005 45.779,53.887 45.779,53.741 C45.779,53.595 46.043,53.477 46.368,53.477 C46.694,53.477 46.958,53.595 46.958,53.741 C46.958,53.887 46.694,54.005 46.368,54.005 z" fill-opacity="0" stroke="#FFFED0" stroke-width="1"/>
    </g>
    <g>
      <path d="M31.644,54.929 C31.318,54.929 31.054,54.811 31.054,54.665 C31.054,54.52 31.318,54.401 31.644,54.401 C31.969,54.401 32.233,54.52 32.233,54.665 C32.233,54.811 31.969,54.929 31.644,54.929 z" fill-opacity="0" stroke="#FFFED0" stroke-width="1"/>
      <path d="M31.644,54.929 C31.318,54.929 31.054,54.811 31.054,54.665 C31.054,54.52 31.318,54.401 31.644,54.401 C31.969,54.401 32.233,54.52 32.233,54.665 C32.233,54.811 31.969,54.929 31.644,54.929 z" fill-opacity="0" stroke="#FFFED0" stroke-width="1"/>
    </g>
    <g>
      <path d="M65.101,56.457 C64.825,56.285 64.663,56.045 64.74,55.922 C64.817,55.798 65.104,55.837 65.38,56.01 C65.657,56.182 65.818,56.422 65.741,56.546 C65.664,56.669 65.377,56.63 65.101,56.457 z" fill-opacity="0" stroke="#FFFED0" stroke-width="1"/>
      <path d="M65.101,56.457 C64.825,56.285 64.663,56.045 64.74,55.922 C64.817,55.798 65.104,55.837 65.38,56.01 C65.657,56.182 65.818,56.422 65.741,56.546 C65.664,56.669 65.377,56.63 65.101,56.457 z" fill-opacity="0" stroke="#FFFED0" stroke-width="1"/>
    </g>
    <g>
      <path d="M61.798,56.354 C61.228,56.369 60.761,56.174 60.754,55.919 C60.748,55.664 61.204,55.446 61.774,55.431 C62.344,55.416 62.811,55.611 62.818,55.866 C62.824,56.121 62.368,56.339 61.798,56.354 z" fill-opacity="0" stroke="#FFFED0" stroke-width="1"/>
      <path d="M61.798,56.354 C61.228,56.369 60.761,56.174 60.754,55.919 C60.748,55.664 61.204,55.446 61.774,55.431 C62.344,55.416 62.811,55.611 62.818,55.866 C62.824,56.121 62.368,56.339 61.798,56.354 z" fill-opacity="0" stroke="#FFFED0" stroke-width="1"/>
    </g>
    <g>
      <g>
        <path d="M46.121,33.356 C46.606,33.356 47,33.501 47,33.679 C47,33.856 46.606,34 46.121,34 C45.636,34 45.242,33.856 45.242,33.679 C45.242,33.501 45.636,33.356 46.121,33.356 z" fill="#FFFED0"/>
        <path d="M46.121,33.356 C46.606,33.356 47,33.501 47,33.679 C47,33.856 46.606,34 46.121,34 C45.636,34 45.242,33.856 45.242,33.679 C45.242,33.501 45.636,33.356 46.121,33.356 z" fill-opacity="0" stroke="#FFFED0" stroke-width="1"/>
      </g>
    </g>
    <g>
      <g>
        <path d="M61.192,37.66 C61.847,38.073 62.256,38.602 62.105,38.842 C61.954,39.083 61.3,38.942 60.645,38.529 C59.989,38.116 59.58,37.587 59.731,37.347 C59.882,37.107 60.536,37.247 61.192,37.66 z" fill="#FFFED0"/>
        <path d="M61.192,37.66 C61.847,38.073 62.256,38.602 62.105,38.842 C61.954,39.083 61.3,38.942 60.645,38.529 C59.989,38.116 59.58,37.587 59.731,37.347 C59.882,37.107 60.536,37.247 61.192,37.66 z" fill-opacity="0" stroke="#FFFED0" stroke-width="1"/>
      </g>
    </g>
  </g>
</svg>
