<?xml version="1.0" encoding="UTF-8"?>
<!DOCTYPE svg PUBLIC "-//W3C//DTD SVG 1.1//EN" "http://www.w3.org/Graphics/SVG/1.1/DTD/svg11.dtd">
<svg version="1.1" xmlns="http://www.w3.org/2000/svg" xmlns:xlink="http://www.w3.org/1999/xlink" x="0" y="0" width="100" height="100" viewBox="0, 0, 100, 100">
  <g id="Layer_1">
    <path d="M49.429,73.747 C45.342,73.747 42.028,70.434 42.028,66.347 C42.028,61.018 47.31,56.438 49.429,48.912 C51.324,56.438 56.837,60.939 56.829,66.347 C56.823,70.434 53.516,73.747 49.429,73.747 z" fill-opacity="0" stroke="#FFFED0" stroke-width="1.75" stroke-linecap="round" stroke-linejoin="round"/>
    <path d="M63.531,54.088 C59.444,54.088 56.131,50.775 56.131,46.687 C56.131,41.359 61.413,36.779 63.531,29.253 C65.426,36.779 70.94,41.28 70.932,46.687 C70.926,50.775 67.618,54.088 63.531,54.088 z" fill-opacity="0" stroke="#FFFED0" stroke-width="1.75" stroke-linecap="round" stroke-linejoin="round"/>
    <path d="M35.469,54.088 C31.382,54.088 28.068,50.775 28.068,46.687 C28.068,41.359 33.35,36.779 35.469,29.253 C37.364,36.779 42.877,41.28 42.869,46.687 C42.863,50.775 39.556,54.088 35.469,54.088 z" fill-opacity="0" stroke="#FFFED0" stroke-width="1.75" stroke-linecap="round" stroke-linejoin="round"/>
    <path d="M49.429,73.747 C45.342,73.747 42.028,70.434 42.028,66.347 C42.028,61.018 47.31,56.438 49.429,48.912 C51.324,56.438 56.837,60.939 56.829,66.347 C56.823,70.434 53.516,73.747 49.429,73.747 z" fill="#000000"/>
    <path d="M63.531,54.088 C59.444,54.088 56.131,50.775 56.131,46.687 C56.131,41.359 61.413,36.779 63.531,29.253 C65.426,36.779 70.94,41.28 70.932,46.687 C70.926,50.775 67.618,54.088 63.531,54.088 z" fill="#000000"/>
    <path d="M35.469,54.088 C31.382,54.088 28.068,50.775 28.068,46.687 C28.068,41.359 33.35,36.779 35.469,29.253 C37.364,36.779 42.877,41.28 42.869,46.687 C42.863,50.775 39.556,54.088 35.469,54.088 z" fill="#000000"/>
    <g>
      <path d="M52.625,62.875 C52.75,62.875 52.891,62.938 52.891,62.938 C53.482,63.304 54.346,65.511 53.699,67.59 C53.052,69.669 51.578,70.359 50.692,70.412 C49.532,70.48 49.586,68.406 50.234,66.327 C50.638,65.027 51.197,63.872 51.831,63.272 C52.021,63.093 52.218,62.964 52.419,62.894 C52.419,62.894 52.5,62.875 52.625,62.875 z" fill-opacity="0" stroke="#FFFED0" stroke-width="3"/>
      <path d="M52.938,64.072 L53,64.126 C53.184,64.466 52.757,66.284 52.177,67.89 C51.597,69.496 51.084,70.28 50.9,69.94 C50.716,69.601 51.061,68.287 51.641,66.681 C52.004,65.678 52.372,64.797 52.642,64.361 C52.724,64.231 52.796,64.14 52.856,64.098 L52.938,64.072 z" fill-opacity="0" stroke="#FFFED0" stroke-width="1.5"/>
    </g>
    <g>
      <path d="M66.965,43.157 C67.09,43.157 67.23,43.22 67.23,43.22 C67.821,43.587 68.685,45.793 68.038,47.872 C67.392,49.952 65.918,50.642 65.031,50.694 C63.871,50.762 63.926,48.688 64.573,46.609 C64.978,45.31 65.537,44.154 66.17,43.555 C66.361,43.375 66.558,43.246 66.759,43.177 C66.759,43.177 66.84,43.157 66.965,43.157 z" fill-opacity="0" stroke="#FFFED0" stroke-width="3"/>
      <path d="M67.277,44.354 L67.34,44.408 C67.524,44.748 67.097,46.566 66.517,48.172 C65.937,49.778 65.423,50.562 65.239,50.223 C65.055,49.883 65.401,48.569 65.981,46.963 C66.343,45.96 66.712,45.08 66.982,44.644 C67.063,44.513 67.135,44.423 67.196,44.38 L67.277,44.354 z" fill-opacity="0" stroke="#FFFED0" stroke-width="1.5"/>
    </g>
    <g>
      <path d="M38.884,43.546 C39.009,43.546 39.15,43.608 39.15,43.608 C39.741,43.975 40.605,46.182 39.958,48.261 C39.311,50.34 37.837,51.03 36.951,51.082 C35.791,51.151 35.846,49.077 36.493,46.997 C36.897,45.698 37.457,44.543 38.09,43.943 C38.28,43.763 38.477,43.634 38.678,43.565 C38.678,43.565 38.759,43.546 38.884,43.546 z" fill-opacity="0" stroke="#FFFED0" stroke-width="3"/>
      <path d="M39.197,44.743 L39.259,44.797 C39.443,45.137 39.016,46.955 38.436,48.56 C37.856,50.166 37.343,50.951 37.159,50.611 C36.975,50.271 37.32,48.957 37.901,47.352 C38.263,46.348 38.631,45.468 38.902,45.032 C38.983,44.901 39.055,44.811 39.115,44.769 L39.197,44.743 z" fill-opacity="0" stroke="#FFFED0" stroke-width="1.5"/>
    </g>
  </g>
</svg>
