<?xml version="1.0" encoding="UTF-8"?>
<!DOCTYPE svg PUBLIC "-//W3C//DTD SVG 1.1//EN" "http://www.w3.org/Graphics/SVG/1.1/DTD/svg11.dtd">
<svg version="1.1" xmlns="http://www.w3.org/2000/svg" xmlns:xlink="http://www.w3.org/1999/xlink" x="0" y="0" width="100" height="100" viewBox="0, 0, 100, 100">
  <g id="Layer_1">
    <g>
      <path d="M53.294,27.146 C66.681,40.415 70.344,61.721 54.714,76.984 C61.093,60.148 51.721,44.493 41.277,38.565 L41.293,38.533 L45.738,35.474 L52.613,37.972 L50.488,30.754 L53.221,27.176 L53.294,27.146 z" fill-opacity="0" stroke="#FFFED0" stroke-width="1.75" stroke-linecap="round" stroke-linejoin="round"/>
      <path d="M35.383,28.093 L41.487,26.325 L43.491,20.295 L47.058,25.554 L53.413,25.596 L49.514,30.614 L51.437,36.671 L45.46,34.513 L40.294,38.214 L40.499,31.863 z" fill-opacity="0" stroke="#FFFED0" stroke-width="1.75" stroke-linecap="round" stroke-linejoin="round"/>
    </g>
    <g>
      <path d="M45.912,46.243 C56.233,56.136 59.094,71.998 47.435,83.771 C52.059,70.922 44.815,59.356 36.818,54.993 L36.83,54.968 L40.036,52.559 L45.671,54.57 L43.893,48.826 L45.857,46.266 L45.912,46.243 z" fill-opacity="0" stroke="#FFFED0" stroke-width="1.75" stroke-linecap="round" stroke-linejoin="round"/>
      <path d="M32.153,46.938 L36.759,45.52 L38.203,40.921 L40.975,44.864 L45.795,44.816 L42.902,48.671 L44.437,53.24 L39.877,51.679 L36.006,54.552 L36.081,49.732 z" fill-opacity="0" stroke="#FFFED0" stroke-width="1.75" stroke-linecap="round" stroke-linejoin="round"/>
    </g>
    <g>
      <path d="M53.294,27.146 C66.681,40.415 70.344,61.721 54.714,76.984 C61.093,60.148 51.721,44.493 41.277,38.565 L41.293,38.533 L45.738,35.474 L52.613,37.972 L50.488,30.754 L53.221,27.176 L53.294,27.146 z" fill="#000000"/>
      <path d="M35.383,28.093 L41.487,26.325 L43.491,20.295 L47.058,25.554 L53.413,25.596 L49.514,30.614 L51.437,36.671 L45.46,34.513 L40.294,38.214 L40.499,31.863 z" fill="#000000"/>
    </g>
    <g>
      <path d="M45.912,46.243 C56.233,56.136 59.094,71.998 47.435,83.771 C52.059,70.922 44.815,59.356 36.818,54.993 L36.83,54.968 L40.036,52.559 L45.671,54.57 L43.893,48.826 L45.857,46.266 L45.912,46.243 z" fill="#000000"/>
      <path d="M32.153,46.938 L36.759,45.52 L38.203,40.921 L40.975,44.864 L45.795,44.816 L42.902,48.671 L44.437,53.24 L39.877,51.679 L36.006,54.552 L36.081,49.732 z" fill="#000000"/>
    </g>
  </g>
</svg>
