<?xml version="1.0" encoding="UTF-8"?>
<!DOCTYPE svg PUBLIC "-//W3C//DTD SVG 1.1//EN" "http://www.w3.org/Graphics/SVG/1.1/DTD/svg11.dtd">
<svg version="1.1" xmlns="http://www.w3.org/2000/svg" xmlns:xlink="http://www.w3.org/1999/xlink" x="0" y="0" width="100" height="100" viewBox="0, 0, 100, 100">
  <g id="Layer_1">
    <g>
      <path d="M53.759,55.304 C55.483,56.369 58.233,54.869 58.188,52.411 C58.162,50.944 56.96,49.096 55.069,48.335 C53.114,47.549 50.688,48.184 48.962,50.35 C46.983,52.833 46.988,56.061 48.672,58.763 C49.694,60.402 52.598,63.099 57.112,62.437 C60.983,61.869 63.878,59.072 64.73,55.271 C65.824,50.398 63.304,44.496 57.805,41.864 C51.165,38.685 42.988,43.207 40.74,50.722 C38.301,58.874 40.394,64.987 46.947,69.175 C55.7,74.771 68.197,69.822 72.488,60.33 C77.523,49.188 70.733,35.869 60.656,31.467 C49.547,26.615 34.666,30.807 29.309,41.849 C25.912,48.848 25.368,59.131 31.566,69.04" fill="#000000"/>
      <g>
        <path d="M53.759,55.304 C55.483,56.369 58.233,54.869 58.188,52.411 C58.162,50.944 56.96,49.096 55.069,48.335 C53.114,47.549 50.688,48.184 48.962,50.35 C46.983,52.833 46.988,56.061 48.672,58.763 C49.694,60.402 52.598,63.099 57.112,62.437 C60.983,61.869 63.878,59.072 64.73,55.271 C65.824,50.398 63.304,44.496 57.805,41.864 C51.165,38.685 42.988,43.207 40.74,50.722 C38.301,58.874 40.394,64.987 46.947,69.175 C55.7,74.771 68.197,69.822 72.488,60.33 C77.523,49.188 70.733,35.869 60.656,31.467 C49.547,26.615 34.666,30.807 29.309,41.849 C25.912,48.848 25.368,59.131 31.566,69.04" fill="#000000"/>
        <path d="M53.759,55.304 C55.483,56.369 58.233,54.869 58.188,52.411 C58.162,50.944 56.96,49.096 55.069,48.335 C53.114,47.549 50.688,48.184 48.962,50.35 C46.983,52.833 46.988,56.061 48.672,58.763 C49.694,60.402 52.598,63.099 57.112,62.437 C60.983,61.869 63.878,59.072 64.73,55.271 C65.824,50.398 63.304,44.496 57.805,41.864 C51.165,38.685 42.988,43.207 40.74,50.722 C38.301,58.874 40.394,64.987 46.947,69.175 C55.7,74.771 68.197,69.822 72.488,60.33 C77.523,49.188 70.733,35.869 60.656,31.467 C49.547,26.615 34.666,30.807 29.309,41.849 C25.912,48.848 25.368,59.131 31.566,69.04" fill-opacity="0" stroke="#FFFED0" stroke-width="1" stroke-linecap="round" stroke-linejoin="round"/>
      </g>
    </g>
    <path d="M39.308,58.274 L30.817,47.389 L37.776,41.961 L46.266,52.846 L39.308,58.274 z" fill="#000000"/>
    <g>
      <path d="M32.659,67.528 C32.563,64.112 37.919,60.897 41.564,60.582 C43.654,60.401 44.601,61.481 44.874,61.848 C44.874,61.848 44.642,61.583 44.642,61.583 C44.753,61.731 44.977,61.98 44.874,61.847 C37.387,52.205 42.053,45.684 46.908,42.692" fill="#000000"/>
      <g>
        <path d="M32.659,67.528 C32.563,64.112 37.919,60.897 41.564,60.582 C43.654,60.401 44.601,61.481 44.874,61.848 C44.874,61.848 44.642,61.583 44.642,61.583 C44.753,61.731 44.977,61.98 44.874,61.847 C37.387,52.205 42.053,45.684 46.908,42.692" fill="#000000"/>
        <path d="M32.659,67.528 C32.563,64.112 37.919,60.897 41.564,60.582 C43.654,60.401 44.601,61.481 44.874,61.848 C44.874,61.848 44.642,61.583 44.642,61.583 C44.753,61.731 44.977,61.98 44.874,61.847 C37.387,52.205 42.053,45.684 46.908,42.692" fill-opacity="0" stroke="#FFFED0" stroke-width="1" stroke-linecap="round" stroke-linejoin="round"/>
      </g>
    </g>
    <g>
      <path d="M44.874,61.848 C45.819,63.586 43.606,66.606 39.931,68.592 C36.256,70.578 32.511,70.779 31.566,69.04 C30.621,67.301 32.835,64.282 36.509,62.295 C40.184,60.309 43.929,60.109 44.874,61.848 z" fill="#000000"/>
      <g>
        <path d="M44.874,61.848 C45.819,63.586 43.606,66.606 39.931,68.592 C36.256,70.578 32.511,70.779 31.566,69.04 C30.621,67.301 32.835,64.282 36.509,62.295 C40.184,60.309 43.929,60.109 44.874,61.848 z" fill="#000000"/>
        <path d="M44.874,61.848 C45.819,63.586 43.606,66.606 39.931,68.592 C36.256,70.578 32.511,70.779 31.566,69.04 C30.621,67.301 32.835,64.282 36.509,62.295 C40.184,60.309 43.929,60.109 44.874,61.848 z" fill-opacity="0" stroke="#FFFED0" stroke-width="1" stroke-linecap="round" stroke-linejoin="round"/>
      </g>
    </g>
  </g>
</svg>
