<?xml version="1.0" encoding="UTF-8"?>
<!DOCTYPE svg PUBLIC "-//W3C//DTD SVG 1.1//EN" "http://www.w3.org/Graphics/SVG/1.1/DTD/svg11.dtd">
<svg version="1.1" xmlns="http://www.w3.org/2000/svg" xmlns:xlink="http://www.w3.org/1999/xlink" x="0" y="0" width="100" height="100" viewBox="0, 0, 100, 100">
  <g id="Layer_1">
    <g>
      <g>
        <g>
          <path d="M46.123,84.283 L50.557,87.281 L54.877,84.283 L56.633,81.293 L50.557,80.502 L44.367,81.293 L46.123,84.283 z" fill="#000000"/>
          <path d="M46.123,84.283 L50.557,87.281 L54.877,84.283 L56.633,81.293 L50.557,80.502 L44.367,81.293 L46.123,84.283 z" fill-opacity="0" stroke="#FFFED0" stroke-width="1" stroke-linecap="round" stroke-linejoin="round"/>
        </g>
        <g>
          <path d="M46.123,84.283 L50.557,87.281 L54.877,84.283 L56.633,81.293 L50.557,80.502 L44.367,81.293 L46.123,84.283 z" fill="#000000"/>
          <path d="M46.123,84.283 L50.557,87.281 L54.877,84.283 L56.633,81.293 L50.557,80.502 L44.367,81.293 L46.123,84.283 z" fill-opacity="0" stroke="#FFFED0" stroke-width="1" stroke-linecap="round" stroke-linejoin="round"/>
        </g>
      </g>
      <g>
        <g>
          <path d="M48.329,70.324 L52.671,70.324 L52.671,82.069 L50.424,83.127 L48.329,82.069 L48.329,70.324 z" fill="#000000"/>
          <path d="M48.329,70.324 L52.671,70.324 L52.671,82.069 L50.424,83.127 L48.329,82.069 L48.329,70.324 z" fill-opacity="0" stroke="#FFFED0" stroke-width="1" stroke-linecap="round" stroke-linejoin="round"/>
        </g>
        <g>
          <path d="M48.329,70.324 L52.671,70.324 L52.671,82.069 L50.424,83.127 L48.329,82.069 L48.329,70.324 z" fill="#000000"/>
          <path d="M48.329,70.324 L52.671,70.324 L52.671,82.069 L50.424,83.127 L48.329,82.069 L48.329,70.324 z" fill-opacity="0" stroke="#FFFED0" stroke-width="1" stroke-linecap="round" stroke-linejoin="round"/>
        </g>
      </g>
      <g>
        <path d="M49.419,74.695 L51.623,74.695" fill="#000000"/>
        <path d="M49.419,74.695 L51.623,74.695" fill-opacity="0" stroke="#FFFED0" stroke-width="0.75" stroke-linecap="round" stroke-linejoin="round"/>
      </g>
      <g>
        <path d="M49.419,77.676 L51.623,77.676" fill="#000000"/>
        <path d="M49.419,77.676 L51.623,77.676" fill-opacity="0" stroke="#FFFED0" stroke-width="0.75" stroke-linecap="round" stroke-linejoin="round"/>
      </g>
      <g>
        <path d="M49.377,80.658 L51.581,80.658" fill="#000000"/>
        <path d="M49.377,80.658 L51.581,80.658" fill-opacity="0" stroke="#FFFED0" stroke-width="0.75" stroke-linecap="round" stroke-linejoin="round"/>
      </g>
      <g>
        <g>
          <path d="M41.563,60.77 L42.414,64.466 L50.429,68.413 L58.346,64.558 L59.437,60.77 L59.245,68.108 L50.429,73.205 L41.755,68.108 L41.563,60.77 z" fill="#000000"/>
          <path d="M41.563,60.77 L42.414,64.466 L50.429,68.413 L58.346,64.558 L59.437,60.77 L59.245,68.108 L50.429,73.205 L41.755,68.108 L41.563,60.77 z" fill-opacity="0" stroke="#FFFED0" stroke-width="1" stroke-linecap="round" stroke-linejoin="round"/>
        </g>
        <g>
          <path d="M41.563,60.77 L42.414,64.466 L50.429,68.413 L58.346,64.558 L59.437,60.77 L59.245,68.108 L50.429,73.205 L41.755,68.108 L41.563,60.77 z" fill="#000000"/>
          <path d="M41.563,60.77 L42.414,64.466 L50.429,68.413 L58.346,64.558 L59.437,60.77 L59.245,68.108 L50.429,73.205 L41.755,68.108 L41.563,60.77 z" fill-opacity="0" stroke="#FFFED0" stroke-width="1" stroke-linecap="round" stroke-linejoin="round"/>
        </g>
      </g>
    </g>
    <g>
      <g>
        <g>
          <path d="M53.662,68.425 L54.586,33.691 L50.549,17.719 L46.414,33.691 L47.338,68.425 L50.421,70.324 L53.662,68.425" fill="#000000"/>
          <path d="M53.662,68.425 L54.586,33.691 L50.549,17.719 L46.414,33.691 L47.338,68.425 L50.421,70.324 L53.662,68.425" fill-opacity="0" stroke="#FFFED0" stroke-width="1" stroke-linecap="round" stroke-linejoin="round"/>
        </g>
        <g>
          <path d="M53.662,68.425 L54.586,33.691 L50.549,17.719 L46.414,33.691 L47.338,68.425 L50.421,70.324 L53.662,68.425" fill="#000000"/>
          <path d="M53.662,68.425 L54.586,33.691 L50.549,17.719 L46.414,33.691 L47.338,68.425 L50.421,70.324 L53.662,68.425" fill-opacity="0" stroke="#FFFED0" stroke-width="1" stroke-linecap="round" stroke-linejoin="round"/>
        </g>
      </g>
      <path d="M50.424,68.291 L50.552,24.353" fill-opacity="0" stroke="#FFFED0" stroke-width="0.75" stroke-linecap="round" stroke-linejoin="round"/>
      <path d="M53.049,34.097 L50.511,38.184 L47.951,34.097" fill-opacity="0" stroke="#FFFED0" stroke-width="0.75" stroke-linecap="round" stroke-linejoin="round"/>
    </g>
  </g>
</svg>
