<?xml version="1.0" encoding="UTF-8"?>
<!DOCTYPE svg PUBLIC "-//W3C//DTD SVG 1.1//EN" "http://www.w3.org/Graphics/SVG/1.1/DTD/svg11.dtd">
<svg version="1.1" xmlns="http://www.w3.org/2000/svg" xmlns:xlink="http://www.w3.org/1999/xlink" x="0" y="0" width="100" height="100" viewBox="0, 0, 100, 100">
  <g id="Layer_1">
    <path d="M47.191,41.79 C50.706,39.9 57.515,41.481 60.071,43.858 C62.626,46.235 61.519,49.2 61.519,49.2 L43.881,46.083 C43.881,46.083 43.676,43.68 47.191,41.79 z" fill-opacity="0" stroke="#FFFED0" stroke-width="1.75"/>
    <path d="M47.191,41.79 C50.706,39.9 57.515,41.481 60.071,43.858 C62.626,46.235 56.5,48.239 56.5,48.239 L43.881,46.083 C43.881,46.083 43.676,43.68 47.191,41.79 z" fill="#000000"/>
    <path d="M40.113,61.4 C31.62,61.321 23.903,57.473 21.805,54.712 C21.552,54.38 27.963,53.07 27.879,52.687 C27.819,52.414 21.667,52.042 21.638,51.766 C21.253,48.187 31.035,42.983 40.113,42.748 C47.206,42.564 52.033,43.774 57.912,45.64 C60.468,46.452 65.683,48.489 66.729,48.746 C68.632,49.214 77.475,42.508 78.807,43.484 C80.958,45.061 76.288,51.092 76.288,53.24 C76.288,54.841 78.555,61.011 77.089,62.087 C75,63.621 67.618,55.032 66.238,55.573 C64.876,56.108 60.569,58.062 57.485,59.11 C54.67,60.067 46.838,61.706 40.113,61.4 z" fill="#000000"/>
    <path d="M40.113,61.4 C31.62,61.321 23.903,57.473 21.805,54.712 C21.552,54.38 27.963,53.07 27.879,52.687 C27.819,52.414 21.667,52.042 21.638,51.766 C21.253,48.187 31.035,42.983 40.113,42.748 C47.206,42.564 52.033,43.774 57.912,45.64 C60.468,46.452 65.683,48.489 66.729,48.746 C68.632,49.214 77.475,42.508 78.807,43.484 C80.958,45.061 76.288,51.092 76.288,53.24 C76.288,54.841 78.555,61.011 77.089,62.087 C75,63.621 67.618,55.032 66.238,55.573 C64.876,56.108 60.569,58.062 57.485,59.11 C54.67,60.067 46.838,61.706 40.113,61.4 z" fill-opacity="0" stroke="#FFFED0" stroke-width="1"/>
    <path d="M36.898,45.509 C43.709,50.269 38.923,58.393 34.874,58.946" fill-opacity="0" stroke="#FFFED0" stroke-width="1" stroke-linecap="round" stroke-linejoin="round"/>
    <path d="M42.52,50.812 C50.803,49.548 50.784,50.774 52.205,53.841 C53.338,56.285 50.822,58.141 41.868,54.896" fill-opacity="0" stroke="#FFFED0" stroke-width="1" stroke-linecap="round" stroke-linejoin="round"/>
    <path d="M69.73,50.197 L74.231,48.239" fill-opacity="0" stroke="#FFFED0" stroke-width="1" stroke-linecap="round" stroke-linejoin="round"/>
    <path d="M69.638,52.289 L73.445,52.48" fill-opacity="0" stroke="#FFFED0" stroke-width="1" stroke-linecap="round" stroke-linejoin="round"/>
    <path d="M69.36,54.287 L73.76,57.429" fill-opacity="0" stroke="#FFFED0" stroke-width="1" stroke-linecap="round" stroke-linejoin="round"/>
    <g>
      <path d="M31.446,50.197 C31.171,50.197 30.948,49.974 30.948,49.698 C30.948,49.423 31.171,49.2 31.446,49.2 C31.722,49.2 31.945,49.423 31.945,49.698 C31.945,49.974 31.722,50.197 31.446,50.197 z" fill="#FFFED0"/>
      <path d="M31.446,50.197 C31.171,50.197 30.948,49.974 30.948,49.698 C30.948,49.423 31.171,49.2 31.446,49.2 C31.722,49.2 31.945,49.423 31.945,49.698 C31.945,49.974 31.722,50.197 31.446,50.197 z" fill-opacity="0" stroke="#FFFED0" stroke-width="1.5"/>
    </g>
  </g>
</svg>
