<?xml version="1.0" encoding="UTF-8"?>
<!DOCTYPE svg PUBLIC "-//W3C//DTD SVG 1.1//EN" "http://www.w3.org/Graphics/SVG/1.1/DTD/svg11.dtd">
<svg version="1.1" xmlns="http://www.w3.org/2000/svg" xmlns:xlink="http://www.w3.org/1999/xlink" x="0" y="0" width="100" height="100" viewBox="0, 0, 100, 100">
  <g id="Layer_1">
    <g>
      <path d="M51.147,36.776 C51.424,36.893 51.354,36.795 51.426,37.01 C51.452,37.491 51.555,37.745 51.949,37.876 C51.989,37.89 52.031,37.899 52.074,37.905 C52.306,37.939 52.488,38.186 52.297,38.323 C51.822,38.659 51.121,38.657 50.885,41.597 C50.757,43.196 50.887,48.653 50.923,54.972 C50.979,60.466 51.095,65.957 51.213,71.45 C52.125,68.135 53.893,65.146 55.693,62.248 C59.374,56.575 61.515,51.717 62.691,48.073 C62.891,47.757 62.74,47.917 63.237,47.704 C63.662,47.694 64.034,47.763 64.144,48.211 C64.05,51.453 63.726,56.042 62.891,62.248 C61.011,76.199 53.367,79.496 51.601,79.984 L51.406,79.977 C51.386,80.075 51.406,80.024 51.33,80.122 L50.161,81.146 C50.068,81.227 49.93,81.227 49.838,81.146 L48.668,80.122 C48.591,80.024 48.612,80.075 48.592,79.977 L48.398,79.984 C46.632,79.496 38.988,76.199 37.108,62.248 C36.273,56.042 35.949,51.453 35.856,48.211 C35.922,47.727 36.382,47.738 36.762,47.704 C37.258,47.917 37.108,47.757 37.308,48.073 C38.484,51.717 40.624,56.575 44.305,62.248 C46.165,65.12 47.806,68.161 48.786,71.451 C48.914,65.959 49.006,60.466 49.076,54.973 C49.112,48.653 49.241,43.196 49.114,41.597 C48.878,38.657 48.181,38.653 47.702,38.323 C47.509,38.189 47.693,37.939 47.926,37.905 C47.968,37.899 48.009,37.89 48.051,37.876 C48.571,37.703 48.581,37.188 48.582,37.168 C48.582,36.935 48.925,36.787 49.129,36.899 C49.357,37.024 49.65,37.126 49.999,37.123 C50.531,37.118 50.805,36.998 51.014,36.834 L51.147,36.776 z" fill="#000000"/>
      <path d="M51.148,36.777 C51.425,36.894 51.355,36.796 51.426,37.011 C51.453,37.491 51.556,37.746 51.95,37.877 C51.99,37.891 52.032,37.9 52.074,37.906 C52.307,37.94 52.489,38.187 52.297,38.324 C51.823,38.66 51.122,38.658 50.886,41.598 C50.758,43.197 50.888,48.654 50.923,54.973 C50.979,60.467 51.096,65.958 51.213,71.451 C52.126,68.136 53.894,65.147 55.694,62.249 C59.375,56.576 61.516,51.718 62.691,48.074 C62.891,47.758 62.741,47.918 63.237,47.705 C63.662,47.695 64.035,47.764 64.144,48.212 C64.051,51.454 63.727,56.043 62.891,62.249 C61.012,76.2 53.368,79.497 51.602,79.985 L51.407,79.978 C51.387,80.076 51.407,80.025 51.331,80.123 L50.162,81.147 C50.069,81.228 49.931,81.228 49.838,81.147 L48.669,80.123 C48.592,80.025 48.613,80.076 48.593,79.978 L48.398,79.985 C46.632,79.497 38.988,76.2 37.109,62.249 C36.273,56.043 35.949,51.454 35.857,48.212 C35.923,47.728 36.383,47.739 36.763,47.705 C37.259,47.918 37.109,47.758 37.309,48.074 C38.485,51.718 40.625,56.576 44.306,62.249 C46.166,65.121 47.807,68.162 48.787,71.452 C48.915,65.96 49.007,60.467 49.077,54.974 C49.112,48.654 49.242,43.197 49.114,41.598 C48.878,38.658 48.182,38.654 47.703,38.324 C47.51,38.19 47.693,37.94 47.927,37.906 C47.969,37.9 48.01,37.891 48.051,37.877 C48.572,37.704 48.582,37.189 48.583,37.169 C48.583,36.936 48.926,36.788 49.13,36.9 C49.358,37.025 49.651,37.127 50,37.124 C50.531,37.119 50.806,36.999 51.015,36.835 L51.148,36.777 z" fill-opacity="0" stroke="#FFFED0" stroke-width="1"/>
    </g>
    <g>
      <path d="M48.836,79.822 C48.741,79.968 48.566,80.031 48.398,79.985 C46.632,79.497 38.988,76.2 37.109,62.249 C36.273,56.043 35.949,51.454 35.857,48.212 C35.839,47.605 37.122,47.497 37.309,48.074 C38.484,51.718 40.625,56.576 44.306,62.249 C50.729,72.15 50.079,77.925 48.836,79.822 z" fill="#000000"/>
      <path d="M48.836,79.822 C48.741,79.968 48.566,80.031 48.398,79.985 C46.632,79.497 38.988,76.2 37.109,62.249 C36.273,56.043 35.949,51.454 35.857,48.212 C35.839,47.605 37.122,47.497 37.309,48.074 C38.484,51.718 40.625,56.576 44.306,62.249 C50.729,72.15 50.079,77.925 48.836,79.822 z" fill-opacity="0" stroke="#FFFED0" stroke-width="1" stroke-linecap="round" stroke-linejoin="round"/>
    </g>
    <g>
      <path d="M51.164,79.822 C51.259,79.968 51.434,80.031 51.602,79.985 C53.368,79.497 61.012,76.2 62.891,62.249 C63.727,56.043 64.051,51.454 64.144,48.212 C64.162,47.605 62.878,47.497 62.691,48.074 C61.516,51.718 59.375,56.576 55.694,62.249 C49.271,72.15 49.921,77.925 51.164,79.822 z" fill="#000000"/>
      <path d="M51.164,79.822 C51.259,79.968 51.434,80.031 51.602,79.985 C53.368,79.497 61.012,76.2 62.891,62.249 C63.727,56.043 64.051,51.454 64.144,48.212 C64.162,47.605 62.878,47.497 62.691,48.074 C61.516,51.718 59.375,56.576 55.694,62.249 C49.271,72.15 49.921,77.925 51.164,79.822 z" fill-opacity="0" stroke="#FFFED0" stroke-width="1" stroke-linecap="round" stroke-linejoin="round"/>
    </g>
    <g>
      <path d="M50,37.124 C49.651,37.127 49.358,37.025 49.13,36.9 C48.926,36.788 48.583,36.936 48.583,37.169 L48.583,37.169 C48.582,37.189 48.572,37.704 48.051,37.877 C48.01,37.891 47.969,37.9 47.927,37.906 C47.693,37.94 47.51,38.19 47.703,38.324 L47.703,38.324 C48.182,38.654 48.878,38.658 49.114,41.598 C49.242,43.197 49.112,48.654 49.077,54.974 C48.978,64.636 48.62,78.598 48.586,79.943 C48.584,80.015 48.614,80.076 48.669,80.123 L49.838,81.147 C49.931,81.228 50.069,81.228 50.162,81.147 L51.331,80.123 C51.386,80.076 51.416,80.015 51.414,79.943 C51.38,78.598 51.023,64.635 50.923,54.973 C50.888,48.654 50.758,43.197 50.886,41.598 C51.122,38.658 51.823,38.66 52.297,38.324 L52.297,38.324 C52.489,38.187 52.307,37.94 52.074,37.906 C52.032,37.9 51.99,37.891 51.95,37.877 C51.556,37.746 51.453,37.491 51.426,37.011 C51.415,36.799 51.183,36.705 51.015,36.835 C50.806,36.999 50.531,37.119 50,37.124 z" fill="#000000"/>
      <path d="M50,37.124 C49.651,37.127 49.358,37.025 49.13,36.9 C48.926,36.788 48.583,36.936 48.583,37.169 L48.583,37.169 C48.582,37.189 48.572,37.704 48.051,37.877 C48.01,37.891 47.969,37.9 47.927,37.906 C47.693,37.94 47.51,38.19 47.703,38.324 L47.703,38.324 C48.182,38.654 48.878,38.658 49.114,41.598 C49.242,43.197 49.112,48.654 49.077,54.974 C48.978,64.636 48.62,78.598 48.586,79.943 C48.584,80.015 48.614,80.076 48.669,80.123 L49.838,81.147 C49.931,81.228 50.069,81.228 50.162,81.147 L51.331,80.123 C51.386,80.076 51.416,80.015 51.414,79.943 C51.38,78.598 51.023,64.635 50.923,54.973 C50.888,48.654 50.758,43.197 50.886,41.598 C51.122,38.658 51.823,38.66 52.297,38.324 L52.297,38.324 C52.489,38.187 52.307,37.94 52.074,37.906 C52.032,37.9 51.99,37.891 51.95,37.877 C51.556,37.746 51.453,37.491 51.426,37.011 C51.415,36.799 51.183,36.705 51.015,36.835 C50.806,36.999 50.531,37.119 50,37.124 z" fill-opacity="0" stroke="#FFFED0" stroke-width="1" stroke-linecap="round" stroke-linejoin="round"/>
    </g>
    <g>
      <path d="M52.154,35.95 C53.125,34.846 53.788,32.813 53.703,30.624 C53.648,29.217 53.311,27.92 52.867,26.855 C53.172,25.87 53.638,25.292 53.893,25.47 C54.593,25.96 55.315,28.674 55.315,31.708 C55.315,34.742 54.531,37.201 52.781,37.201 C52.173,37.201 52.063,36.703 52.154,35.95 z" fill-opacity="0" stroke="#FFFED0" stroke-width="1.5"/>
      <path d="M52.154,35.95 C53.125,34.846 53.788,32.813 53.703,30.624 C53.648,29.217 53.311,27.92 52.867,26.855 C53.172,25.87 53.638,25.292 53.893,25.47 C54.593,25.96 55.315,28.674 55.315,31.708 C55.315,34.742 54.531,37.201 52.781,37.201 C52.173,37.201 52.063,36.703 52.154,35.95 z" fill="#000000"/>
    </g>
    <g>
      <path d="M52.828,30.411 C52.943,33.401 51.563,36.07 50.002,36.07 C48.441,36.07 47.031,33.643 47.175,30.411 C47.303,27.53 49.304,24.375 50.074,24.375 C50.845,24.375 52.7,27.05 52.828,30.411 z" fill-opacity="0" stroke="#FFFED0" stroke-width="1.5"/>
      <path d="M52.828,30.411 C52.943,33.401 51.563,36.07 50.002,36.07 C48.441,36.07 47.031,33.643 47.175,30.411 C47.303,27.53 49.304,24.375 50.074,24.375 C50.845,24.375 52.7,27.05 52.828,30.411 z" fill="#000000"/>
    </g>
    <g>
      <path d="M47.846,35.95 C46.875,34.846 46.212,32.813 46.297,30.624 C46.352,29.217 46.689,27.92 47.133,26.855 C46.828,25.87 46.362,25.292 46.107,25.47 C45.407,25.96 44.685,28.674 44.685,31.708 C44.685,34.742 45.469,37.201 47.219,37.201 C47.827,37.201 47.937,36.703 47.846,35.95 z" fill-opacity="0" stroke="#FFFED0" stroke-width="1.5"/>
      <path d="M47.846,35.95 C46.875,34.846 46.212,32.813 46.297,30.624 C46.352,29.217 46.689,27.92 47.133,26.855 C46.828,25.87 46.362,25.292 46.107,25.47 C45.407,25.96 44.685,28.674 44.685,31.708 C44.685,34.742 45.469,37.201 47.219,37.201 C47.827,37.201 47.937,36.703 47.846,35.95 z" fill="#000000"/>
    </g>
  </g>
</svg>
