<?xml version="1.0" encoding="UTF-8"?>
<!DOCTYPE svg PUBLIC "-//W3C//DTD SVG 1.1//EN" "http://www.w3.org/Graphics/SVG/1.1/DTD/svg11.dtd">
<svg version="1.1" xmlns="http://www.w3.org/2000/svg" xmlns:xlink="http://www.w3.org/1999/xlink" x="0" y="0" width="100" height="100" viewBox="0, 0, 100, 100">
  <g id="Layer_1">
    <g>
      <path d="M45.363,61.168 C43.123,60.783 34.737,66.716 36.618,64.083 C40.458,58.706 31.916,65.963 23.547,61.168 C27.685,62.597 30.788,59.13 33.045,57.689 C29.001,57.689 22.231,56.936 19.034,52.893 C23.735,54.303 27.873,53.175 29.377,51.576 C27.841,52.141 21.761,47.627 21.103,42.455 C21.103,42.455 25.71,46.781 30.318,46.781 C26.086,41.609 26.932,36.061 26.932,36.061 C28.398,40.436 30.318,43.36 36.606,47.451 C35.101,45.488 35.713,43.948 35.713,43.948 C35.713,43.948 35.713,46.934 41.249,50.225 C42.868,51.351 45.556,52.041 47.25,53.375 C48.262,54.172 48.842,55.239 48.842,56.654 C48.842,57.494 48.496,58.364 48.102,59.191 C47,61.5 44.738,63.009 45.362,61.165" fill-opacity="0" stroke="#FFFED0" stroke-width="1.5"/>
      <path d="M45.363,61.168 C43.123,60.783 34.737,66.716 36.618,64.083 C40.458,58.706 31.916,65.963 23.547,61.168 C27.685,62.597 30.788,59.13 33.045,57.689 C29.001,57.689 22.231,56.936 19.034,52.893 C23.735,54.303 27.873,53.175 29.377,51.576 C27.841,52.141 21.761,47.627 21.103,42.455 C21.103,42.455 25.71,46.781 30.318,46.781 C26.086,41.609 26.932,36.061 26.932,36.061 C28.398,40.436 30.318,43.36 36.606,47.451 C35.101,45.488 35.713,43.948 35.713,43.948 C35.713,43.948 35.713,46.934 41.249,50.225 C42.868,51.351 45.556,52.041 47.25,53.375 C48.262,54.172 48.842,55.239 48.842,56.654 C48.842,57.494 48.496,58.364 48.102,59.191 C47,61.5 44.738,63.009 45.362,61.165" fill="#000000"/>
      <path d="M29.913,47.08 C31.332,48.415 33.079,49.545 35.482,50.059" fill-opacity="0" stroke="#FFFED0" stroke-width="0.5" stroke-linecap="round" stroke-linejoin="round"/>
      <path d="M29.783,51.872 C31.607,52.389 33.551,52.564 35.612,51.872" fill-opacity="0" stroke="#FFFED0" stroke-width="0.5" stroke-linecap="round" stroke-linejoin="round"/>
      <path d="M32.704,57.58 C34.468,56.884 36.119,55.769 37.337,53.968" fill-opacity="0" stroke="#FFFED0" stroke-width="0.5" stroke-linecap="round" stroke-linejoin="round"/>
      <path d="M37.853,61.293 C39.131,59.892 40.157,58.232 40.459,56.079" fill-opacity="0" stroke="#FFFED0" stroke-width="0.5" stroke-linecap="round" stroke-linejoin="round"/>
      <path d="M45.325,60.031 C48.044,57.505 47.642,55.222 45.775,53.968 C45.125,53.531 40.823,51.532 38.938,50.094 C37.252,48.808 36.052,47.348 35.49,45.96" fill-opacity="0" stroke="#FFFED0" stroke-width="0.5" stroke-linecap="round" stroke-linejoin="round"/>
    </g>
    <g>
      <path d="M55.626,61.168 C57.866,60.783 66.252,66.716 64.371,64.083 C60.531,58.706 69.073,65.963 77.442,61.168 C73.304,62.597 70.201,59.13 67.944,57.689 C71.988,57.689 78.758,56.936 81.955,52.893 C77.254,54.303 73.116,53.175 71.612,51.576 C73.148,52.141 79.228,47.627 79.886,42.455 C79.886,42.455 75.279,46.781 70.671,46.781 C74.903,41.609 74.057,36.061 74.057,36.061 C72.591,40.436 70.671,43.36 64.383,47.451 C65.888,45.488 65.276,43.948 65.276,43.948 C65.276,43.948 65.276,46.934 59.74,50.225 C58.122,51.351 55.434,52.041 53.739,53.375 C52.727,54.172 52.147,55.239 52.147,56.654 C52.147,57.494 52.493,58.364 52.888,59.191 C53.989,61.5 56.251,63.009 55.627,61.165" fill-opacity="0" stroke="#FFFED0" stroke-width="1.5"/>
      <path d="M55.626,61.168 C57.866,60.783 66.252,66.716 64.371,64.083 C60.531,58.706 69.073,65.963 77.442,61.168 C73.304,62.597 70.201,59.13 67.944,57.689 C71.988,57.689 78.758,56.936 81.955,52.893 C77.254,54.303 73.116,53.175 71.612,51.576 C73.148,52.141 79.228,47.627 79.886,42.455 C79.886,42.455 75.279,46.781 70.671,46.781 C74.903,41.609 74.057,36.061 74.057,36.061 C72.591,40.436 70.671,43.36 64.383,47.451 C65.888,45.488 65.276,43.948 65.276,43.948 C65.276,43.948 65.276,46.934 59.74,50.225 C58.122,51.351 55.434,52.041 53.739,53.375 C52.727,54.172 52.147,55.239 52.147,56.654 C52.147,57.494 52.493,58.364 52.888,59.191 C53.989,61.5 56.251,63.009 55.627,61.165" fill="#000000"/>
      <path d="M71.076,47.08 C69.657,48.415 67.91,49.545 65.507,50.059" fill-opacity="0" stroke="#FFFED0" stroke-width="0.5" stroke-linecap="round" stroke-linejoin="round"/>
      <path d="M71.206,51.872 C69.382,52.389 67.438,52.564 65.377,51.872" fill-opacity="0" stroke="#FFFED0" stroke-width="0.5" stroke-linecap="round" stroke-linejoin="round"/>
      <path d="M68.285,57.58 C66.521,56.884 64.87,55.769 63.652,53.968" fill-opacity="0" stroke="#FFFED0" stroke-width="0.5" stroke-linecap="round" stroke-linejoin="round"/>
      <path d="M63.136,61.293 C61.858,59.892 60.832,58.232 60.53,56.079" fill-opacity="0" stroke="#FFFED0" stroke-width="0.5" stroke-linecap="round" stroke-linejoin="round"/>
      <path d="M55.664,60.031 C52.945,57.505 53.348,55.222 55.214,53.968 C55.864,53.531 60.167,51.532 62.052,50.094 C63.737,48.808 64.937,47.348 65.5,45.96" fill-opacity="0" stroke="#FFFED0" stroke-width="0.5" stroke-linecap="round" stroke-linejoin="round"/>
    </g>
  </g>
</svg>
